<?xml version="1.0" encoding="UTF-8"?>
<svg id="Layer_1" xmlns="http://www.w3.org/2000/svg" width="16" height="16" version="1.1" viewBox="0 0 16 16">
  <!-- Generator: Adobe Illustrator 29.3.1, SVG Export Plug-In . SVG Version: 2.1.0 Build 151)  -->
  <defs>
    <style>
      .st0 {
        fill-rule: evenodd;
      }
    </style>
  </defs>
  <path class="st0" d="M7.646,15.854c.195.196.512.196.707,0,0,0,0,0,0,0l3-3c.196-.196.196-.512,0-.708s-.512-.196-.708,0l-2.146,2.147V5.5c0-.276-.224-.5-.5-.5s-.5.224-.5.5v8.793l-2.146-2.147c-.196-.196-.512-.196-.708,0s-.196.512,0,.708l3,3Z"/>
  <path d="M14.048,0H1.952C.874,0,0,.655,0,1.464v8.072c0,.809.874,1.464,1.952,1.464h3.248v-5.501c0-1.158,1.256-2.1,2.8-2.1s2.8.942,2.8,2.1v5.501h3.248c1.078,0,1.952-.655,1.952-1.464V1.464c0-.809-.874-1.464-1.952-1.464Z"/>
</svg>