<?xml version="1.0" encoding="UTF-8"?>
<svg id="Layer_1" xmlns="http://www.w3.org/2000/svg" width=".2in" height=".2in" version="1.1" viewBox="0 0 16 16">
  <!-- Generator: Adobe Illustrator 29.3.1, SVG Export Plug-In . SVG Version: 2.1.0 Build 151)  -->
  <defs>
    <style>
      .st0 {
        fill: #fff;
      }
    </style>
  </defs>
  <path class="st0" d="M8,1.1s-.1.1-.2.3c-.2.2-.4.6-.6,1.2v.3c.2.2.5.3.8.3s.6,0,.8-.3v-.3c-.3-.5-.5-.9-.6-1.2,0-.1-.1-.2-.2-.3h0ZM6.6,2.9c-.9.2-1.9.7-2.8,1.4-.5,2.7-1,5.9-.6,8.5.2,0,.4.1.7.2v-.4c-.1,0-.2-.2-.2-.2l.3-.2c.2-.1.5-.3.7-.4-.2-.2-.3-.5-.4-.8-.2-.5-.3-1.1-.5-1.5l-.3-1,.8.7c.8.7,1.7,1.1,2.8,1.9l.3.2c.2,0,.4,0,.6,0s.4,0,.6,0l.3-.2c1.1-.8,2-1.2,2.8-1.9l.8-.7-.3,1c-.1.4-.3,1-.5,1.5-.1.3-.2.6-.4.8.3.1.5.2.7.4l.3.2v.2c-.1,0-.2.4-.2.4.2,0,.4-.1.7-.2.5-2.6,0-5.8-.6-8.5-.9-.7-1.8-1.1-2.8-1.4v.2h0c-.4.4-.9.6-1.3.6s-1-.2-1.3-.5h0v-.3h0ZM9.1,4.8l.4.4-.2.2c-.4.4-.9.7-1.4.6-.5,0-.9-.3-1.3-.6l-.2-.2.4-.5.2.2c.3.3.6.4.9.5.3,0,.6,0,.9-.4l.2-.2h0ZM4.1,4.9c.7,0,1.4.3,2,.7.7.4,1.2.8,1.5,1.1l-.4.4c-.2-.2-.8-.7-1.4-1s-1.3-.6-1.7-.6v-.6h0ZM11.9,4.9v.6c-.5,0-1.1.3-1.7.6s-1.2.8-1.4,1l-.4-.4c.3-.3.9-.7,1.5-1.1.7-.4,1.4-.7,2-.7h0ZM4.3,6.2c.6.6,1.6,1.6,3.1,1.6h0s.6-.8.6-.8l.6.8h0c1.5,0,2.6-1,3.1-1.6l.4.4c-.3.3-.7.7-1.3,1.1.2.2.3.4.3.6,0,.5-.4.9-.9.9s-.9-.4-.9-.9,0,0,0,0c-.1,0-.3,0-.4,0l.9,1.4v.2c-.4.3-.7.5-1,.6-.3,0-.6,0-.9,0s-.6,0-.9,0-.6-.3-.9-.6v-.2c-.1,0,.8-1.4.8-1.4-.1,0-.3,0-.4,0,0,0,0,0,0,0,0,.5-.4.9-.9.9s-.9-.4-.9-.9.1-.5.3-.6c-.6-.4-1-.8-1.3-1.1l.4-.4h0ZM0,6.7c0,.2.3.5.6.9.4.6,1,1.4,1.6,2.5,0,.1.2.2.3.3,0-.5,0-.9,0-1.4l-.8-.7.4-.5.5.4c0-.3,0-.6.1-.9-.3-.2-.6-.3-1-.4-.6-.2-1.2-.2-1.7-.2h0ZM16,6.7c-.5,0-1.1,0-1.7.2-.4,0-.7.2-1,.4,0,.3,0,.6.1.9l.5-.4.4.5-.8.7c0,.5,0,.9,0,1.4.1,0,.2-.1.3-.3.6-1.1,1.1-1.9,1.6-2.5.3-.4.5-.7.6-.9h0ZM8,8.1l-1.1,1.7c.1.1.3.2.4.2.2,0,.5,0,.7,0s.5,0,.7,0c.1,0,.3,0,.4-.2l-1.1-1.7h0ZM5.8,8.1c-.1,0-.2.1-.2.2s.1.2.2.2.2-.1.2-.2-.1-.2-.2-.2h0ZM10.2,8.1c-.1,0-.2.1-.2.2s.1.2.2.2.2-.1.2-.2-.1-.2-.2-.2h0ZM4.7,10.3c0,.2.1.4.2.6.1.4.3.6.4.8l.9-.3c-.6-.4-1-.7-1.5-1h0ZM11.3,10.3c-.5.3-1,.6-1.5,1l.9.3c.1-.1.3-.4.4-.8,0-.2.1-.4.2-.6h0ZM8,12c-1.4,0-2.8.3-3.6.7l.5,1.8c2.1.5,4.1.5,6.2,0l.5-1.8c-.8-.4-2.2-.7-3.6-.7ZM8,12.4c.8,0,1.6.1,2.4.4h.3c0,.1-.2.7-.2.7h-.3c-1.4-.7-2.8-.6-4.3-.1h-.3c0,.1-.2-.5-.2-.5h.3c.8-.4,1.6-.5,2.3-.5h0Z"/>
</svg>