<?xml version="1.0" encoding="UTF-8"?>
<svg id="Layer_1" xmlns="http://www.w3.org/2000/svg" width="16" height="16" version="1.1" viewBox="0 0 16 16">
  <!-- Generator: Adobe Illustrator 29.2.1, SVG Export Plug-In . SVG Version: 2.1.0 Build 116)  -->
  <defs>
    <style>
      .st0 {
        fill: #fff;
      }
    </style>
  </defs>
  <path class="st0" d="M9.431,12.273c-.039-.007-.021.01-.027.031-.333.988-.611,1.851-1.146,2.761-.04.067-.277.462-.316.482-.016.008-.025.007-.042.004-.067-.011-.238-.089-.314-.119-.915-.354-1.781-.834-2.596-1.375.815-.451,1.483-1.092,2.014-1.852.073-.104.169-.237.228-.347.01-.018.023-.03.018-.054-.432.417-.919.781-1.45,1.065-.52.278-1.116.511-1.708.558-.692-.523-1.36-1.097-1.964-1.721-.172-.177-.341-.363-.496-.555.862-.058,1.707-.3,2.482-.673-.017-.027-.03-.012-.049-.011-.237.01-.486.057-.728.07-.078.004-.158-.004-.236-.001-.556.019-1.117.018-1.67-.053-.076-.01-.338-.042-.391-.067-.06-.028-.346-.466-.402-.552-.207-.32-.478-.763-.607-1.117-.03-.082-.045-.111-.017-.199.048-.148.158-.19.304-.18.342.023.725.141,1.072.169l1.24.132.626.04c.061,0,.122-.003.183,0,1.222.043,2.448-.014,3.638-.307.53-.131,1.05-.312,1.541-.549.023-.016.008-.013,0-.026-.088-.145-.151-.228-.098-.411.029-.101.375-.601.459-.664.222-.168.399-.088.604.045.569.369,1.111.808,1.679,1.181.172.131.223.35.127.544-.046.093-.31.475-.381.546-.055.055-.166.111-.243.123-.034.005-.126-.012-.134.022.044.277.085.556.116.835.171,1.546.318,3.714-.092,5.211-.087.316-.189.71-.58.74-.281.021-.759-.063-1.042-.122-.049-.01-.398-.087-.402-.108.576-1.063.826-2.285.797-3.494Z"/>
  <polygon class="st0" points="16 .401 11.519 7.013 11.49 7.033 10.294 6.191 14.76 0 16 0 16 .401"/>
  <g>
    <path class="st0" d="M3.74,5.169c.331.338.926.398,1.367.494l-.661.149c-.949.261-1.002.768-1.173,1.635-.004.022-.013.08-.033.091-.096-.541-.175-1.227-.694-1.534-.351-.208-.725-.222-1.103-.321-.018-.005-.041,0-.046-.026.41-.077.894-.137,1.24-.387.435-.315.514-.977.602-1.468.019-.003.018.023.022.037.126.452.121.966.479,1.33Z"/>
    <path class="st0" d="M7.027,1.398c.003.02-.024.015-.039.019-.24.062-.474.078-.709.18-.513.223-.557.723-.656,1.212-.097-.33-.111-.715-.346-.987-.26-.301-.699-.325-1.059-.418.36-.092.798-.119,1.059-.418.232-.265.251-.662.346-.987.064.295.098.617.257.879.234.385.743.441,1.147.519Z"/>
    <path class="st0" d="M9.431,4.011c.003.019-.023.018-.037.022-.153.043-.308.05-.463.112-.4.158-.432.495-.513.872l-.114-.435c-.159-.452-.451-.443-.853-.545-.018-.005-.041,0-.046-.026.345-.061.705-.108.863-.463.072-.161.081-.323.13-.484.005-.018.001-.041.027-.045.033.206.072.452.185.631.165.262.539.315.821.362Z"/>
  </g>
</svg>