<?xml version="1.0" encoding="UTF-8"?>
<svg id="Layer_1" xmlns="http://www.w3.org/2000/svg" width="10.073in" height=".628in" version="1.1" viewBox="0 0 725.256 45.216">
  <!-- Generator: Adobe Illustrator 29.2.1, SVG Export Plug-In . SVG Version: 2.1.0 Build 116)  -->
  <defs>
    <style>
      .st0 {
        fill: #e31e26;
      }

      .st1 {
        fill: #6d787f;
      }
    </style>
  </defs>
  <g>
    <path class="st0" d="M334.473,31.533h-3.86V13.844h3.86c5.064,0,7.969,3.233,7.969,8.875,0,5.603-2.905,8.812-7.969,8.812M388.725,15.701v-.95c-.61.199-1.481.501-1.866.728.639,0,1.261.091,1.866.222M346.482,31.181l-1.076,1.501.383-4.238c.313-3.447,2.433-5.937,3.916-7.29-.299.029-.619.075-.977.148l-3.798.785,2.739-2.743c.94-.938,2.25-1.634,3.404-2.25.128-.069.269-.144.409-.22-1.347-3.982-4.091-7.282-7.912-9.286-2.482-1.302-5.009-1.931-8.452-2.069v-.028h-6.911c-5.469,0-8.063-.073-9.961-.507-1.634-.378-3.105-1.329-3.119-1.335l-.419-.275.043.495c.014.159.385,3.866,4.82,7.1.854.617,1.455,1.223,1.455,3.398v19.842c0,2.124-.415,2.716-1.406,3.314-1.036.622-3.259,1.925-3.259,1.927l-.771.45h17.98c5.037,0,8.179-.848,11.587-3.125.482-.32.916-.68,1.351-1.038-.25-1.542-.234-3.092-.028-4.553M380.896,31.657c.218-.313.262-.712.122-1.097l-1.107-3.048,2.791,1.656c.264.157.505.35.734.559l1.699-.126c1.278-.12,2.498.073,3.591.49v-8.687c-.619.214-1.103.452-1.325.653l-.714.647-.767-.584c-.496-.378-1.235-.594-2.026-.594-1.298,0-2.562.561-3.381,1.497-.503.578-.958,1.176-1.375,1.768v6.893c.68.519,1.39.501,1.758-.026M401.682,7.584c-2.48-1.302-5.007-1.931-8.453-2.069v-.028h-6.911c-5.469,0-8.061-.073-9.959-.507-1.638-.378-3.105-1.329-3.121-1.335l-.419-.275.045.495c.01.159.387,3.866,4.82,7.1.854.617,1.453,1.223,1.453,3.398v1.438c.948-.586,1.994-1.103,3.153-1.542-.389.338-.865.846-1.267,1.394.769-.505,1.731-.932,3.302-1.211,2.079-.368,3.597-.207,4.399-.053v-.545h3.864c5.06,0,7.967,3.233,7.967,8.875,0,5.603-2.907,8.812-7.967,8.812h-1.512c1.335,1.217,2.173,2.893,2.173,4.745,0,1.333-.444,2.564-1.178,3.609,4.802-.043,7.878-.901,11.2-3.115,1.449-.977,2.69-2.112,3.691-3.375,2.277-2.842,3.583-6.771,3.583-10.771,0-6.509-3.316-12.132-8.865-15.041"/>
    <path class="st0" d="M352.261,9.661c-.352-3.863,1.487-5.998,2.317-6.844,1.825-1.862,4.283-2.985,7.914-2.791,5.733.307,8.484,4.242,8.484,8.482,0,2.045-1.04,4.781-2.482,6.722-.087-.088-.161-.175-.254-.263-.285-.275-.61-.57-.954-.883-.942-.853-2.006-1.831-2.72-2.885,1.569-2.857.673-6.907-2.645-6.907-1.941,0-3.562,1.78-3.424,4.142-.505,1.117-.753,2.736-.657,4.173-.95-.598-1.754-1.253-2.13-2.161l-1.219-2.922-.96,3.017c-.228.718-.279,1.522-.173,2.299-.006,0-.014,0-.02-.002-.435-.655-.944-1.699-1.078-3.176M348.493,20.163c1.634-1.636,4.981-2.651,5.21-3.542.218-.877-1.516-2.372-2.163-2.653,2.382-.094,3.569.354,3.569.354-.623-.916-.824-2.319-.47-3.43,1.296,3.115,5.939,3.617,7.09,6.197-.165-1.113-1.219-2.366-2.441-3.095-.657-1.695-.165-4.82.637-5.682-.281,4.492,6.13,7.062,7.459,10.327-.781-2.797-3.768-4.568-5.186-6.242-.468-1.111-.108-2.995.399-3.638-.149,3.009,3.097,5.357,4.834,7.041,2.045,1.978,2.625,3.731,2.348,5.162.448.118,1.064.555.962,1.292.653-.151,1.318-.903,1.479-1.361.321,2.232-.993,4.598-2.466,5.302,0,0,.395-1.066-.275-1.884-.661-.802-2.541-.812-3.174-.767,0,0,.779-1.152.47-1.738-.385-.724-4.059-.405-5.701.189.559-.059,1.882.09,2.344.281-.256.383-.93,2.002-.446,2.488.446.447,1.032-.326,1.032-.326,0,0-.574,1.77-.161,2.181.409.411,1.288.118,1.288.118-.547,1.39-2.682,2.346-4.177,2.346.535-.169,1.414-1.117,1.548-1.691-.391.197-1.412.311-1.805.238.482-.197,1.453-1.442,1.152-2.842-.444-2.041-3.29-2.301-4.722-1.314.464-1.371,1.851-2.653,2.932-3.072-.633-.224-1.375-.411-2.173-.555.911-.747,3.196-1.355,4.364-1.292-1.78-.456-5.035.114-6.525,1.874.474,0,1.703.232,2.175.384-2.041.37-4.822,2.271-5.642,3.168.216-1.182.547-2.183.267-2.893-.393-1.003-1.611-1.424-4.032-.924M366.98,20.387s-.484-1.573-2.138-2.183c.324,1.141.761,2.183,2.138,2.183M392.092,36.278c0-3.304-3.204-5.864-6.85-5.524,1.04.177,2.498,1.284,2.498,2.867,0,2.578-3.217,3.373-4.997,2.972,1.888-1.31,1.638-5.08-.633-6.429.767,2.112-1.538,4.212-3.782,2.37-1.247-1.023-4.132-3.428-5.42-4.462-1.284-1.034-2.793-.433-3.388-.883-.677-.515-.244-1.963-1.168-2.5-.775-.448-1.536-.199-2.439-.498-.816-.271-1.428-.907-1.322-1.764-.348.612-.37,1.678.25,2.397.616.714,1.642,1.152,2.067,1.935.549,1.015-.376,2.423,2.067,4.336,1.168.916,2.977,2.417,4.159,3.453,1.988,1.744.928,3.923,1.188,5.823.301,2.218,2.089,3.447,3.274,3.758-1.023-.932-1.412-3.274.028-4.714.075,1.855,1.412,4.757,4.462,5.571,3.245.863,6.692-.975,7.41-2.269-1.251.566-3.609-.043-4.58-.954,3.807.539,7.176-2.102,7.176-5.487M372.369,35.423c-1.013-.891-2.527-2.15-3.674-3.062-1.296,2.222-4.063,5.119-6.867,5.119-5.162,0-7.748-7.306-1.961-13.278-.336-.11-.669-.124-.781-.124-.494,0-.979.132-1.298.352l-2.275,1.571.515-2.897c.051-.155.112-.307.181-.456-1.314.653-2.606,1.583-3.093,2.116l-2.238,2.454.24-3.446c.049-.267.104-.529.155-.777.118-.559.262-1.251.173-1.483-.029-.071-.09-.132-.161-.183-1.068.822-3.996,3.412-4.338,7.217,0,0,.566-.798,1.058-.985.324-.126.61.035.299.985-.122.372-2.942,8.01,2.606,13.292,0,0-.606-1.554-.24-2.026.177-.228.411-.25.732.163.238.315.49.619.755.922l.002.004c.46.519.966,1.009,1.514,1.434,1.662,1.164,3.916,2.098,6.48,2.098,6.865,0,10.502-4.734,12.519-8.708-.088-.104-.189-.205-.303-.305M384.194,18.857c-5.117.246-9.522,4.604-11.778,7.666.403.136.816.321,1.219.645.474.381,1.174.954,1.921,1.571.594-1.316,1.963-4.051,4.083-6.482,1.906-2.187,5.235-2.393,6.981-1.064,1.127-1.017,5.003-1.97,7.044-1.39-1.245-1.353-3.886-3.164-6.808-3.164-2.405,0-3.766,1.18-4.112.651-.444-.682,1.63-1.687,1.63-1.687-2.844.116-4.913,3.461-5.774,3.044-.511-.246.769-1.862.769-1.862-2.6,1.51-4.779,4.71-5.233,6.659,2.393-2.93,7.037-5.029,10.057-4.586M385.047,31.899c.535.091,1.532.763,1.532,1.723,0,.574-.265,1.021-.812,1.365-.238.151-.521.273-.828.366.163-.545.242-1.139.22-1.762-.039-1.095-.112-1.691-.112-1.691"/>
  </g>
  <g>
    <path class="st1" d="M216.127,28.782l-.672,3.864c-.206-.15-.635-.224-1.288-.224h-7.588v-.532c.261,0,.48-.098.658-.294.177-.196.266-.462.266-.798V14.445c0-.709-.308-1.064-.924-1.064v-.532h7.168c.802,0,1.316-.075,1.54-.224l.756,3.808-.616.196c-.243-.653-.644-.98-1.204-.98h-3.332v4.62h2.912c.298,0,.546-.093.742-.28.196-.186.294-.41.294-.672h.56v4.704h-.56c0-.261-.089-.485-.266-.672s-.434-.28-.77-.28h-2.884v6.552h3.248c.616,0,1.082-.336,1.4-1.008l.56.168h0Z"/>
    <path class="st1" d="M228.923,13.381c-.262,0-.486.103-.672.308-.187.206-.28.467-.28.784v16.324c0,.728.242,1.092.728,1.092v.532h-3.92v-5.04l-3.332-7.364h-.056v10.78c0,.318.084.579.252.784s.392.308.672.308v.532h-5.04v-.532c.28,0,.504-.098.672-.294.168-.196.252-.462.252-.798V14.473c0-.336-.089-.602-.266-.798-.178-.196-.397-.294-.658-.294v-.532h4.228c0,.354.112.784.336,1.288l2.884,6.72h.084v-6.384c0-.336-.089-.602-.266-.798s-.406-.294-.686-.294v-.532h5.068v.532h0Z"/>
    <path class="st1" d="M239.367,28.754l-.672,3.92c-.168-.056-.383-.084-.644-.084-.019,0-.28.032-.784.098-.504.065-.924.098-1.26.098-1.979,0-3.467-.896-4.466-2.688s-1.498-4.321-1.498-7.588c0-3.173.532-5.642,1.596-7.406s2.52-2.646,4.368-2.646c.243,0,.611.033,1.106.098.494.066.788.098.882.098.261,0,.504-.037.728-.112l.616,3.752-.616.168c-.299-.784-.999-1.176-2.1-1.176-.896,0-1.629.607-2.198,1.82-.57,1.213-.854,3.015-.854,5.404,0,2.726.256,4.648.77,5.768s1.312,1.68,2.394,1.68c.579,0,1.018-.103,1.316-.308.298-.205.532-.56.7-1.064l.616.168h0Z"/>
    <path class="st1" d="M251.071,22.173c0,3.771-.43,6.51-1.288,8.218-.859,1.708-2.212,2.562-4.06,2.562-1.83,0-3.178-.868-4.046-2.604-.868-1.736-1.302-4.452-1.302-8.148,0-6.626,1.801-9.94,5.404-9.94,3.528,0,5.292,3.304,5.292,9.912ZM247.543,22.201c0-2.538-.14-4.363-.42-5.474-.28-1.11-.747-1.666-1.4-1.666-1.214,0-1.82,2.38-1.82,7.14,0,2.894.149,4.938.448,6.132.298,1.195.774,1.792,1.428,1.792.616,0,1.064-.588,1.344-1.764s.42-3.229.42-6.16h0Z"/>
    <path class="st1" d="M263.98,13.381c-.28,0-.504.098-.672.294s-.252.453-.252.77v14.28c0,.635.074,1.176.224,1.624-.522.672-1.237,1.265-2.142,1.778-.906.513-1.909.77-3.01.77-2.146,0-3.901-.849-5.264-2.548.13-.374.196-.915.196-1.624v-14.28c0-.336-.089-.597-.266-.784s-.396-.28-.658-.28v-.532h5.236v.532c-.616,0-.924.355-.924,1.064v13.944c0,.56.158.976.476,1.246.317.271.718.406,1.204.406s.892-.14,1.218-.42.49-.69.49-1.232v-13.944c0-.336-.088-.597-.266-.784-.178-.187-.397-.28-.658-.28v-.532h5.068v.532h0Z"/>
    <path class="st1" d="M276.803,13.381c-.262,0-.485.103-.672.308-.187.206-.28.467-.28.784v16.324c0,.728.243,1.092.729,1.092v.532h-3.92v-5.04l-3.332-7.364h-.056v10.78c0,.318.084.579.252.784s.392.308.672.308v.532h-5.04v-.532c.28,0,.504-.098.672-.294.168-.196.252-.462.252-.798V14.473c0-.336-.089-.602-.266-.798-.178-.196-.397-.294-.658-.294v-.532h4.228c0,.354.112.784.336,1.288l2.885,6.72h.084v-6.384c0-.336-.089-.602-.267-.798s-.406-.294-.686-.294v-.532h5.067v.532h0Z"/>
    <path class="st1" d="M288.704,16.434l-.561.14c-.131-.336-.294-.574-.489-.714-.196-.14-.519-.21-.967-.21h-1.792v15.148c0,.318.084.579.252.784.169.206.393.308.673.308v.532h-5.292v-.532c.261,0,.484-.098.672-.294.187-.196.279-.462.279-.798v-15.148h-1.876c-.41,0-.719.07-.924.21s-.354.378-.448.714l-.588-.14.673-3.78c.298.131.718.196,1.26.196h7.336c.485,0,.84-.075,1.063-.224l.729,3.808h0Z"/>
    <path class="st1" d="M299.092,28.782l-.672,3.864c-.206-.15-.635-.224-1.288-.224h-7.588v-.532c.261,0,.48-.098.658-.294.177-.196.266-.462.266-.798V14.445c0-.709-.308-1.064-.924-1.064v-.532h7.168c.802,0,1.315-.075,1.54-.224l.756,3.808-.616.196c-.243-.653-.644-.98-1.204-.98h-3.332v4.62h2.912c.299,0,.546-.093.742-.28.196-.186.294-.41.294-.672h.56v4.704h-.56c0-.261-.089-.485-.266-.672-.178-.187-.435-.28-.771-.28h-2.884v6.552h3.248c.616,0,1.082-.336,1.399-1.008l.561.168h.001Z"/>
    <path class="st1" d="M311.692,32.422h-4.341c-.261-.915-.531-2.193-.812-3.836s-.467-3.024-.56-4.144h-1.4v6.356c0,.318.084.579.252.784s.392.308.672.308v.532h-5.264v-.532c.261,0,.48-.098.658-.294.177-.196.266-.462.266-.798V14.445c0-.709-.308-1.064-.924-1.064v-.532c1.549-.149,3.191-.224,4.928-.224,3.92,0,5.88,1.96,5.88,5.88,0,2.595-.728,4.266-2.184,5.012.392,2.352.979,4.854,1.764,7.504.074.224.215.425.42.602s.42.266.645.266v.532ZM307.52,18.562c0-2.072-.757-3.108-2.269-3.108-.374,0-.598.009-.672.028v6.272c.149.019.373.028.672.028,1.512,0,2.269-1.073,2.269-3.22Z"/>
  </g>
  <g>
    <path class="st1" d="M426.689,32.408h-4.84v-.532c.448,0,.672-.195.672-.588,0-.504-.065-1.166-.195-1.988-.413.206-.949.309-1.606.309-.694,0-1.267-.104-1.718-.312-.168,1.065-.252,1.729-.252,1.99,0,.394.23.589.691.589v.532h-4.62v-.532c.41,0,.662-.261.756-.784l2.576-16.548c.037-.224.056-.42.056-.588,0-.392-.168-.588-.504-.588v-.532h6.132v.532c-.355,0-.532.188-.532.562,0,.094.008.309.024.646l2.52,16.464c.093.557.373.835.84.835v.532h0ZM421.989,26.36l-1.209-10.08h-.196l-1.181,10.078c.337.207.787.31,1.349.31.487,0,.899-.103,1.237-.308h0Z"/>
    <path class="st1" d="M439.797,32.408h-4.34c-.262-.914-.532-2.193-.812-3.836s-.467-3.024-.56-4.145h-1.4v6.356c0,.317.084.579.252.784s.392.308.672.308v.532h-5.264v-.532c.261,0,.48-.098.658-.294.177-.196.266-.462.266-.798V14.432c0-.71-.308-1.064-.924-1.064v-.532c1.549-.148,3.192-.224,4.928-.224,3.92,0,5.88,1.96,5.88,5.88,0,2.595-.728,4.266-2.184,5.012.392,2.353.98,4.854,1.764,7.504.075.225.214.425.42.603s.42.266.644.266v.532-.002ZM435.626,18.547c0-2.071-.756-3.107-2.268-3.107-.374,0-.598.01-.672.027v6.272c.149.019.373.028.672.028,1.512,0,2.268-1.073,2.268-3.221h0Z"/>
    <path class="st1" d="M450.633,28.74l-.672,3.92c-.168-.056-.383-.084-.644-.084-.019,0-.28.032-.784.098s-.924.099-1.26.099c-1.979,0-3.467-.896-4.466-2.688s-1.498-4.321-1.498-7.588c0-3.173.532-5.642,1.596-7.406s2.52-2.646,4.368-2.646c.243,0,.611.032,1.106.098.494.065.788.099.882.099.261,0,.504-.038.728-.112l.616,3.752-.616.168c-.299-.784-.999-1.176-2.1-1.176-.896,0-1.629.606-2.198,1.819-.57,1.214-.854,3.016-.854,5.404,0,2.726.256,4.648.77,5.769.514,1.119,1.312,1.68,2.394,1.68.579,0,1.018-.103,1.316-.309.298-.205.532-.56.7-1.063l.616.168v-.002Z"/>
    <path class="st1" d="M464.437,32.408h-5.264v-.532c.616,0,.924-.364.924-1.092v-7.728h-3.192v7.728c0,.336.084.602.252.798s.392.294.672.294v.532h-5.292v-.532c.261,0,.48-.098.658-.294.177-.196.266-.462.266-.798V14.459c0-.336-.089-.602-.266-.798-.178-.196-.397-.294-.658-.294v-.532h5.292v.532c-.28,0-.504.098-.672.294s-.252.462-.252.798v5.824h3.192v-5.824c0-.728-.308-1.092-.924-1.092v-.532h5.264v.532c-.616,0-.924.364-.924,1.092v16.324c0,.728.308,1.092.924,1.092v.532Z"/>
    <path class="st1" d="M471.746,32.408h-5.292v-.532c.261,0,.48-.098.658-.294.177-.196.266-.462.266-.798V14.432c0-.71-.308-1.064-.924-1.064v-.532h5.292v.532c-.616,0-.924.354-.924,1.064v16.352c0,.728.308,1.092.924,1.092v.532h0Z"/>
    <path class="st1" d="M484.43,16.419l-.56.141c-.131-.336-.294-.574-.49-.714-.196-.141-.518-.211-.966-.211h-1.792v15.148c0,.317.084.579.252.784s.392.308.672.308v.532h-5.292v-.532c.261,0,.485-.098.672-.294s.28-.462.28-.798v-15.148h-1.876c-.411,0-.719.07-.924.211-.206.14-.354.378-.448.714l-.588-.141.672-3.779c.298.131.718.195,1.26.195h7.336c.485,0,.84-.074,1.064-.224l.728,3.808Z"/>
    <path class="st1" d="M495.602,28.769l-.672,3.863c-.206-.149-.635-.224-1.288-.224h-7.588v-.532c.261,0,.48-.098.658-.294.177-.196.266-.462.266-.798V14.432c0-.71-.308-1.064-.924-1.064v-.532h7.168c.802,0,1.316-.074,1.54-.224l.756,3.808-.616.196c-.243-.653-.644-.98-1.204-.98h-3.332v4.62h2.912c.298,0,.546-.093.742-.279s.294-.411.294-.672h.56v4.703h-.56c0-.261-.089-.484-.266-.672-.177-.187-.434-.279-.77-.279h-2.884v6.552h3.248c.616,0,1.082-.336,1.4-1.008l.56.168h0Z"/>
    <path class="st1" d="M506.746,28.74l-.672,3.92c-.168-.056-.383-.084-.644-.084-.019,0-.28.032-.784.098s-.924.099-1.26.099c-1.979,0-3.467-.896-4.466-2.688s-1.498-4.321-1.498-7.588c0-3.173.532-5.642,1.596-7.406s2.52-2.646,4.368-2.646c.243,0,.611.032,1.106.098.494.065.788.099.882.099.261,0,.504-.038.728-.112l.616,3.752-.616.168c-.299-.784-.999-1.176-2.1-1.176-.896,0-1.629.606-2.198,1.819-.57,1.214-.854,3.016-.854,5.404,0,2.726.256,4.648.77,5.769.514,1.119,1.312,1.68,2.394,1.68.579,0,1.018-.103,1.316-.309.298-.205.532-.56.7-1.063l.616.168v-.002Z"/>
    <path class="st1" d="M519.318,16.419l-.56.141c-.131-.336-.294-.574-.49-.714-.196-.141-.518-.211-.966-.211h-1.792v15.148c0,.317.084.579.252.784s.392.308.672.308v.532h-5.292v-.532c.261,0,.485-.098.672-.294s.28-.462.28-.798v-15.148h-1.876c-.411,0-.719.07-.924.211-.206.14-.354.378-.448.714l-.588-.141.672-3.779c.298.131.718.195,1.26.195h7.336c.485,0,.84-.074,1.064-.224l.728,3.808h0Z"/>
  </g>
  <path class="st1" d="M705.069,23.417c.346-.165.701-.263,1.04-.334-.055-.115-.106-.227-.146-.335-.095-.255-.154-.517-.177-.779-.262-.441-.465-.899-.626-1.36h-186.651v4h185.161c.327-.492.782-.898,1.398-1.192h0Z"/>
  <path class="st1" d="M20.095,20.607c-.16.461-.364.918-.626,1.36-.024.262-.082.523-.177.779-.003.008-.007.016-.01.024.487.087,1.214.31,1.877.953.306.297.502.595.651.885h182.693v-4H20.095Z"/>
  <g>
    <path id="path879" class="st1" d="M17.854,37.607c-.138-.016-.21-.048-.505-.223-.189-.112-.36-.23-.38-.26-.051-.079-.084-.272-.105-.623-.021-.36-.002-.334-.468-.623-.996-.619-2.458-1.349-5.797-2.894-.456-.211-.47-.216-.562-.183-.052.019-.388.174-.747.346s-.994.474-1.411.672c-1.254.595-2.651,1.303-2.873,1.457-.461.32-.836.626-.891.727-.07.129-.128.309-.179.559-.047.229-.201.561-.28.604-.03.016-.083.062-.116.101-.081.097-.3.196-.605.276-.289.076-.407.071-.81-.03-.252-.064-.405-.138-.449-.22-.033-.061-.076-.446-.099-.886l-.019-.35-.183-.062c-.101-.034-.353-.104-.562-.155-.409-.101-.496-.135-.61-.241-.101-.093-.147-.189-.175-.362-.022-.138-.019-.157.077-.361.227-.485.531-.846.89-1.058.187-.11.204-.115.392-.113.157.002.248.022.457.1.73.271.856.309,1.083.322.361.02.816-.108,1.661-.467.478-.203.99-.46,2.036-1.02.445-.238.955-.51,1.132-.603l.323-.17-.244-.138c-.461-.261-2.517-1.364-2.987-1.604-.506-.258-.654-.305-1.123-.357-.449-.05-.664-.023-1.802.225-.187.041-.409.07-.549.073-.227.004-.244,0-.463-.104-.295-.141-.497-.281-.663-.457-.26-.276-.288-.393-.211-.9l.056-.373.353-.169c.194-.093.51-.226.702-.295l.348-.127-.022-.418c-.012-.23-.019-.535-.014-.679.008-.296.014-.304.254-.419.415-.198,1.295-.249,1.641-.095.103.046.126.074.246.308.15.293.291.683.358.989.092.421.234.601.656.833.421.231,1.913,1.019,2.915,1.54.541.281,1.088.569,1.215.64s.45.248.719.394l.488.265,1.863-.865c2.675-1.243,3.022-1.407,3.686-1.739,1.054-.527,1.411-.743,1.472-.89.036-.086.247-.934.334-1.343l.043-.2.384-.107c.54-.15.644-.169.853-.151.25.021.366.063.48.173.088.085.107.133.218.531l.121.438-.089.265c-.049.146-.089.278-.089.293s.08.062.176.104c.454.197.867.465.999.648.144.199.086.485-.173.848-.155.218-.443.506-.594.595l-.112.066-.264-.089c-.299-.101-.637-.174-1.092-.238l-.313-.044-.758.327c-.938.405-2.331,1.023-3.735,1.658-.589.266-1.122.507-1.185.535l-.114.051.336.156c.638.297,2.611,1.167,3.34,1.472,1.36.57,1.578.651,1.737.652.148,0,.196-.018.953-.361.297-.135.633-.238.893-.273.17-.023.182-.021.269.044.157.118.506.481.632.658.288.404.396.726.382,1.139-.008.252-.013.271-.089.366-.116.144-.244.22-.598.358-.367.142-.476.204-.508.287-.013.033-.042.183-.065.333-.093.6-.135.683-.396.78-.269.101-.809.166-1.099.133l.004-.002Z"/>
    <path class="st1" d="M17.481,17.812c-.155-1.066.266-2.264.266-2.264,0,0-.488.599-.599,1.487s-.444,1.643-.932,2.287c-.488.644-1.687.622-1.043-.4.644-1.021,2.242-5.106.622-7.082-1.621-1.976-.466-4.24-.466-4.24-1.732,1.887-.799,4.462-.799,4.462.888,4.063-1.598,5.069-1.598,5.069-.37-.266-.444-.873-.444-.873,0,0-.318.703-.496.392s-.148-2.161-.148-2.161c0,0-.303.932-.451,1.399s-.148,0-.148,0c.141-1.376-.037-3.826-.037-3.826-.333.962-.747,3.567-.77,3.693-.022.124-.127.133-.13.133-.002,0-.108-.009-.13-.133-.022-.126-.437-2.731-.77-3.693,0,0-.178,2.449-.037,3.826,0,0,0,.466-.148,0-.148-.466-.451-1.399-.451-1.399,0,0,.03,1.85-.148,2.161s-.496-.392-.496-.392c0,0-.074.607-.444.873,0,0-2.486-1.006-1.598-5.069,0,0,.932-2.575-.799-4.462,0,0,1.154,2.264-.466,4.24-1.621,1.976-.022,6.06.622,7.082.644,1.021-.555,1.043-1.043.4-.488-.644-.821-1.399-.932-2.287-.111-.888-.599-1.487-.599-1.487,0,0,.422,1.199.266,2.264-.155,1.066.244,3.108,2.242,4.218,0,0-.666.133-1.243-.333,0,0,.348.932,1.65,1.517,0,0-.437.192-1.073-.096,0,0-.252.133.955.666,1.206.533,2.005,1.206,2.183,1.769,0,0-.148-1.014-1.14-2.242s-.318-2.035-.318-2.035c0,0,.74.562.814,1.48s.303.725.525,1.162.141,1.362.636,2.368c0,0,.821-1.783.895-2.76,0,0,.281,1.465-.614,2.893,0,0-.503.762-.281,1.043s.562.392.555.962.104,1.029.385,1.162c.281.133.648.059.821.54,0,0,.097.153.173.229h.017c.076-.076.173-.229.173-.229.173-.481.54-.407.821-.54.281-.133.392-.592.385-1.162s.333-.681.555-.962-.281-1.043-.281-1.043c-.895-1.428-.614-2.893-.614-2.893.074.977.895,2.76.895,2.76.496-1.006.414-1.931.636-2.368s.451-.244.525-1.162c.074-.918.814-1.48.814-1.48,0,0,.673.807-.318,2.035-.992,1.228-1.14,2.242-1.14,2.242.178-.562.977-1.236,2.183-1.769s.955-.666.955-.666c-.636.289-1.073.096-1.073.096,1.302-.585,1.65-1.517,1.65-1.517-.577.466-1.243.333-1.243.333,1.998-1.11,2.398-3.152,2.242-4.218h-.001ZM8.985,22.801c-.132.095-.36-.082-.397-.164-.038-.082-.284-.025-.562-.17s-.322-.442-.372-.688-.183-.461-.183-.461c-.454-.593-.341-.864-.341-.864.568.77,1.905,1.984,1.905,1.984.126.186.082.268-.05.363ZM9.785,27.495c-.121.038-.087.265-.087.265.158.688-.278,1.539-.183,1.073.095-.467.019-1.041-.151-1.129s-.454-.58-.309-.915c.145-.334.328-.177.435-.12s.295.379.295.379c.09.143.121.41,0,.448h0ZM11.556,26.788c.145.334-.139.827-.309.915-.17.088-.246.662-.151,1.129s-.341-.385-.183-1.073c0,0,.034-.227-.087-.265s-.09-.305,0-.448c0,0,.188-.322.295-.379s.29-.215.435.12h0ZM13.14,21.317s-.132.215-.183.461-.095.543-.372.688c-.278.145-.524.088-.562.17s-.265.259-.397.164c-.132-.095-.177-.177-.05-.363,0,0,1.338-1.214,1.905-1.984,0,0,.114.271-.341.864Z"/>
  </g>
  <g>
    <path id="path8791" class="st1" d="M722.499,37.607c-.138-.016-.21-.048-.505-.223-.189-.112-.36-.23-.38-.26-.051-.079-.084-.272-.105-.623-.021-.36-.002-.334-.468-.623-.996-.619-2.458-1.349-5.797-2.894-.456-.211-.47-.216-.562-.183-.052.019-.388.174-.747.346s-.994.474-1.411.672c-1.254.595-2.651,1.303-2.873,1.457-.461.32-.836.626-.891.727-.07.129-.128.309-.179.559-.047.229-.201.561-.28.604-.03.016-.083.062-.116.101-.081.097-.3.196-.605.276-.289.076-.407.071-.81-.03-.252-.064-.405-.138-.449-.22-.033-.061-.076-.446-.099-.886l-.019-.35-.183-.062c-.101-.034-.353-.104-.562-.155-.409-.101-.496-.135-.61-.241-.101-.093-.147-.189-.175-.362-.022-.138-.019-.157.077-.361.227-.485.531-.846.89-1.058.187-.11.204-.115.392-.113.157.002.248.022.457.1.73.271.856.309,1.083.322.361.02.816-.108,1.661-.467.478-.203.99-.46,2.036-1.02.445-.238.955-.51,1.132-.603l.323-.17-.244-.138c-.461-.261-2.517-1.364-2.987-1.604-.506-.258-.654-.305-1.123-.357-.449-.05-.664-.023-1.802.225-.187.041-.409.07-.549.073-.227.004-.244,0-.463-.104-.295-.141-.497-.281-.663-.457-.26-.276-.288-.393-.211-.9l.056-.373.353-.169c.194-.093.51-.226.702-.295l.348-.127-.022-.418c-.012-.23-.019-.535-.014-.679.008-.296.014-.304.254-.419.415-.198,1.295-.249,1.641-.095.103.046.126.074.246.308.15.293.291.683.358.989.092.421.234.601.656.833.421.231,1.913,1.019,2.915,1.54.541.281,1.088.569,1.215.64s.45.248.719.394l.488.265,1.863-.865c2.675-1.243,3.022-1.407,3.686-1.739,1.054-.527,1.411-.743,1.472-.89.036-.086.247-.934.334-1.343l.043-.2.384-.107c.54-.15.644-.169.853-.151.25.021.366.063.48.173.088.085.107.133.218.531l.121.438-.089.265c-.049.146-.089.278-.089.293s.08.062.176.104c.454.197.867.465.999.648.144.199.086.485-.173.848-.155.218-.443.506-.594.595l-.112.066-.264-.089c-.299-.101-.637-.174-1.092-.238l-.313-.044-.758.327c-.938.405-2.331,1.023-3.735,1.658-.589.266-1.122.507-1.185.535l-.114.051.336.156c.638.297,2.611,1.167,3.34,1.472,1.36.57,1.578.651,1.737.652.148,0,.196-.018.953-.361.297-.135.633-.238.893-.273.17-.023.182-.021.269.044.157.118.506.481.632.658.288.404.396.726.382,1.139-.008.252-.013.271-.089.366-.116.144-.244.22-.598.358-.367.142-.476.204-.508.287-.013.033-.042.183-.065.333-.093.6-.135.683-.396.78-.269.101-.809.166-1.099.133l.004-.002Z"/>
    <path class="st1" d="M722.125,17.812c-.155-1.066.266-2.264.266-2.264,0,0-.488.599-.599,1.487s-.444,1.643-.932,2.287c-.488.644-1.687.622-1.043-.4.644-1.021,2.242-5.106.622-7.082-1.621-1.976-.466-4.24-.466-4.24-1.732,1.887-.799,4.462-.799,4.462.888,4.063-1.598,5.069-1.598,5.069-.37-.266-.444-.873-.444-.873,0,0-.318.703-.496.392s-.148-2.161-.148-2.161c0,0-.303.932-.451,1.399s-.148,0-.148,0c.141-1.376-.037-3.826-.037-3.826-.333.962-.747,3.567-.77,3.693-.022.124-.127.133-.13.133-.002,0-.108-.009-.13-.133-.022-.126-.437-2.731-.77-3.693,0,0-.178,2.449-.037,3.826,0,0,0,.466-.148,0-.148-.466-.451-1.399-.451-1.399,0,0,.03,1.85-.148,2.161s-.496-.392-.496-.392c0,0-.074.607-.444.873,0,0-2.486-1.006-1.598-5.069,0,0,.932-2.575-.799-4.462,0,0,1.154,2.264-.466,4.24-1.621,1.976-.022,6.06.622,7.082.644,1.021-.555,1.043-1.043.4-.488-.644-.821-1.399-.932-2.287s-.599-1.487-.599-1.487c0,0,.422,1.199.266,2.264-.155,1.066.244,3.108,2.242,4.218,0,0-.666.133-1.243-.333,0,0,.348.932,1.65,1.517,0,0-.437.192-1.073-.096,0,0-.252.133.955.666,1.206.533,2.005,1.206,2.183,1.769,0,0-.148-1.014-1.14-2.242s-.318-2.035-.318-2.035c0,0,.74.562.814,1.48.074.918.303.725.525,1.162.222.437.141,1.362.636,2.368,0,0,.821-1.783.895-2.76,0,0,.281,1.465-.614,2.893,0,0-.503.762-.281,1.043s.562.392.555.962.104,1.029.385,1.162c.281.133.648.059.821.54,0,0,.097.153.173.229h.017c.076-.076.173-.229.173-.229.173-.481.54-.407.821-.54.281-.133.392-.592.385-1.162s.333-.681.555-.962-.281-1.043-.281-1.043c-.895-1.428-.614-2.893-.614-2.893.074.977.895,2.76.895,2.76.496-1.006.414-1.931.636-2.368s.451-.244.525-1.162c.074-.918.814-1.48.814-1.48,0,0,.673.807-.318,2.035-.992,1.228-1.14,2.242-1.14,2.242.178-.562.977-1.236,2.183-1.769s.955-.666.955-.666c-.636.289-1.073.096-1.073.096,1.302-.585,1.65-1.517,1.65-1.517-.577.466-1.243.333-1.243.333,1.998-1.11,2.398-3.152,2.242-4.218h-.001ZM713.63,22.801c-.132.095-.36-.082-.397-.164-.038-.082-.284-.025-.562-.17s-.322-.442-.372-.688-.183-.461-.183-.461c-.454-.593-.341-.864-.341-.864.568.77,1.905,1.984,1.905,1.984.126.186.082.268-.05.363h0ZM714.43,27.495c-.121.038-.087.265-.087.265.158.688-.278,1.539-.183,1.073.095-.467.019-1.041-.151-1.129s-.454-.58-.309-.915c.145-.334.328-.177.435-.12s.295.379.295.379c.09.143.121.41,0,.448h0ZM716.201,26.788c.145.334-.139.827-.309.915-.17.088-.246.662-.151,1.129s-.341-.385-.183-1.073c0,0,.034-.227-.087-.265s-.09-.305,0-.448c0,0,.188-.322.295-.379s.29-.215.435.12h0ZM717.785,21.317s-.132.215-.183.461-.095.543-.372.688c-.278.145-.524.088-.562.17s-.265.259-.397.164c-.132-.095-.177-.177-.05-.363,0,0,1.338-1.214,1.905-1.984,0,0,.114.271-.341.864h0Z"/>
  </g>
  <g>
    <path d="M210.352,9.483h-1.356c-.082-.286-.167-.686-.254-1.199-.087-.513-.146-.945-.175-1.295h-.438v1.986c0,.1.026.181.079.245.052.064.123.096.21.096v.167h-1.646v-.167c.082,0,.15-.03.206-.092.055-.061.083-.145.083-.25V3.865c0-.222-.096-.333-.289-.333v-.167c.484-.046.998-.07,1.541-.07,1.225,0,1.838.612,1.838,1.838,0,.811-.228,1.333-.683,1.566.123.735.306,1.517.551,2.346.023.07.067.133.131.188.064.056.131.083.201.083v.167ZM209.048,5.151c0-.648-.236-.972-.709-.972-.117,0-.187.003-.21.009v1.96c.046.006.116.009.21.009.473,0,.709-.335.709-1.006Z"/>
    <path d="M213.673,9.483h-1.37v-.158c.117,0,.175-.049.175-.148,0-.14-.016-.292-.047-.455-.128.046-.261.069-.4.069s-.273-.023-.4-.07c-.035.198-.053.35-.053.455,0,.099.058.148.174.148v.158h-1.277v-.158c.122,0,.192-.064.21-.192l.683-4.113c.012-.093.018-.143.018-.149,0-.082-.044-.123-.131-.123v-.158h1.645v.158c-.082,0-.122.038-.122.114,0,.029.004.085.013.167l.665,4.096c.023.133.096.2.219.2v.158ZM212.332,7.95l-.309-2.396h-.009l-.281,2.389c.075.047.177.07.304.07.104,0,.203-.021.295-.063Z"/>
    <path d="M217.817,4.749c-.14,0-.219.079-.236.236l-.595,4.499h-.86l-.438-1.742h-.053l-.429,1.742h-.875l-.622-4.499c-.018-.158-.096-.236-.236-.236v-.158h1.365v.158c-.14,0-.21.053-.21.158,0,.029.006.108.018.236l.263,2.783h.052l.551-1.926h.324l.542,1.926h.052s.268-2.826.268-2.826c.006-.064.009-.125.009-.185,0-.111-.07-.167-.21-.167v-.158h1.318v.158Z"/>
    <path d="M220.661,9.483h-1.566v-.158c.181,0,.271-.099.271-.297v-4.14l-.945.114v-.639c.7-.093,1.175-.426,1.426-.998h.578c-.029.123-.043.266-.043.429v5.225c0,.087.026.161.079.219.052.059.12.087.201.087v.158Z"/>
    <path d="M224.407,6.28c0,1.173-.127,2.024-.381,2.556-.253.531-.652.796-1.194.796-.537,0-.929-.267-1.177-.801-.248-.534-.372-1.381-.372-2.542,0-2.048.522-3.072,1.567-3.072,1.038,0,1.558,1.021,1.558,3.063ZM223.339,6.289c0-.788-.038-1.349-.114-1.685-.076-.335-.207-.503-.394-.503-.181,0-.31.17-.385.512s-.114.9-.114,1.676c0,.951.038,1.597.114,1.938s.21.512.403.512c.181,0,.308-.173.38-.521.073-.347.109-.99.109-1.93Z"/>
    <path d="M226.044,3.786c0,.263-.083.493-.25.691-.167.199-.378.345-.635.438l-.148-.219c.315-.117.499-.283.551-.499-.368,0-.551-.163-.551-.49,0-.151.048-.271.144-.359.096-.087.217-.131.363-.131.35,0,.525.19.525.569Z"/>
    <path d="M228.853,8.241c0,.426-.121.757-.363.993s-.57.354-.984.354c-.076,0-.183-.015-.319-.044-.137-.029-.232-.043-.285-.043-.093,0-.175.012-.245.035l-.149-1.129.184-.043c.046.163.121.281.223.354.102.073.261.109.477.109.157,0,.284-.05.38-.149.097-.099.145-.233.145-.403,0-.262-.181-.592-.542-.989-.304-.333-.52-.613-.648-.84-.128-.228-.192-.473-.192-.735,0-.368.111-.664.333-.889.222-.224.528-.337.919-.337.088,0,.193.012.315.035.122.023.207.035.253.035.088,0,.169-.018.245-.053l.149,1.024-.175.053c-.093-.228-.312-.341-.656-.341-.134,0-.239.047-.315.14-.076.093-.114.198-.114.315,0,.187.07.359.21.516l.499.604c.222.263.386.5.494.713s.162.451.162.713Z"/>
  </g>
  <g>
    <path d="M512.854,35.938h1.356c.082.286.167.686.254,1.199.087.513.146.945.175,1.295h.438v-1.986c0-.1-.026-.181-.079-.245-.052-.064-.123-.096-.21-.096v-.167s1.646,0,1.646,0v.167c-.082,0-.15.03-.206.092-.055.061-.083.145-.083.25v5.111c0,.222.096.333.289.333v.167c-.484.046-.998.07-1.541.07-1.225,0-1.838-.612-1.838-1.838,0-.811.228-1.333.683-1.566-.123-.735-.306-1.517-.551-2.346-.023-.07-.067-.133-.131-.188-.064-.056-.131-.083-.201-.083v-.167ZM514.158,40.27c0,.648.236.972.709.972.117,0,.187-.003.21-.009v-1.96c-.046-.006-.116-.009-.21-.009-.473,0-.709.335-.709,1.006Z"/>
    <path d="M509.533,35.938h1.37s0,.158,0,.158c-.117,0-.175.049-.175.148,0,.14.016.292.047.455.128-.046.261-.069.4-.069s.273.023.4.07c.035-.198.053-.35.053-.455,0-.099-.058-.148-.174-.148v-.158s1.277,0,1.277,0v.158c-.122,0-.192.064-.21.192l-.683,4.113c-.012.093-.018.143-.018.149,0,.082.044.123.131.123v.158s-1.645,0-1.645,0v-.158c.082,0,.122-.038.122-.114,0-.029-.004-.085-.013-.167l-.665-4.096c-.023-.133-.096-.2-.219-.2v-.158ZM510.874,37.472l.309,2.396h.009l.281-2.389c-.075-.047-.177-.07-.304-.07-.104,0-.203.021-.295.063Z"/>
    <path d="M505.389,40.673c.14,0,.219-.079.236-.236l.595-4.499h.86s.438,1.742.438,1.742h.053l.429-1.742h.875s.622,4.499.622,4.499c.018.158.096.236.236.236v.158s-1.365,0-1.365,0v-.158c.14,0,.21-.053.21-.158,0-.029-.006-.108-.018-.236l-.263-2.783h-.052l-.551,1.926h-.324s-.542-1.926-.542-1.926h-.052s-.268,2.826-.268,2.826c-.006.064-.009.125-.009.185s.07.167.21.167v.158s-1.318,0-1.318,0v-.158Z"/>
    <path d="M502.545,35.938h1.566s0,.158,0,.158c-.181,0-.271.099-.271.297v4.14s.945-.114.945-.114v.639c-.7.093-1.175.426-1.426.998h-.578c.029-.123.043-.266.043-.429v-5.225c0-.087-.026-.161-.079-.219-.052-.059-.12-.087-.201-.087v-.158Z"/>
    <path d="M498.799,39.141c0-1.173.127-2.024.381-2.556.253-.531.652-.796,1.194-.796.537,0,.929.267,1.177.801.248.534.372,1.381.372,2.542,0,2.048-.522,3.072-1.567,3.072-1.038,0-1.558-1.021-1.558-3.063ZM499.867,39.132c0,.788.038,1.349.114,1.685.076.335.207.503.394.503.181,0,.31-.17.385-.512s.114-.9.114-1.676c0-.951-.038-1.597-.114-1.938s-.21-.512-.403-.512c-.181,0-.308.173-.38.521-.073.347-.109.99-.109,1.93Z"/>
    <path d="M497.162,41.636c0-.263.083-.493.25-.691.167-.199.378-.345.635-.438l.148.219c-.315.117-.499.283-.551.499.368,0,.551.163.551.49,0,.151-.048.271-.144.359-.096.087-.217.131-.363.131-.35,0-.525-.19-.525-.569Z"/>
    <path d="M494.353,37.181c0-.426.121-.757.363-.993s.57-.354.984-.354c.076,0,.183.015.319.044.137.029.232.043.285.043.093,0,.175-.012.245-.035l.149,1.129-.184.043c-.046-.163-.121-.281-.223-.354-.102-.073-.261-.109-.477-.109-.157,0-.284.05-.38.149-.097.099-.145.233-.145.403,0,.262.181.592.542.989.304.333.52.613.648.84.128.228.192.473.192.735,0,.368-.111.664-.333.889-.222.224-.528.337-.919.337-.088,0-.193-.012-.315-.035-.122-.023-.207-.035-.253-.035-.088,0-.169.018-.245.053l-.149-1.024.175-.053c.093.228.312.341.656.341.134,0,.239-.047.315-.14.076-.093.114-.198.114-.315s-.07-.359-.21-.516l-.499-.604c-.222-.263-.386-.5-.494-.713s-.162-.451-.162-.713Z"/>
  </g>
</svg>