<?xml version="1.0" encoding="UTF-8"?>
<svg id="Encounter" xmlns="http://www.w3.org/2000/svg" width="8.139in" height="1.714in" version="1.1" viewBox="0 0 585.997 123.429">
  <!-- Generator: Adobe Illustrator 29.2.1, SVG Export Plug-In . SVG Version: 2.1.0 Build 116)  -->
  <g>
    <path d="M244.174,86.058c-.089-.199-.193-.431-.293-.697-.148.029-.302.052-.462.067-.469.25-.942.507-1.432.773-.342.186-.684.372-1.027.557-.336.181-.67.33-.965.46-.078.034-.176.078-.263.118-.018.022-.036.043-.054.065-.383.456-1.01,1.2-1.99,1.761-.237.286-.486.524-.734.722-.225,1.12-.771,1.991-1.415,2.687h4.634c.225-.061.447-.134.676-.173.752-.129,1.376-.154,1.877-.175.595-.025.743-.038.956-.122.444-.175.589-.292.595-.292,0,0,0,0,0,0,.014-.023.134-.233.264-.953.194-1.074.063-3.389-.254-4.544-.033-.085-.073-.169-.112-.255Z"/>
    <path d="M257.93,91.915c-.049-.147-.102-.328-.147-.534-.243-1.128-.411-2.243-.574-3.32-.17-1.124-.333-2.202-.566-3.203h-.092c.286,2.015.114,3.93-.047,5.685-.045.487-.09.974-.122,1.459.06.14.161.347.24.509.009.019.02.042.03.062h1.46c-.077-.214-.141-.432-.181-.656Z"/>
    <path d="M585.997,92.571v-23.143h-23.143v15.429h-7.714v-15.429h-23.143v23.143h15.429v7.714h-23.143v-30.857h-154.592c-.003.008-.005.017-.008.025.003.019.007.038.01.057.057.336.092.689.105,1.049.612-.337,1.31-.517,2.053-.517.428,0,.854.06,1.301.184,2.997.831,5.217,3.965,5.903,6.917h137.514v7.714h-135.599c2.254,1.717,2.341,3.588,1.967,4.909-.189.669-.505,1.174-.807,1.552-.228.412-.487.832-.752,1.253h135.191v7.714h-139.948c.115.615.122,1.281-.003,1.987-.315,1.779-1.784,3.126-3.583,3.286-.168.015-.335.022-.501.022-.923,0-1.677-.228-2.128-.364-.014-.004-.027-.008-.041-.012-.445-.054-.848-.154-1.212-.29-.478.56-1.28,1.195-2.539,1.401-.365.107-.743.16-1.121.16-.474,0-.949-.084-1.402-.254l-2.322-.869c-.057-.021-.113-.044-.169-.068-.181,1.283-.931,2.195-1.487,2.715h202.742v15.429h23.143v-23.143h-15.429v-7.714h15.429ZM570.568,77.143h7.714v7.714h-7.714v-7.714ZM547.425,84.857h-7.714v-7.714h7.714v7.714ZM562.854,100.286h-7.714v-7.714h7.714v7.714ZM578.282,108v7.714h-7.714v-7.714h7.714Z"/>
    <path d="M270.84,105.355c-.097-1.045.271-2.169.346-2.384.371-1.064,1.032-1.745,1.595-2.17.053-.146.106-.306.154-.461-.013-.017-.026-.037-.039-.054h-16.394c-1.615,2.302-4.355,2.74-5.686,2.948l-.206.032c-.581.093-1.174.174-1.768.255-.741.102-1.44.197-2.109.315-.359.063-.708.141-1.055.218-1.045.23-2.23.49-3.621.49-.256,0-.516-.009-.779-.028-.208-.015-.399-.038-.573-.066-.428.147-.884.224-1.353.224-.432,0-.867-.067-1.293-.198-.056-.017-.111-.036-.165-.055-.108-.016-.214-.036-.32-.061-.526-.035-1.049-.174-1.537-.421l-.125-.063c-1.009-.509-1.755-1.422-2.054-2.511-.098-.355-.143-.718-.141-1.08h-16.945c-2.938,1.358-5.505,2.035-7.754,2.035-.88,0-1.725-.102-2.514-.304-1.234-.316-2.158-.899-2.773-1.731H69.429v-7.714h137.157c.33-.244.679-.497,1.061-.768l.153-.109c2.98-2.116,6.455-4.311,10.825-6.838H69.429v-7.714h165.521c.298-1.024.868-1.942,1.745-2.817.211-.21.522-.802.797-1.325.402-.764.858-1.63,1.532-2.491.287-.366.615-.684,1.05-1.082H61.714v30.857h-23.143v-7.714h15.429v-23.143h-23.143v15.429h-7.714v-15.429H0v23.143h15.429v7.714H0v23.143h23.143v-15.429h248.661c-.798-1.16-.947-2.457-.964-2.645ZM38.571,77.143h7.714v7.714h-7.714v-7.714ZM15.429,115.714h-7.714v-7.714h7.714v7.714ZM15.429,84.857h-7.714v-7.714h7.714v7.714ZM30.857,100.286h-7.714v-7.714h7.714v7.714Z"/>
    <path d="M271.434,90.018c-.182-.304-.327-.624-.432-.954-.046-.089-.093-.181-.14-.277-.609-.267-1.26-.721-1.81-1.491-.288-.276-.618-.562-.964-.861-.158-.136-.318-.274-.479-.416-.036.161-.074.32-.113.48-.026.106-.057.235-.081.343.061.226.121.507.153.825.05.496.033.926.021,1.24-.003.069-.007.137-.007.205.066.931-.195,1.856-.739,2.615-.235.328-.524.602-.834.845h5.055c-.047-.934.125-1.745.37-2.554Z"/>
  </g>
  <path d="M317.52,25.86c-.04.11-.24-.02-.25-.1s-.23.15-.3.2.04-.27.01-.419-.38.2-.559.419-.13-.12-.16-.4-.4.28-.559.38-.21-.37-.21-.37l-.26.26s0-.429-.2-.18-.38.21-.39.17.044-.254.044-.254c-.103.07-.437.082-.555.343l-.098-.029-.165-.234-.266.263-.101-.198-.232.199c-.077-.28-.152-.046-.277-.023-.278.051-.482-.178-.654.222-.085-.349-.338.18-.601.2-.029.002-.147-.365-.364.132-.162.067-.181-.208-.231-.199-.243.044-.372.713-.599.2l-.333.331-.198-.199-.168.265c-.391-.21-.21-.038-.377.07-.087.056-.225.035-.32.131-.04.041-.188.363-.247.385-.069.026-.154-.065-.25-.023-.281.123-.224.58-.732.037-.023.382-.4.464-.566.133-.154.366-.217.327-.513.471-.051.025-.053.118-.099.127-.15.03-.337-.078-.352-.067-.086.062-.05.565-.07.696-.017.115-.144.189-.132.329.012.143.244.483.304.634.15.374.177.375.326.671.183.365.055.77.14,1.068.047.166.285.344.298.497.013.16-.135.217-.138.327,0,.041.128.027.139.074.043.192-.136.308-.135.326.001.029.4.213.401.272.001.135-.202.308-.202.327.002.056.23.112.26.209.044.143-.147.291-.124.383.021.088.226.113.257.215.045.146-.19.354-.127.422.022.024.241-.154.269.101.04.363-.195.762-.342,1.058-.038.077-.05.284-.067.298-.051.041-.24-.032-.317.016-.068.041-.015.331-.471.426-.751.157-2.402-.273-3.212-.452-.559-.123-1.126-.434-1.708-.247l.197.811c.162.158.752.688.733.877-.122.354-1.309,1.666-1.056,1.957.02.023.518.233.577.199.359-.474.712-1.054,1.207-1.386-.068.213.154.497.106.667-.073.259-.677.885-.8,1.265-.083.254.019.36.28.384.359.033.941-1.354,1.341-1.222.186.062.267.277.359.347.054.041.149.039.209.087.253.2.449.476.753.613.154.266-.587,1.024-.588,1.217-.001.171.558.484.703.5.138.015.233-.521.423-.588.293-.5.309-1.117,1.11-.813.128.447-.264.726-.44,1.028-.071.122-.067.275-.139.396-.433.73-.824.639-1.432.996-.124.073-.799.528-.868.592-.099.092-.034.282-.131.388-.109.12-.342.051-.389.124-.068.108.052.243.01.403-.009.033-.315.511-.339.531-.15.122-.328.024-.435.097-.058.04-.055.173-.103.23-.08.097-.344.164-.196.343.059.071.344.021.268.337-.079.33-.554.264-.602.521-.022.119.231.143-.103.364-.059.039-.181.03-.19.04-.024.026.122.349-.039.593-.164.247-.604.31-.628.336-.023.025.064.155.052.224-.023.137-.842.674-1.02.702-.168.026-.4.017-.566-.024-.187-.046-.286-.204-.375-.226-.172-.042-.226.134-.488-.109-.226-.209-.243-.53-.394-.737-.164-.226-.495-.455-.694-.768-.217-.34-.453-1.025-.788-1.24-.068-.044-.207-.02-.295-.069-.211-.117-1.191-.731-1.263-.748-.346-.084-.815-.043-1.214-.234-.197-.095-.185-.373-.337-.461-.332-.193-1.397-.227-1.565-.569.06-.188.06-.438.107-.615.007-.026.246-.324.292-.451.191-.523.279-1.996.306-2.619.012-.272.046-2.063-.012-2.154-.015-.024-.168-.064-.213-.059-.313.036-.291.459-.397.627-.174.276-1.019,1.214-1.294,1.417-.19.14-.386.186-.618.103l-.547-1.713c-.992-2.601-3.105-4.586-4.526-6.91-.974-1.594-1.865-3.268-2.522-4.991-.126-.331-.457-.863-.841-.547-.426.35-.289.754-.337,1.192-.236,2.177.02,3.848-1.12,5.725-.871,1.434-1.663,2.505-2.291,4.095-.489,1.24-1.153,2.682-1.493,3.959-.044.167.033.613-.193.677-.41.115-2.018-1.516-2.433-1.805-.481-.218-.406.298-.374.64.031.327.316,1.377.451,1.676.098.216.36.262.441.49.16.456-.017,1.039.359,1.436.112.118.318.183.435.296.455.437.494.93,1.038,1.292.072.048.184.01.264.082.401.361-.075,1.584-.603,1.685l-.099-.199c-.164.029-.215.452-.332.398-.16-.074-.026-.319-.166-.331-.138.206-.29.908-.6.565-.083-.092-.016-.24-.131-.232l-.068.598c-.32.038-.291-.282-.333-.332-.193-.23-.112.505-.133.532-.196.061-.181-.314-.364-.265-.086.023-.067.424-.451.322-.208-.055-.168-.349-.38-.322.117.782-.458.343-.694.406-.112.03-.092.245-.167.295-.094.063-.277.002-.404.062-.088.042-.098.183-.178.237-.092.062-.366.086-.405.144-.046.066.02.207-.11.324-.185.167-.777.289-.804.324-.113.147.204.239-.04.559l-.92.942c-.027.134.174.091.181.266l-.315.497.265-.066c.109.514-.36.745-.466,1.163l.333.035c.101.089-.631.802,0,.532.152.201-.68.829,0,.598.025.226.017.426-.015.62-.729-.632-1.484-1.277-2.174-1.617l-1.746-.995c-.259-.204-1.282-.629-1.642-.781-1.228-.517-2.721-1.018-4.013-1.341-.25-.062-.533-.114-.828-.166-.29-.426-.555-.875-.759-1.385-.133-.334-.237-.626-.328-.905.049-.083.093-.154.119-.189.31-.422.705-.795,1.016-1.243.093-.135.116-.351.279-.505.287-.271.533-.165.846-.267.259-.084.705-.643.834-.889.113-.214.299-.887.353-.953.046-.057.454-.198.572-.274.503-.327.575-.598.878-1.034.177-.254.622-.425.856-.752.179-.251.157-.429.246-.616.022-.046.628-.642.712-.721.399-.376,1.209-.498,1.385-1.101.407-1.401-1.592-1.094-2.37-.84-.9.294-1.514.861-2.281,1.238-.653.321-1.589.446-2.307.676-.553.177-1.086.378-1.616.585-.123-.354-.29-.705-.527-1.059-.93-1.393-2.197-2.326-2.913-4.002-.7-1.641-.487-2.778-.339-4.461.299-3.397-.942-4.382-2.41-7.018-.805-1.445-1.322-2.929-1.691-4.559l-.227-1.635-.187-.111c.004.529-.09,1.028-.066,1.561.044.966.223,2.195.469,3.122.471,1.778,1.564,3.333,1.971,5.143.613,2.72-.68,5.44-.098,8.01.48,2.118,2.459,4.174,3.299,6.243-1.008.518-1.998,1.079-2.979,1.703-1.353-.634-2.618-1.417-4.137-1.635-2.23-.321-4.05.783-5.304,2.523-.28.389-.504.83-.792,1.215-1.186.128-2.49.254-3.613.69-.306.119-.678.41-.997.469-1.467.273-2.171-.376-3.396.936-.046.05-.052.16-.107.214-.075.074-.2.06-.283.168-.282.365.838.462,1.016.631,1.742.41,3.56.363,5.247,1,.358.135.733.354,1.096.498.157.062.779.2.846.271.077.082.296.621.242.745-.032.073-.909.634-1.077.78-1.187,1.028-2.089,3.172-1.618,4.719.139.456.403.553.707.171.548-.689.949-1.487,1.674-2.023.502-.371,1.043-.63,1.681-.649-.103.349.133.765.13,1.054-.002.197-.145.301-.179.458-.148.683.463,1.496,1.056,1.784.41.199.959.162,1.301.356.198.112.436.481.639.634.266.201.584.313.875.467-.073.268-.203.534-.19.821.03.63.516,1.376.517,1.979,0,.265-.138.443-.178.655-.171.897-.237,1.719-.236,2.635-1.123,1.354-2.195,2.902-2.822,4.57-.144.383-.313,1.375-.461,1.626-.128.217-1.177,1.06-1.47,1.433-1.025,1.308-1.507,3.036-2.652,4.179-.721.719-.908,1.245-.79,2.305.025.224.404,1.057.375,1.108l-3.165,1.711c-.305.034-.561.109-.863.013l-.266.321c-.219-.308-.536-.285-.813-.063-.102.082-.115.228-.194.301-.129.12-.423.14-.49.37l-.841.019c-.198-.009-.495-.005-.581.013l-1.968.692c-.187-.069-.268.216-.359.26-.514.248-1.356.399-1.926.608-1.932.706-3.669,1.596-5.435,2.6-4.026,2.289-8.316,4.863-12.088,7.542-.799.568-2.522,1.764-3.062,2.498-.346.47-.053.561.439.687,3.76.963,9.283-2.175,12.354-4.113.477-.301.956-.596,1.432-.899l1.518-1.091.253-.182s-.004-.007-.007-.011c.073-.057.16-.125.259-.202.014.013.026.022.034.022.099-.071.155-.129.177-.186.126-.098.265-.206.412-.319l.498-.38s0-.002,0-.003c.1-.077.202-.155.305-.233.083.011.166-.041.252-.192.372-.282.742-.56,1.068-.799.01.004.019.008.029.011l.116-.116c.778-.564,1.407-.655,1.778-.641.976.093,2.012.712,2.312,1.651.086.269.054.574.191.828.914-.524,2.492-1.21,2.584-2.387.031-.395-.018-.89-.191-1.242.232-.046.618-.668.779-.727.163-.06.375.02.584-.046.395-.126.62-.624.735-.988.126-.046.262-.019.389-.057.924-.271,1.316-1.31,2.059-1.796.437-.286,1.161-.542,1.65-.805,1.16-.625,2.311-1.268,3.486-1.867.712.343,1.513-.475,2.042-.637.962-.295,1.582-.47,2.3-1.272.05-.056.041-.176.08-.209.037-.032.143,0,.163-.02.051-.054-.073-.454.36-.441-.024.216-.258.447-.32.636-.338,1.034.047,3.279.384,4.337.148.463.431.949.563,1.413.484,1.702.667,4.655.355,6.389-.406,2.255-1.178,3.409-3.328,4.257-1.375.542-2.291.29-3.625.518-1.727.295-3.237,1.903-3.718,3.548-.04.137-.011.29-.092.417l.125.063c.15-.113.586-.558.732-.581.033-.005.184.024.16.101-.262.016-.203.376-.255.575l.892-.382c.115.252-.025.154-.058.239-.042.106-.069.219-.068.334.249.077.23-.094.335-.144.98-.468,1.07-.05,1.992.017,1.576.115,2.955-.362,4.469-.629,1.301-.23,2.651-.376,3.944-.582,1.56-.249,3.191-.421,3.638-2.226.484-1.954-1.348-3.278-1.246-5.071.163-2.863.796-5.79-.288-8.573-.209-.535-.767-1.016-.466-1.615.711-1.413,3.812-2.113,5.229-2.802.634-.309,1.078-.649,1.65-1.027.161-.106.406-.055.377-.357.286-.007.381.202.478.445.504,1.271.565,3.114.812,4.479.817,2.584.967,5.366,1.529,7.969.049.228.198.437.176.685h.191c-.001-.622.283-1.953,1.112-1.846.14.018.297.193.422.019-.036-.43.039-.905-.004-1.328-.025-.252-.157-.484-.185-.707-.111-.875.207-1.666.361-2.497.204-1.102.349-2.241.62-3.332.337-1.356.922-2.667,1.28-4.01.095-.355.119-.876.235-1.231.02-.061.14-.198.175-.174.229.481.72.799,1.088,1.178.319.33.635.681.952,1.031.04.09.08.182.12.271.183.406.865,1.591.858,1.933-.008.428-.265.803-.073,1.275.021.051.355.398.426.468.862.854,1.85,1.582,2.705,2.466.119.123.178.424.463.415.005-.446-.282-.83-.426-1.202-.231-.598-.463-1.198-.696-1.799.369.505.792.943,1.277,1.383.125.114.158.337.272.38l.238.265.517.658.039.147c.01.057.017.117.018.182.003.003.013,0,.029-.005l.035.133.251.053c-.099.009-.206-.012-.251-.053-.14.173.327,1.27.434,1.51.134.301.298.597.453.894-.018.144.038.289.235.465.224.404.466.802.713,1.199-.073.333-.138.674-.216.939-.462,1.566-.796,1.926-.031,3.566.204.438.253.68.385,1.144.075.265.302.538.31.82.016.525-.613.884-.427,1.558.048.174.574.829.873,1.105,0,0,.306.442.375.983.022.244.058.562.042.728-.073.759-.743,2.927-1.293,3.428-.24.218-.677.289-.805.656-.041.117-.15.592-.14.697.016.169.211.741.355.842.452.318,1.869-.048,2.439.068l.556.731c.552-.433.493-.687,1.317-.59.726.085,1.475.179,2.206.254,1.052.107.849-.133,1.659-.389.424-.134,1.363.088,1.476-.453.043-.206-.179-1.126-.271-1.357-.028-.07-.114-.286-.147-.319-.071-.073-.666-.278-.846-.4-.346-.234-1.405-1.568-1.549-1.993-.037-.11-.071-.231-.103-.354.276-.026.549-.04.815.027.28.07.394.373.714.434.256.049-.127-.349-.134-.378-.048-.187.034-.426-.088-.642.171,0,.25.142.419.186.207.053.495-.02.664.032.108.033.568.303.771.394.187.084.561.539.5.189-.032-.185-.178-.3-.188-.482h.924c.102,0,.447.265.574.317.182-.012-.056-.519.041-.627.021-.023.294-.057.341-.197l.446.314c.18-.138-.082-.306-.023-.527.048-.175.224-.193.375-.146.234.072.438.484.509-.121.053-.452.033-1.405-.167-1.812-.402-.818-1.502-1.033-2.151-1.483-1.601-1.108-2.889-2.718-3.871-4.411.038-.121.071-.245.067-.386-.014-.509-.784-2.032-.134-2.33.41-.187.65.184.598.564.127-.011.09-.235.196-.303.276-.176.364.33.413.359.063.038.2-.019.246.021.022.019-.005.126.028.165.077.088.219.153.279.29.012-.315.158-.142.364-.233.156-.069.651-.61.831-.565.089.022.072.214.145.272.241.19.678-.022.788.46.135-.357.161.047.365.133,0,0,.247-1.245.799-.599.194-.053.088-.278.165-.398.234.028.384.364.564.426.108.037.398-.077.56-.032.066.018.075.557.592.337.097-.041.056-.214.108-.291.024-.035.141-.064.243-.142.086-.055.288-.156.438-.007.031.094.312.122.19.439.214.049.142-.274.332-.365.301-.146.678.179.965-.22.272.126.176.391.332.585.173-.364,1.028-.3,1.031.2.261-.146-.034-.406.348-.315.304.072.232.295.25.315.151.165.123-.188.134-.198.168-.154.367.238.499.263.193.037.028-.285.195-.315.038-.007.17.064.268.057.237-.018.462-.153.683.011.439.82.961,1.593,1.424,2.398.497.864.946,1.756,1.421,2.631-.314.499-.386,1.888-.092,2.356.248.395.182.299.352.712.198.485.342.55.301,1.16-.009.133-.115.971-.149,1.046-.137.308-.87.716-1.112,1.035-.269.354-.154.529-.647.731-.428.175-.831.159-1.185.543-.159.172-.247.506-.455.639-.178.114-.405.145-.583.251-.665.396-.775.971-.72,1.706.036.048.809-.515,1.089-.47.079.013.114.379.205.472.235.24,1.498-.226,2.013-.018.107.043.285.276.384.267.048-.004.12-.159.328-.188,1.3-.181,3.029.365,4.196-.059.222-.081,1.615-1.017,1.691-.934.046.205-.119.395-.131.572-.016.237.13.412.035.695-.101.302-.543.223-.621.575-.045.203-.03.861.065,1.037.133.247.955.212,1.211.252,2.866.444,5.816.397,8.655-.135.254-.047.833-.009.993-.337.147-.303-.02-.702-.085-.98-.136-.582-.102-.291-.301-.635-.077-.133-.376-1.019-.303-1.103.041-.048.943-.418,1.137-.543.185-.12.47-.496.688-.528.292-.043.85.305,1.208.381,2.793.596,5.376-.855,5.967-3.706.198-.957-.062-2.302-.464-3.193-.145-.321-.873-1.11-.898-1.364.132-.736.334-1.474.332-2.225.413.326.589.064.963.061.23-.002.436.131.658.131.461,0,1.076-.311,1.488-.38.126-.021.233.047.353.027.433-.069.598-.513.863-.601.159-.053.51-.017.529-.036.053-.053.01-1.302-.001-1.495-.056-.93-.213-1.852-.266-2.793-.011-.203-.23-.906.033-.899.159.004.995.706,1.134.862.112.126.581.795.613.916.045.17.036.658.016.849-.051.514-.234,1.119-.266,1.662-.074,1.265.438,2.233.597,3.458.33,2.557.421,5.898-.003,8.439-.067.403-.464,1.138-.579,1.615-.115.479-.332,1.586-.35,2.049-.003.088-.015.211.064.267.034.024.709.091.832.098.351.02.801-.054,1.129.001.204.034.476.233.733.264,1.979.237,4.538.032,6.51-.276.136-.021.786-.131.83-.201.182-.286-.219-.871-.292-1.118-.081-.276-.076-.621-.152-.912-.596-2.267-2.091-1.73-3.162-3.224-.067-.093-.214-.321-.217-.429.348-2.312.911-4.567,1.357-6.855.044-.226-.086-.567.181-.616.316-.058,1.819.096,1.931-.064.266-.38-.078-2.148.33-2.662l.729,3.592c.063.695.685,1.616.753,2.245.044.412-.218.458.247.811.241.183.941.502,1.081.747.039.068,0,.189.034.263.061.134.3.74.329.77,0,0,.227,1.666.553,2.106,0,0,0,0,.001.001.058.184.203.368.325.439.019.011.038.018.059.025.214.265.378.536.293.884,0,0,0,0,0,0-.015.056-.03.118-.045.188-.112.497-.178.631-.316,1.08-.132.428-.254,1.135-.221,1.579.027.362.071.395.435.428.15.014.881.052.972.033.32-.067.576-.516.887-.503.683.124,1.497.678,2.145.788.391.066,1.782.168,2.175.151.715-.031,2.641-.423,3.375-.62.489-.131,1.06-.446,1.556-.505,1.412-.169,3.661.005,4.847-.805.097-.066.342-.331.352-.443.008-.091-.304-.919-.373-1.066-.083-.177-.199-.34-.276-.521-1.226-.11-2.489.068-3.698-.092-.294-.387-.641-.452-1.006-.656-.506-.284-.743-1.196-1.105-1.654-.079-.1-.431-.343-.502-.46-.103-.17-.109-1.033-.079-1.261.032-.239.732-1.01.94-1.239.959-1.057,2.067-1.998,2.986-3.079,1.141-1.343,2.042-2.937,3.086-4.361.275-.325.06-1.002.116-1.208.031-.115.303-.358.322-.552.029-.288-.355-.462-.33-.587.036-.181.38-.088.403-.404.042-.578-.538-.912-.543-1.263-.005-.347.421-.65.467-.936.103-.646-.169-1.479-.062-2.157.171-.014.112-.012.131.1.086.511.185,1.37.374,1.822.119.287.59.434.631.229.023-.112-.118-.617-.172-.754-.07-.179-.486-.719-.483-.766.006-.077.299-.224.308-.461.017-.468-.342-1.153-.19-1.699.266.264,1.434.971,1.515,1.243.112.375-.144.929-.243,1.441h0c-.026.134-.041.264-.036.388-.034.416-.072,1.06-.014,1.388.044.393.163.849.218.861.086.019.331-.026.355-.003.02.019.011.483-.004.562-.061.336-.474.596-.777.686-.135.04-.437-.038-.475.121.012.49.152.98.191,1.459.064.794-.313,1.315-.392,1.999-.049.417-.131,1.188-.143,1.59-.014.477.338,1.326.7,1.629.956.8,2.357.758,2.172-.788.605-.059,1.112-.425,1.515-.861.504-.544.195-.493,1.052-.728,1.846-.508,2.418-1.109,3.986-1.998.074-.042.12-.102.22-.079-.307,1.161-.824,2.256-1.241,3.379-.338.909-.648,1.895-.97,2.753-.519,1.387-1.113,2.751-1.548,4.17-.195.415-.837-.089-1.217.08l-.276.619,2.322.869c.446-.224.816.098.562-.56-.067-.175-.289-.36-.294-.384-.034-.198.346-.919.437-1.152.946-2.432,2.031-4.931,3.049-7.388.348-.839.655-1.901,1.103-2.633.042-.068.052-.221.1-.22.075,3.602-.187,7.192-.098,10.803.067.343.547.269.8.331.506.124.998.35,1.526.303.203-1.144-.457-.712-.954-1.075-.353-.257-.116-.661-.108-1.017.052-2.22.149-4.437.263-6.652.019-.368-.084-1.704.099-1.895.22-.229.299.109.386.181.742.609,1.496,1.189,2.197,1.86.039.037.15.023.208.088.152.173.003.409.065.53.037.073.444.339.526.324.546-.62,1.058-1.214,1.546-1.877.702-.953,1.364-1.97,1.911-3.011.03-.058.229-.211.269-.353.096-.34-.883-.87-1.141-1.044-.181-.123-.358-.256-.552-.382-.606-.394-1.255-.727-1.842-1.152-.468-.201-.935.411-1.495.168-.2-.087-.13-.212-.204-.294-.399-.445-.912-.474-.569-1.163.247-.498.607-1.015.859-1.549.714-1.508,1.113-2.547,1.134-4.258.021-1.732-1.461-4.441-3.195-4.922-.506-.14-.384.138-.581.221-.898.378-3.662.498-4.773.613-.252.026-1.238.277-1.37.089-.03-.043-.128-.754-.129-.858-.009-.863.389-1.653.517-2.475.072-.461.08-1.031.002-1.496-.041-.246-.39-.814-.384-.94.014-.277.631-1.134.663-1.472.01-.108-.104-.704-.138-.854-.128-.564-.513-1.424-.587-1.939-.035-.247.042-.544-.02-.778-.034-.127-.195-.232-.233-.365-.329-1.136-.452-2.356-.837-3.484-.227-.666-.706-1.402-.999-2.059-.898-2.01-1.683-3.99-2.269-6.108-.285-1.03-1.115-1.701-1.724-2.532-.252-.344-.692-.847-.538-1.256.272-.723.932-.841,1.431-1.298.274-.252.647-.96.946-1.08.125-.05.278.019.37-.032.047-.026.165-.352.233-.431.269-.315.811-.674,1.04-1.003.249-.358.383-1.057-.168-1.141-.238-.036-.902.093-1.186.136-.361.055-.935.239-1.279.256-.158.008-.846-.078-.973-.144-.473-.246.043-.815.104-1.163.354-.322.807-.015,1.211-.014,1.938.005,5.316-1.347,6.207-3.173,1.002-2.053,1.111-4.047.136-6.167-.425-.926-1.575-2.646-2.471-3.117-.282-.148-.637-.217-.75.149-.118.379.02.601.273.864.171.178.305.194.485.513.696,1.237.768,4.325.038,5.536-.565.938-2.53,1.585-3.581,1.605-.578.011-1.14-.121-1.688-.213-.427-.769-.688-1.809-1.15-2.54-.16-.253-1.042-1.297-1.27-1.395-.445-.19-1.816-.599-2.279-.642-.425-.04-1.935-.063-2.295.031-.676.047-1.736.595-2.496,1.039-.014.002-.028.004-.043.008-.135.032-.458.209-.621.399-.192.123-.379.285-.548.454-.012,0-.024,0-.035.003-.262.286-.539.572-.71.924-.102.185-1.048.2-1.463.2-.303,0-.621-.224-.772-.346-.025-.023-.052-.045-.078-.066-.006-.006-.011-.01-.011-.01h-.002c-.078-.061-.161-.115-.252-.158-.839-.395-2.046-.437-2.977-.42-2.364.043-4.869,1.651-5.531,3.977-.28.985-.49,2.759-.334,3.756.04.258.38,1.497.483,1.711.125.261.426.516.73.469.366-.056.271-1.149.309-1.425.202-1.472.576-2.42,1.571-3.502.052-.057.191-.08.26-.153.444-.475.649-1.213,1.418-1.374.072.652.705.328,1.131.265.356-.079.538-.01.597.02.518.313,1.236.407,1.743.651.066.031.066.109.137.146.497.257,1.219.637,1.556,1.068.247.316.201,1.103.015,1.451-.12.224-.316.216-.552.182-.727-.104-1.458-.999-2.186-1.271-.45-.168-.924-.213-1.158.264-.281.574-.34,1.67-.009,2.233.147.25.889.582.716.836-.037.053-1.061.244-1.256.306-.922.29-1.404.713-2.216,1.109-.617.3-.835.381-1.389.855-.156.134-.29.303-.43.455-.307.102-2.07-.91-2.458-1.114-.181-.095-.381-.122-.569-.231-.175-.101-.368-.388-.567-.495-.3-.16-.757-.173-1.082-.314-.512-.223-.883-.693-1.359-.968l-.739-.795.235-.33c-.414-.136-.949.015-1.326-.237-.259-.173-.032-.394-.07-.428-.019-.018-.233.035-.304-.065-.032-.045.06-.181.038-.201-.015-.013-.346-.006-.391-.077-.04-.062.013-.233-.008-.256-.021-.023-.435.017-.532,0l.265-.398c-.187.055-.417-.064-.569-.059-.104.004-.371.19-.428.125-.012-.013.024-.174-.036-.266-.051-.08-.252-.053-.165-.333-.13.062-.361.37-.497.332l-.235-.597c-.172.024-.269.183-.464.132l.066-.332-.2.038-.096-.377-.168.007.065-.599c-.561.556-.669-.076-.363-.53.216-.32.842-.324.678-1.015-.027-.112-.272-.512-.366-.584-.276-.214-.531-.059-.718-.194-.027-.019-.377-.5-.391-.539-.2-.574.285-.629.565-.958.386-.453.412-.968.67-1.458.169-.322.689-1.108.922-1.406.139-.178.782-.392.852-.511.04-.068.031-.457-.015-.523-.175-.253-.978.131-1.189.062-.28-.09-.042-.797-.539-.723-.332.049-1.138.944-1.552,1.043-.518.265-1.095.733-1.633.964-.104.045-.683.261-.743.261-.044,0-.407-.133-.421-.15-.031-.038-.002-.27-.042-.391-.102-.314-.688-.914-.036-.862-.032-.088-.113-.125-.132-.233-.014-.082-.077-.872-.07-.918.008-.051.15-.046.174-.172.019-.099-.036-.192-.024-.29.021-.167.164-.322.052-.581l.132.067-.066-.599h.266c.063-.199-.224-.299-.252-.345-.076-.128.244-.76.258-.951.025-.355-.088-1.158-.354-1.414-.063-.061-.216-.053-.241-.093-.036-.057.021-.198-.019-.245-.023-.027-.155-.01-.223-.076-.065-.062-.057-.2-.118-.25-.044-.036-.156-.01-.213-.086-.037-.05-.019-.162-.045-.186-.083-.074-1.077-.317-1.268-.361-.458-.107-.111-.025-.294.02-.283.069-.829-.263-.976-.255-.104.006-.4.485-.495-.066-.018-.107-.281.156-.321.266ZM276.19,79.652c.109.033.347-.09.277.409-.019.135-.084.226-.15.306-.037-.24-.079-.479-.127-.715ZM266.395,59.924c.73.423,1.561.672,2.37.912.505.15,1.016.283,1.529.409-.207,1.05-.424,2.102-.721,3.13l-1.616.84c-.045-.012-.186-.148-.341-.316.17-.657.049-1.807-.059-2.382-.052-.278-.335-.745-.397-1.065-.147-.091-.308-.189-.488-.167-.023.008-.065.022-.117.039-.066-.455-.213-1.353-.16-1.4ZM257.312,69.232c-.163.564-.203,1.129-.347,1.693l-10.968,5.7c.097-.257.236-.516.255-.798.032-.465-.169-1.043-.048-1.513.123-.48,1.168-1.695,1.49-2.179.582-.874,1.282-1.891,1.707-2.848.096-.216.471-1.173.482-1.534h0c.019-.315.48-.754.48-.754.732-.661.984-1.631,1.539-2.414.871.274,1.783.453,2.694.512.503.998,1.778,1.796,2.798,2.266.206.095.419.217.651.21-.32.509-.564,1.078-.732,1.658ZM273.51,73.91c-.628-.739-1.499-1.439-2.262-2.152.131-.191.337-.708.428-.89.988-1.982,1.843-4.056,2.691-6.132.246.551.806.799,1.079,1.306-.129-.036-.482.304-.551.404-.408.594-.253,2.287-.421,3.118-.119.588-.694,1.178-.746,1.745-.049.543.221,2.166.412,2.701.031.086.483,1.057.605.892.074-1.096-.477-2.417.708-3.085.276-.156.664-.18.889-.386.387-.356.358-1.135.635-1.583.046-.075.069-.067.15-.036.02.008.186.136.343.26-.036.131-.063.24-.065.291-.006.145.114.314.135.521.058.587-.212,1.17-.136,1.765.14-.063.111-.289.197-.434.035-.059.123-.106.168-.164.049.28-.482,1.784-.366,1.927.102.126.251-.253.267-.264.08-.055.142-.012.135.1-.017.274-.253.366-.335.531-.088.175.221-.036.202.266-.019.298-.247.253-.27.345-.08.309.142.298.134.319-.034.082-.321.268-.321.332,0,.052.19.161.159.305-.045.214-.465.402-.591.523-.07.067-.012.235-.176.204v.064c.487.105-.297.694-.399.966.932-.063.187.3.134.533-.041.182.186.042.201.132.01.061-.053.639-.071.729-.036.178-.245.28-.306.46-.434-2.07-1.262-3.98-2.653-5.617ZM304.694,103.569l-.397-1.53c-.007-.244-.433-.448-.441-.563-.016-.221.179-.471.207-.731.081-.731-.08-1.557-.069-2.258.01-.625.278-1.383.196-1.992-.122-.915-1.184-1.553-1.058-2.566.511-.062.419.027.625.307.248.338.468.812.802,1.092.217.183.537.24.726.405.231.202.46,1.153.558,1.503.354,1.268.584,2.631.961,3.893.055.184.372.298.387.36.244.986-1.875,1.677-2.496,2.08ZM312.311,99.743c.044.213.224.484.257.741.053.421.033,1.335-.585,1.084-.038-1.248.023-2.502-.005-3.752-.016-.694-.196-1.736-.139-2.394.067-.78.786.224,1.062.409-.129.364-.324.715-.429,1.089-.22.778-.326,2.03-.16,2.824ZM317.763,93.959c-.653.004-1.461-.106-2.1-.032-.276.032-.52.186-.864.166-.395-.023-.471-.236-.731-.431-.518-.387-1.6-1.17-2.023-1.633-.434-.474-.261-.857-.343-1.383-.127-.822-.367-1.639-.52-2.457.063-.4.341-.725.491-1.109.242-.618.413-1.404.672-1.988.071-.16.398-.569.551-.327.022.034.026.663.013.758-.113.811-.215,1.692-.269,2.524-.058.902-.109,2.229.094,3.095.063.27.19.362.469.331l.034-.202c.417.348.15,1.134.317,1.577.178.473.656.544,1.11.554.906.02,1.9-.131,2.794-.198.316-.023.632-.123.965-.072.116.442-.455.478-.662.828ZM324.346,38.775c-.02-.018-.26.025-.355-.028-.073-.04-.046-.146-.086-.193-.153-.178-.351-.16-.178-.527.008-.017.241-.281.26-.283.298-.033.328.23.448.378.35.437.19.357.311.785.053.189.224.346.195.569-.482.005-.498-.616-.594-.701ZM335.797,62.234c.209-.167.544-.099.749-.216.362-.206.676-1.091,1.159-1.267.063.307-.159.678-.131.958.023.241.396.647.389.726-.012.14-.224.248-.256.412-.065.34.229,1.039-.021,1.342-.077.094-.419.206-.546.206-.52,0-1.733-.875-1.703-1.416.007-.133.257-.663.359-.745ZM337.964,75.41s0,0,0,0c-.186-.076-.501.113-.555.102-.196-.042.08-.346-.232-.438-.316-.094-.264.28-.433.238-.233-.486-.266-.316-.65-.414-.736-.188-1.45-.385-2.229-.206-.044.009-.062.034-.081.071-.077.149-.262.907-.317,1.13-.035.142.002.292-.031.435-.053.227-.172.478-.217.713-.291-.359-.504-.765-.664-1.198-.147-.399-.272-1.35-.402-1.594-.08-.15-.933-.791-1.157-1.051-.274-.318-.933-1.194-.768-1.605.15-.373,1.051-.713.725-1.13-.721-.394-1.385-.882-2.096-1.294-.165-.095-.293-.216-.329-.237-.037-.022-.137.122-.268.1-.165-.028-.796-.362-.595-.566.024-.024.613-.101.675-.097.644.036,1.679.3,2.335.445.623.137,1.244.328,1.872.456.129.087.259.719.288.909.029.192.086.673.086.85-.003.697-.299.631.093,1.399.299.585.932,1.07,1.63,1.128.222.019.412-.113.633-.106.338.011.735.303,1.132.274.163-.012.269-.119.403-.134.295-.034.625.02.926.003,0,0,0,0,0,0h0c.03-.001.482-.013.425.432-.043.161-.053.351-.059.46-.02.353.021.51.084.632,0,0,.135.258-.226.297ZM350.919,89.689c-.232.892-.622,1.784-1.032,2.625-.041.084-.11.161-.171.246l-.406.317c-.268-.039-.216.212-.272.315-.246.446-.396.741-.6,1.198-.088.196-.202.298-.262.446h0s0,0,0,0c-.039.096-.056.212-.028.387.002.011.005.024.01.038-.039.122-.112.26-.246.4-.089.062-.225.198-.356.362-.432.44-.968,1.014-.965,1.335h0c-.077.265.109.772.042.94-.016.041-.427.537-.482.588-.146.133-.674.383-.716.448,0,0-1.402-1.642-1.48-2.046-.031-.491-.329-.944-.394-1.402-.105-.729-.236-1.86-.27-2.588-.023-.485.101-.958.068-1.465-.077-1.171-.461-1.969-.736-3.042-.014-.054-.117-.044-.129-.093-.038-.16-.022-.854-.004-1.054.019-.219.151-.921.335-.999.049-.02.614.332.704.397.069.05.116.171.277.188.141.165.054,1.665.089,2.005.086.827.459,1.753,1.196,2.195.405.243.966.225,1.34.389.313.137.781.785,1.248.549.066-.033.474-.558.511-.567.351-.087.739.137.975.115.096-.009.687-.279.769-.351.369-.323.603-1.614.668-2.124.028-.222-.115-.819.234-.805.033.001.225.116.235.155.029.113-.112.74-.153.899ZM358.169,76.062c-.192.031-.574.246-.743.122-.038-.028-.066-.701-.148-.929-.204-.563-.517-.714-.824-1.104-.175-.222-.177-1.164-.135-1.468.022-.16.134-.238.134-.385.001-.372-.277-1.05-.327-1.41-.132-.958.378-2.129.579-3.071.077-.361.245-.977.22-1.318-.031-.425-.679-.872-.676-1.194,0-.136.272-.798.321-1.015.167-.733.218-1.641.615-2.257.041-.064.062-.143.068-.218.097-.012.119.174.126.238.234,2.187.332,4.766.886,6.893.029.112.191.538.248.616.266.358.715.185.955.907.312.94.458,1.97.659,2.932.138.661.406,1.403.446,2.087.005.08-.021.314-.072.346-.078.05-.644-.008-.82.011-.474.05-1.036.14-1.512.217ZM358.783,77.008c.14-.368.453-.195.763-.234.255-.032.938-.232,1.118-.123.236.144.231,1.094.312,1.387-.154.154-1.857-.967-2.193-1.03ZM368.459,87.948c-.468.622-1.584,1.488-2.283,1.839-.157.079-1.121.483-1.211.418.249-.377.371-.474.329-.96-.01-.112-.12-.21-.1-.308.042-.204.448-.393.562-.583.228-.382.401-1.103.473-1.54.15-.157,1.008.547,1.195.633.388.178.787.093,1.131.267.027.115-.04.159-.096.234ZM371.767,84.414l-6.791-4.026c-.025-.814.265-1.655.321-2.451.038-.532-.076-1.229.005-1.724.022-.136.085-.253.196-.336l5.544-.815c.284.102.299.53.436.686.104.119.637.334.795.469.116.099.332.393.434.53,1.02,1.373,1.146,2.886.805,4.551-.215,1.049-.536,1.403-1.098,2.226-.199.291-.315.689-.646.89ZM376.389,90.535c-.056-.025-.074-.112-.137-.15-.718-.442-1.792-1.066-2.177-1.809-.034-.065-.144-.112-.002-.199.197-.121.848.273,1.04.392.025.015.047.09.107.129.567.362,1.112.748,1.678,1.112.266.26-.15.689-.51.527Z"/>
</svg>