<?xml version="1.0" encoding="UTF-8"?>
<svg id="Adversary" xmlns="http://www.w3.org/2000/svg" width="8.139in" height="1.714in" version="1.1" viewBox="0 0 585.997 123.429">
  <!-- Generator: Adobe Illustrator 29.2.1, SVG Export Plug-In . SVG Version: 2.1.0 Build 116)  -->
  <g>
    <path d="M282.74,105.56c-2.891-.872-5.524-2.997-7.672-5.274H69.429v-7.714h193.235c-.33-1.001-.572-2.951,1.366-4.999.367-.443.98-1.775,1.257-2.715H69.429v-7.714h189.934c-.965-.75-1.393-1.676-1.573-2.279-.067-.226-.115-.446-.147-.661-2.973-.636-3.845-2.547-4.095-3.459-.071-.26-.162-.733-.141-1.316H61.714v30.857h-23.143v-7.714h15.429v-23.143h-23.143v15.429h-7.714v-15.429H0v23.143h15.429v7.714H0v23.143h23.143v-15.429h263.916c-1.863-1.48-3.956-2.304-4.319-2.44ZM38.571,77.143h7.714v7.714h-7.714v-7.714ZM15.429,115.714h-7.714v-7.714h7.714v7.714ZM15.429,84.857h-7.714v-7.714h7.714v7.714ZM30.857,100.286h-7.714v-7.714h7.714v7.714Z"/>
    <path d="M585.997,92.571v-23.143h-23.143v15.429h-7.714v-15.429h-23.143v23.143h15.429v7.714h-23.143v-30.857h-189.704c-.044.178-.091.357-.158.531-.693,1.801-2.478,3.011-4.442,3.011-.309,0-.618-.031-.92-.093-.327.148-.691.291-1.078.423.144,1.533-.437,2.648-.857,3.236-.157.22-.338.418-.529.606h189.974v7.714h-192.778c-.207.801-.579,1.394-.869,1.75-.205.252-.436.479-.688.679.212.876.422,1.799.604,2.676.19.916.212,1.794.092,2.61h193.638v7.714h-203.491c-3.401,4.063-6.911,5.473-7.423,5.661-.018.007-1.453.578-3.329,2.053h260.529v15.429h23.143v-23.143h-15.429v-7.714h15.429ZM570.568,77.143h7.714v7.714h-7.714v-7.714ZM547.425,84.857h-7.714v-7.714h7.714v7.714ZM562.854,100.286h-7.714v-7.714h7.714v7.714ZM578.282,108v7.714h-7.714v-7.714h7.714Z"/>
  </g>
  <g>
    <path d="M294.482,44.206c-3.135,0-5.676,2.541-5.676,5.676s2.541,5.676,5.676,5.676,5.676-2.541,5.676-5.676-2.541-5.676-5.676-5.676ZM292.573,46.545c-.344.144-1.031.665-1.319,1.086-.288.421-.676.344-.776.266-.1-.078-.632-.466.776-1.53.63-.476,1.131-.665,1.519-.466.388.2.144.499-.2.643Z"/>
    <path d="M337.875,51.206s-2.004.138-4.422,2.533c0,0-1.451,2.064-3.915.261-2.464-1.804-6.379-3.116-6.379-3.116,0,0-.806-.138.115-.99s3.869-4.399,5.228-7.024c0,0,.852-1.382,2.326-1.543,1.474-.161,1.658-.207,2.257.668s3.408,2.925,6.172.115c2.764-2.81-1.958-6.794-5.596-6.564-3.639.23-6.748.345-10.225,5.527,0,0-3.639,4.514-8.06,2.81,0,0-2.211-1.059-.092-1.911s8.13-3.316,8.13-3.316c0,0,4.974-2.073,5.642-7.093,0,0,.184-3.04,1.382-5.573s-.484-5.642-2.004-6.011c-1.52-.368-3.616.299-4.122,3.547-.507,3.247-1.105,8.13-4.721,10.087s-6.471,1.451-6.471,1.451c0,0-.553.138-.276-.944.276-1.082,1.911-6.932-.921-11.63,0,0-1.036-2.856-5.896-5.067,0,0-1.635-.228-1.773-2.648-.103-1.802-.112-1.947-.11-1.903-.022-.436-.186-3.57-.351-4.209-.177-.687.02-2.003.275-2.474.255-.471.746-3.652-2.042-5.38s-5.204-.511-6.401,2.062c0,0-.569,1.689,1.178,3.319,1.748,1.63,1.846,2.376,1.63,3.692-.216,1.316-.118,3.338-.118,3.338,0,0,.059,2.14-1.512,2.415-1.571.275-2.867-2.062-3.456-3.711-.589-1.649-3.574-3.849-6.539-1.767-2.965,2.081,1.865,7.658,3.456,8.502,1.591.844,5.046,1.944,5.046,1.944,0,0,1.591.432.805,1.257-.785.825-4.006,3.024-5.655,4.124-1.649,1.1-2.788,3.201-3.26,3.966-.471.766-1.296-.393-1.964-1.178-.668-.785-4.752-4.398-11.526-5.655,0,0-5.046-.707-3.731-6.028,1.316-5.321-2.14-12.979-9.131-11.016,0,0-2.317,1.394-.982,3.338,0,0,.766.884.825,1.728s.785,1.708,1.532,1.767c.746.059,3.161.353,2.631,2.985-.53,2.631-2.199,8.777,3.377,11.625,5.577,2.847,10.23,4.909,11.232,8.483s.314,3.593-.923,2.926c-1.237-.668-1.865-1.021-2.023-3.103,0,0-.877-4.316-4.793-5.174,0,0-3.97-.376-5.606-.241s-5.097,3.442-1.153,8.856c0,0,.832,1.283,2.87,2.973,0,0,1.473.754-1.398.754,0,0-.574-.09-1.812.251-1.238.341-2.602-.305-4.019-2.907-1.418-2.602-4.253-3.768-6.657-.664,0,0-.169.229-.252.452-.084.223-1.352.081-1.974-4.088-.622-4.168-5.896-4.491-7.231-1.313,0,0-.898,2.487,1.128,3.892,2.027,1.405,4.836,4.537,4.836,4.537,0,0,4.076,4.191,6.333,6.08,2.257,1.888,3.639,3.316,8.544,4.79,0,0,3.27.645-.783,4.007,0,0-2.027,2.027-4.076,3.178-2.05,1.151-3.408-.691-4.191-1.612-.783-.921-2.787-3.293-1.981-7.83,0,0,.23-2.395-1.796-2.994-2.027-.599-2.741-.23-4.238,1.911-1.497,2.142.53,3.247.53,3.247,0,0,1.727,1.658,1.958,3.731.23,2.073,2.994,5.734,7.139,8.014,0,0,2.902,1.52.368,3.017-2.533,1.497,1.175,1.911,2.395,1.658,1.221-.253,2.948.438,2.096,1.474-.852,1.036-1.842,1.981-.461,2.395,0,0,.829.207,1.105,1.105.276.898,1.428,1.589,2.833,1.405,1.405-.184,3.708-.161,3.04,2.096-.668,2.257-.714,3.201,0,4.537.714,1.336-1.105,5.665-2.303,6.932-1.198,1.267-.184,1.635,1.382.944,1.566-.691,2.694-1.082,2.694-1.082,0,0,1.198-.806,1.981.668.783,1.474,5.734,9.442,10.962,10.939,0,0,4.56,1.566,7.508,4.951,0,0,3.132,3.04,6.471-.207,3.339-3.247,6.305-4.307,6.305-4.307,0,0,5.325-1.958,8.711-9.166,0,0,.276-1.336,1.543-.622,0,0,.714.392,1.059-.276.345-.668,1.336-.207,1.981.599.645.806,1.773.046,1.359-1.958-.415-2.004-1.013-4.376-1.405-5.688s1.494-.829,1.494-.829c0,0,1.154.299.901-.921-.253-1.221-.599-2.418.207-3.086.806-.668-.368-2.372-.368-2.372,0,0-.701-1.175.651-1.151,1.353.023,2.159.714,2.066-.898-.092-1.612.668-1.267.668-1.267,0,0,1.175-.023.783-1.244-.392-1.221-.645-1.727-.921-2.28-.276-.553.138-1.128,1.29-1.082,1.152.046,2.856-.53,3.478-.898.622-.368,1.428-.392,1.958-.138.53.253,1.451-.415.737-1.059-.714-.645-6.633-5.09-8.475-8.82,0,0-.875-1.935-.599-3.57,0,0,.023-.829,1.105-.138,1.082.691,3.961,3.04,8.498,3.04s8.705.184,10.248-2.303c1.543-2.487-1.013-4.859-3.362-4.859ZM307.141,62.254c.236.196,1.283,1.034,1.283,1.034,0,0,.471.367.105.864-.367.497-.223.969-.223.969,0,0,.17.262.668-.419.497-.681.785-1.156,1.165-1.023.38.133.445,1.442-.092,3.785,0,0-.118,1.191-1.545,2.461,0,0-.524.314-.72-.157-.196-.471.105-.825.105-.825,0,0,.393-.72.118-1.047-.275-.327-1.964,2.132-1.964,2.132,0,0-.131.198-.314.172-.183-.026-.668-1.466-.406-2.893.262-1.427.563-1.951.563-1.951,0,0,.524-.733.144-1.492-.38-.759.079-1.008.079-1.008l.484-.497s.314-.301.55-.105ZM285.394,44.989c3.02-3.356,10.85-5.117,16.051-1.426s5.145,8.668,4.362,10.067c-.783,1.398-5.145,2.601-10.989,2.601,0,0-6.655-.084-10.374-1.482-3.719-1.398-2.069-6.403.951-9.759ZM301.028,65.632c-.065-.458-.432-.628-.733-.655-.301-.026-.262-.301-.262-.301v-1.466c0-.602.497-.301.929-.013.432.288,1.06-.497,1.428-.995.367-.497,1.243-.772,1.701-.419s1.217.707,0,4.542c-1.217,3.836-2.828,4.307-2.828,4.307,0,0-.655.196-.38-1.021.275-1.217.209-3.521.144-3.98ZM295.608,65.37s-.589-.969.249-1.217c.838-.249,1.532-.969,1.532-.969,0,0,.364-.259.838-.209,0,0,1.702-.563,1.231,4.11,0,0-.314,2.788-1.375,5.066,0,0-.223.628-.602.628s-.746-.183-.72-1.532c.026-1.348-.079-2.788-1.152-5.878ZM277.749,70.404c0-.423-.169-.568-.338-.568s-.278.109-.278.399.085.629-.411.629-1.692-.737-1.366-6.503c0,0-.097-1.003.919-1.003s1.499.81,1.632,1.39c.133.58.537,1.438.462.363-.075-1.076.409-1.68.832-1.692.423-.012.931.085,1.39,1.04.459.955.846,1.172.846,1.172,0,0,.241.121,0,.538,0,0-.931.804-.822,6.165,0,0,.109.888-.496.961-.604.073-.677-.955-.737-1.281-.06-.326-.133-.943-.749-.931s-.882-.254-.882-.677ZM282.358,95.372s-1.159.255-1.551-.903c-.393-1.159.039-1.276-.884-1.944s-2.081-2.494-.687-7.697c0,0,.275-1.08.687-1.08.903,0,.943,4.614.943,4.614,0,0-.059,1.846.412.923.471-.923,1.041-2.042,1.041-2.042,0,0,.157-.393.609-.275.452.118.432,1.021.255,1.689-.177.668-.196,2.631.236,4.595.432,1.964-1.06,2.121-1.06,2.121ZM283.297,69.159c-.653-.931-1.414-3.783-1.596-4.775-.181-.991-.073-1.402.616-1.402s1.68.544,1.68.544c.429.207.226.52.226.52,0,0-.274.653-.057,1.874s-.218,4.17-.87,3.239ZM287.012,98.926c-.314.196-1.296.766-2.18-.707-.884-1.473-1.257-2.278-.727-4.104,0,0,.339-1.161.349-1.604s.136-1.078.377-1.106c.844-.098,2.69,3.476,2.278,4.988,0,0-.333.668.059,1.375s.157.962-.157,1.159ZM290.83,99.537c-.327.079-2.003-.196-2.317-2.095-.314-1.898.563-5.459,1.309-5.694.417-.132.943.969,1.741,4.425.799,3.456-.406,3.286-.733,3.364ZM292.713,73.776c-.459-.483-2.949-3.239-3.312-6.334,0,0-.145-.665-.629-.665s-.423,1.088-.423,1.088c0,0-.024,2.635-.085,3.409-.06.774-.218,1.148-.616,1.148s-1.934-1.015-2.393-4.932c-.459-3.916.483-4.811,1.293-4.811s1.185.363,1.342.665.278,1.185.882,1.185c.691,0,.749-1.088.749-1.088,0,0,.145-.762,1.148-.762s3.675.326,3.348,4.001c-.326,3.675-.344,4.376.027,6.515s-.874,1.064-1.333.58ZM294.888,98.921c-.641-.484-1.06-.602-.681-1.885.38-1.283,1.204-3.901,1.217-4.163,0,0,.063-.231.144-.223.104.012,1.715,2.265,2.448,5.066.733,2.801-2.487,1.689-3.129,1.204ZM305.766,97.324s-.524.995-1.388,1.1-.707-1.152-.537-1.532c.17-.38.655-.956-.602-1.951,0,0-.288-.236-.249.301.039.537.563,3.024-1.204,3.574-1.767.55-2.369-.196-2.33-1.073.039-.877-.026-1.623.537-3.705,0,0,.511-1.754.445-2.435-.065-.681.615-.995.995-.445.38.55,1.021,1.584,1.204,2.16.183.576.537.524.851.118s1.126-1.977,1.204-2.553c0,0,.034-.171.131-.183.131-.016,2.239,2.972.943,6.624ZM309.476,93.678c-.747.43-.555.521-.837.487s-.419.226-.419.226c0,0-.272.34-.441,0-.17-.34-.849-1.505-.849-1.505,0,0-.521-.804,0-1.675.521-.871.679-2.773.679-2.773,0,0,.294-1.245.566-1.573,0,0,.065-.086.192-.079.475.027,1.63,2.682,1.698,4.934,0,0,.158,1.528-.588,1.958ZM312.404,68.276c-.236,1.348-1.42,3.351-1.967,3.639,0,0-.219.223-.612.223s-.17-1.296-.17-1.296l1.663-6.27s.119-.556.327-.497c.759.212.995,2.854.759,4.202Z"/>
  </g>
</svg>