<?xml version="1.0" encoding="UTF-8"?>
<svg id="Characters" xmlns="http://www.w3.org/2000/svg" width="8.139in" height="1.714in" version="1.1" viewBox="0 0 585.997 123.429">
  <!-- Generator: Adobe Illustrator 29.2.1, SVG Export Plug-In . SVG Version: 2.1.0 Build 116)  -->
  <g>
    <path d="M296.222,73.616c.029-.031.059-.056.088-.089-.04.044-.09.095-.136.139.002-.002.02-.02.048-.05-1.132,1.221-2.381,1.488-3.241,1.488-.339,0-.677-.041-1.006-.122-.814-.2-1.545-.651-2.089-1.29l-1.917-2.249c.013,1.93.004,3.827-.021,5.699h10.083c-.03-1.837-.048-3.682-.045-5.54-.837,1.018-1.575,1.813-1.765,2.014Z"/>
    <path d="M298.702,92.571c-.181-2.535-.331-5.105-.442-7.714h-10.542c-.115,2.616-.269,5.186-.465,7.714h11.449Z"/>
    <path d="M585.997,92.571v-23.143h-23.143v15.429h-7.714v-15.429h-23.143v23.143h15.429v7.714h-23.143v-30.857h-199.607l-.003,7.714h191.896v7.714h-191.899v1.165c0,.502-.096,1-.28,1.467-.683,1.729-1.455,3.425-2.31,5.082h194.489v7.714h-199.276c-2.019,2.746-4.294,5.326-6.788,7.714h252.35v15.429h23.143v-23.143h-15.429v-7.714h15.429ZM570.568,77.143h7.714v7.714h-7.714v-7.714ZM547.425,84.857h-7.714v-7.714h7.714v7.714ZM562.854,100.286h-7.714v-7.714h7.714v7.714ZM578.282,108v7.714h-7.714v-7.714h7.714Z"/>
    <path d="M268.692,100.286H69.429v-7.714h194.565c-.871-1.711-1.679-3.457-2.38-5.249-.182-.464-.275-.958-.275-1.457v-1.009H69.429v-7.714h191.905l-.004-7.714H61.714v30.857h-23.143v-7.714h15.429v-23.143h-23.143v15.429h-7.714v-15.429H0v23.143h15.429v7.714H0v23.143h23.143v-15.429h252.183c-2.425-2.364-4.645-4.948-6.634-7.714ZM38.571,77.143h7.714v7.714h-7.714v-7.714ZM15.429,115.714h-7.714v-7.714h7.714v7.714ZM15.429,84.857h-7.714v-7.714h7.714v7.714ZM30.857,100.286h-7.714v-7.714h7.714v7.714Z"/>
    <path d="M300.289,107.954c-.347-2.492-.65-5.057-.919-7.669h-12.862c-.229,1.95-.477,3.885-.721,5.789l-.246,1.926h14.755c-.002-.016-.006-.029-.008-.046Z"/>
  </g>
  <path d="M268.455,47.332l9.307,6.562.236.404-2.818,28.527,5.473-28.144c.578.246,2.771,1.119,2.939,1.671.118,1.97.109,3.947.179,5.919.375,10.564.274,21.015-.62,31.577-.4,4.73-1.049,9.45-1.642,14.153-.316,0-1.619-1.181-1.955-1.485-6.205-5.607-11.167-12.863-14.217-20.651l-.013-28.913c-.145-.761-2.338-2.125-2.811-2.818-.549-.803-.999-5.903-1.093-7.194-.801-11.054.885-22.685,7.751-31.647C275.054,7.614,283.891,2.738,293.056,0c9.147,2.769,17.909,7.615,23.778,15.292,8.237,10.776,9.052,25.515,6.93,38.487-.884,1.236-2.318,2.03-3.083,3.328l-.013,28.913c-3.382,8.566-9.077,16.156-16.174,21.974-.241-.149-.204-.31-.236-.541-2.165-15.514-2.646-32.059-2.023-47.686.034-.862-.179-2.743.024-3.416.152-.503,2.647-1.479,3.253-1.671l5.315,27.83-2.948-28.35,9.516-6.83v-5.785l-19.363,8.937-1.063,15.59c-.162.706-2.917,4.082-3.572,4.714-.121.117-.27.358-.467.31l-3.96-4.645-.891-15.839-19.625-9.067v5.785ZM299.413,42.172v-3.362l-6.474-6.171-6.347,6.171v3.362l6.353-4.993,6.468,4.993Z"/>
</svg>