<?xml version="1.0" encoding="UTF-8"?>
<svg id="Party" xmlns="http://www.w3.org/2000/svg" width="8.139in" height="1.714in" version="1.1" viewBox="0 0 585.997 123.429">
  <!-- Generator: Adobe Illustrator 29.2.1, SVG Export Plug-In . SVG Version: 2.1.0 Build 116)  -->
  <g>
    <path d="M231.457,91.886c-.213-.362-.456-.847-.617-1.434-.435-1.589-.675-3.301-.907-4.956-.03-.216-.06-.427-.09-.638h-11.286c.159.338.325.685.501,1.052.456.949.972,2.025,1.494,3.242.572,1.336,1.047,2.368,1.556,3.421h9.346c.002-.248.004-.481.004-.685Z"/>
    <path d="M370.134,84.857c-.22,1.665-.818,3.074-1.33,4.267-.262.611-.51,1.188-.66,1.699-.158.538-.286,1.133-.41,1.748h4.486c-.349-.693-.655-1.351-.855-1.942-.749-2.204-.968-4.069-.902-5.773h-.328Z"/>
    <path d="M347.244,108h6.891c-.332-.457-.609-.993-.756-1.651-.086-.382-.115-.775-.087-1.166.039-.543.164-1.18.4-2.351.108-.536.285-1.414.412-2.161-.076-.126-.132-.257-.193-.386h-6.537c.04.119.081.242.123.365.552,1.628,1.307,3.857.384,6.145-.158.391-.379.799-.635,1.204Z"/>
    <path d="M375.375,108c-.658-.644-.984-1.349-1.134-1.792-.416-1.229-.286-2.528-.021-4.718.044-.359.101-.829.138-1.204h-5.929c1.207.288,3.776,1.111,4.848,4.197.449,1.292.533,2.467.271,3.518h1.826Z"/>
    <path d="M316.68,108h18.172c-.928-1.72-.665-3.564-.555-4.311.011-.077.024-.153.033-.227-.023-.129-.069-.334-.101-.48-.15-.675-.336-1.516-.307-2.467.002-.076.012-.152.016-.229h-18.138c-.012.175-.029.342-.054.487.156.436.351.971.496,1.358,1.853,2.05,1.259,4.172.902,5.016-.13.308-.289.588-.465.852Z"/>
    <path d="M246.306,108c-.63-.558-1.052-1.167-1.285-1.514-.018-.026-.035-.053-.052-.078-.029-.026-.059-.051-.088-.077-.419-.37-.941-.832-1.347-1.546-.475-.835-.618-1.619-.671-2.125-.002-.005-.005-.01-.007-.015-.088-.032-.173-.065-.256-.1.355,1.381.597,3.585-1.008,5.455h4.716Z"/>
    <path d="M299.196,107.653c-.761-1.085-.935-2.476-.467-3.713.017-.101.035-.332.047-.505.018-.242.038-.484.065-.729-.246-.724-.295-1.468-.146-2.225.014-.069.037-.129.053-.195h-44.309c-.395.526-.868.937-1.358,1.25.739,1.004,1.376,2.447.962,4.284-.188.833-.638,1.585-1.283,2.144-.015.013-.03.023-.045.036h46.746c-.091-.116-.187-.233-.267-.347Z"/>
    <path d="M204.173,107.448c-.811-.111-1.627-.383-2.398-.802-.713-.387-1.211-.861-1.534-1.206-3.449-1.424-4.16-3.576-4.143-5.154h-4.82c-1.042.239-1.904.494-2.5.753-.538.465-1.796,1.552-3.714,1.552-.745,0-1.478-.166-2.178-.494-.465-.218-1.384-.923-2.152-1.812h-111.306v-7.714h111.776c.344-.529.713-1.07,1.106-1.641.224-.325.532-.771.613-.907,1.202-2.068,2.126-3.528,3.198-5.166h-116.694v-7.714h120.343c.004-.011.007-.021.011-.031.775-2.268,1.635-5.859,1.791-7.683H61.714v30.857h-23.143v-7.714h15.429v-23.143h-23.143v15.429h-7.714v-15.429H0v23.143h15.429v7.714H0v23.143h23.143v-15.429h181.436c-.146-.182-.292-.364-.405-.552ZM38.571,77.143h7.714v7.714h-7.714v-7.714ZM15.429,115.714h-7.714v-7.714h7.714v7.714ZM15.429,84.857h-7.714v-7.714h7.714v7.714ZM30.857,100.286h-7.714v-7.714h7.714v7.714Z"/>
    <path d="M585.997,92.571v-23.143h-23.143v15.429h-7.714v-15.429h-23.143v23.143h15.429v7.714h-23.143v-30.857h-128.58c-.128,1.411-.429,2.435-1.091,3.297-1.587,2.066-4.263,2.193-6.85,2.316-.355.017-.839.04-1.173.067-.168.697-.327,1.373-.468,2.034h130.449v7.714h-129.67c.133,1.037-.018,2.039-.141,2.811-.023.142-.046.275-.06.387-.023.928.021,2.03.068,3.196.017.438.035.879.049,1.321h129.753v7.714h-120.466c.744.772,1.335,1.787,1.625,3.146.315,1.479.014,2.921-.848,4.06-.144.191-.301.351-.459.508h166.434v15.429h23.143v-23.143h-15.429v-7.714h15.429ZM570.568,77.143h7.714v7.714h-7.714v-7.714ZM547.425,84.857h-7.714v-7.714h7.714v7.714ZM562.854,100.286h-7.714v-7.714h7.714v7.714ZM578.282,108v7.714h-7.714v-7.714h7.714Z"/>
    <path d="M353.779,90.827c-.152-1.222-.31-2.486-.209-3.686.016-.195.043-.38.077-.556-1.271.773-2.767,1.247-4.547,1.247-.53,0-1.068-.047-1.612-.141-.021.121-.039.231-.056.327.001.02.002.04.003.06.02.381.05.956-.068,1.64-.174,1.011-.484,1.816-.711,2.404-.072.188-.126.332-.167.448h7.472c-.036-.538-.108-1.144-.183-1.744Z"/>
    <path d="M298.325,92.571c-.134-.523-.172-1.065-.091-1.596-.024-.089-.05-.181-.07-.251-.007-.024-.014-.048-.021-.072-1.284-.696-2.022-1.876-2.369-2.43-.02-.031-.039-.063-.058-.095-.215-.159-.413-.338-.59-.534-1.034-.056-1.933-.313-2.695-.77-.523.156-1.123.252-1.806.252-.199,0-.409-.008-.63-.026-1.275-.104-2.265-.487-3.038-1.019-.287.03-.578.045-.87.045-1.577,0-3.017-.45-4.177-1.219h-.825c-.028.036-.054.079-.082.114,0,.047,0,.095-.002.143.379.484.646,1.056.77,1.674.091.453.106.876.083,1.246.371.828.47,1.685.296,2.558-.055.274-.132.525-.225.754.042.368.053.783.001,1.225h16.399Z"/>
    <path d="M329.682,91.617c-.261-2.588,1.361-4.394,2.33-5.473.107-.119.242-.27.359-.406-.011-.198-.03-.411-.053-.624-.734.353-1.49.796-2.314,1.288-.006.025-.012.05-.019.075-.64,2.467-2.713,3.506-3.826,4.065-.119.06-.282.142-.392.201-.286.274-.611.504-.965.683-.91.459-1.848.832-2.804,1.144h7.871c-.1-.344-.157-.666-.187-.955Z"/>
    <path d="M226.537,107.453c-.609-2.003.104-3.923.563-5.107.01-.523.111-1.274.527-2.061h-3.003c-.103.607-.327,1.212-.733,1.788-.375.531-.873.962-1.452,1.257-1.155.588-2.314.656-3.086.656-.281,0-.562-.011-.827-.023l-.223-.009c-.095-.003-.459-.017-.94-.043-.503,1.012-1.445,2.074-3.043,3.128-.06.04-.119.078-.173.114-.022.03-.044.06-.067.09-.143.19-.346.459-.616.756h13.277c-.084-.192-.151-.376-.203-.547Z"/>
    <path d="M262.745,89.317c.01-.024.019-.048.028-.072-1.312.93-2.57,1.138-3.434,1.138-2.578,0-4.247-1.67-5.359-2.807-.2.116-.419.233-.657.34-1.147.52-2.881,1.205-4.886,1.262.074.224.146.448.217.671.07.218.158.491.248.762,1.239.411,2.063,1.251,2.586,1.96h9.466c.083-1.005.516-2.19,1.79-3.254Z"/>
    <path d="M220.232,77.143c.074-1.175.624-2.622,2.357-4.045.658-.54,1.377-.98,2.072-1.405.356-.218.869-.532,1.245-.801-.053-.115-.119-.25-.199-.414-.144-.294-.31-.656-.473-1.049h-6.765c-.015.068-.024.134-.04.203-.311,1.353-.669,2.455-.985,3.427-.498,1.534-.831,2.584-.842,4.085h3.63Z"/>
  </g>
  <path d="M321.444,0c-1.202.964-2.547,2.236-3.535,3.436-1.947,2.364-5.083,6.521-5.682,9.457-.09.443.388,1.004-.414,1.344-.268.114-.582-.118-.921.037-.09.041-1.402,1.13-1.514,1.251-1.15,1.235-2.97,5.225-1.205,6.484.459.327,1.145.085,1.277.207.061.056-.068.396.137.579.415.372,3.306.969,1.837,2.064l-.005.374c.7.717.767.918.424,1.951.079.391.894.229,1.073.49.232.336-.06,1.498.866,1.88-.934.283-.816,1.804.199,1.275.298,1.099-.598,2.805-.308,3.74.139.449,1.924,1.814,2.435,2.481,1.244,1.621,1.214,3.051,2.026,4.454.352.609,1.389,1.159,1.554,1.441.577.982-.201,1.233,1.753,1.436.2-1.054-.859-2.996-.388-3.791.686-1.159.786-3.188,1.031-4.699.45-2.765,1.038-6.442,1.321-9.283.094-.941-.294-3.429-.163-3.88.079-.273.469-.483.604-.784.248-.553.166-1.615.543-2.01.176-.185.63-.25.884-.491.363-.344.698-.945,1.004-1.156.448-.309,2.644-.82,2.824-1.008.258-.498-.447-.341-.393-.487,1.046-1.423,1.92-3.079,3.533-3.931l-.002-.288c-1.264-.48-.713-1.975-.764-2.851-.127-2.201-.529-2.919.969-4.904,1.269-1.682,2.505-2.125,4.614-1.875,1.105.131,2.787,1.876,3.136,2.952.334,1.028.285,4.25.084,5.382-.283,1.593-2.526,2.893-.55,3.921,1.957,1.018,2.663-.109,4.405.112,1.563.198,3.189,3.335,3.777,4.667.225.511.188,1.07.395,1.569.565,1.36,2.954,3.201,4.182,4.066,1.466,1.032,3.097,1.878,4.596,2.866.031-1.511.636-2.984.87-4.436.277-1.726-.385-3.527,1.521-4.763.852-.552,1.882-.51,2.616-.918.616-.343-.511-.304-.39-.781l.782-.591-3.924-3.238c1.04-.059,1.574-.357,2.611.04.632.241,2.92,2.124,3.183,2.114.213-.008.29-.335.214-.599-.148-.513-2.471-2.136-2.858-2.845-.344-.851,2.778-.761,3.341-.587.609.188,1.249,1.19,1.756,1.596.86-.55.714-.052,1.451.271.33-.07,1.229-1.778,1.352-2.194.539-1.812-.29-3.203-.011-4.722.248-1.356,2.03-3.76,3.352-4.309.359-.149,1.048-.292,1.439-.326.644-.056,3.251.053,3.795.28,1.764.736,2.543,4.1,2.107,5.818-.229.901-1.005,2.007-1.099,2.83-.087.757.185,1.262.166,1.913-.019.654-.612,1.653-.582,1.98.035.384.689,1.016.398,1.684l-.782-.295c1.48,1.193,3.714,2.186,5.501,2.943,1.488.63,3.325.52,4.098,2.185.318.685.797,2.783.813,3.524.019.839-.28,1.582-.2,2.541.075.897.565,2.051.565,2.967,0,1.268-1.012,2.99-.975,3.901.038.923,1.097,1.834,1.302,2.841.187.921-.051,1.858.286,2.76.11.081,1.548-1.498,1.754-1.727,2.138-2.367,8.02-8.675,9.214-11.161.73-1.522.276-3.901,2.98-2.731,1.356.587,2.168,1.997,1.758,3.445-.454.111-.323-.087-.449-.248-.926-1.189-1.626-3.218-2.641-.583-.979,2.541-.72,6.734-1.287,9.708-.488,2.56-1.521,8.075-2.546,10.218-2.644,5.532-6.259,8.602-6.819,15.37-.124,1.506.327,7.115-.307,7.94-.73.951-4.918.602-6.175.989-.046-.282.346-.274.548-.33,2.007-.56,3.894-.078,3.78-2.914-.078-1.953-.154-4.347-.425-6.254-.038-.264-.113-.699-.271-.905-1.517.98-2.597,3.19-4.519,1.575l-.298.489.594,6.669c-.074.858-1.166.518-1.345,1.016-.175.488-.172,1.604-.318,2.235-.492,2.136-1.126,4.387-1.285,6.57-.119,1.64.068,3.426.026,5.082.124.438.864.222,1.069.502.366.499-.101,2.196-.12,2.853-.079,2.711.347,6.314.024,8.858-.055.436-.768.131-.185,1.139.175.303,3.664,3.39,3.95,3.51,1.984.835,6.659-.229,7.325,2.894.282,1.322-1.255,1.306-2.173,1.376-3.037.231-6.027-.361-9.031-.408-.897-.014-4.223.745-4.58-.309-.251-.74.397-4.033.367-5.279-.026-1.061-.211-3.286-.409-4.303-.23-1.183-2.321-4.483-2.837-6-1.199-3.53-.691-5.674.196-9.028.927-3.506.582-3.936.481-7.358-.051-1.737.131-3.593.005-5.307-.043-.581-.534-3.913-.894-4.005-.792.283-1.942.16-2.689.416-.972.333-3.18,5.186-3.494,6.324-.395,1.432-.449,2.966-.875,4.427-.544,1.865-1.897,3.689-2.038,5.624-.079,1.084.299,1.767.367,2.725.17,2.396-1.252,4.314-1.905,6.532-.338,1.151-.55,2.363-.779,3.541-.19.979-.206,2.901-.488,3.641-.115.301-.541.265-.571.449-.018.111.244,2.014.303,2.237.127.48,1.715,3.421,2.067,3.824.865.992,1.398.51,2.411.731,1.101.24,1.863.559,2.251,1.676.895,2.575-1.336,1.507-2.892,2.205h-6.284c-.459-.167-.454-.744-.689-.976-.515-.509-2.2-.87-2.354-1.553.074-1.03,1.412-6.17.825-6.657-.106-.087-.409.019-.546-.163-.352-.468.371-4.166.416-5.076.1-1.994-.554-4.511-.42-6.098.053-.629.515-.71.606-1.178.166-.857-.073-2.179.006-3.136.247-3.005,2.167-4.501,2.684-7.331.383-2.097.2-3.473.241-5.436.021-1.035.394-2.145.213-3.24-1.346,1.923-2.729,4.203-3.803,6.308-2.108,4.132-4.137,12.316-10.584,9.946-.827-.304-1.366-.904-1.974-1.171-.201-.088-.239-.272-.427.035-.304.497-.883,4.303-1.056,5.228-.094.502.05,1.042-.035,1.536-.286,1.657-1.223,2.567-1.016,4.568.237,2.292.369,4.708.885,6.975.325,1.425,1.394,3.432.875,4.717-.347.861-1.369,2.026-2.302,2.223-.32.068-2.703-.697-3.024-.919-1.152-.796-.492-2.184-.507-3.207-.012-.816-.444-1.907-.419-2.761.031-1.017.554-2.716.617-3.736.05-.804-.402-1.317-.405-1.954-.002-.375.512-2.7.394-2.851-1.42.978-2.137,1.838-3.826.588-3.066-2.272,1.582-4.013,1.677-6.192.046-1.064-.168-2.992-.5-4.017-.236-.726-.761-1.441-1.008-2.177-3.237.224-5.695,1.983-8.378,3.54-.474.379-.245,1.125-.378,1.637-.312,1.201-2.356,1.505-3.115,2.383-2.943,1.486-6.131,1.976-9.414,1.578-.229.163-.171.312-.152.54.063.784,1.205,4.967.941,5.261-.79-.351-1.696-.43-2.49-.748-.656-.263-1.191-.865-1.537-1.017-.406-.179-.591,1.328-.298,1.479l.799.195-.206,2.448-.586-.195c.036.745.225,1.333.798,1.852.255.231.857.298.949.631.076.277-.241.766-.144,1.296.033.182,1,2.837,1.104,3.035.302.571.976.718.697,1.378-.455,1.075-2.456.753-3.306.842-2.668.281-5.806,1.601-7.684-1.076.305-.773.257-1.533.361-2.32.03-.23.294-.461.315-.666.037-.359-.603-.722-.525-1.116.036-.183.657-.672.858-1.106.458-.989.417-2.118.206-3.16-1.523-.198.285-1.316-1.1-1.855v-.378c1.128-.54.981-2.977-.398-3.174.353-.69-.33-2.222-.308-2.526.016-.212.406-.373.296-.939-.029-.148-.599-1.122-.699-1.141-.334-.066-.791.223-1.154.223-.89.001-1.297-1.911-2.233-2.29.038-.765,1.035-1.105,1.161-1.753.24-1.234-.572-1.583-.586-2.645,1.383.367,1.412-1.184,1.607-1.342.131-.106.543.043.852-.226.073-.063.71-1.26.757-1.423.176-.624-.506-1.865-1.12-1.882-.939.163-.577,1.178-.867,1.877-.144.348-1.439,1.552-1.752,1.592-.293.037-.764-.778-1.141.032-.587,1.26.654,3.07-.223,4.327-3.996.8-2.603-1.985-4.005-4.329l-.39.097c-.046,1.822.417,4.033-2.061,3.83-2.74-.224-1.713-3.369-3.061-5.098l-.577.321c-.42,1.591.981,2.532.894,3.224l-.247.376c-1.16.397-3.065.204-3.785-.884-.657-.992-.595-2.162-.992-3.233-.771-.213-.566.798-1.458.58.183.409-.156.706-.343.141l-.349-1.123-1.962.685c-.564.463.14.947.109,1.293-.031.343-.416.776-.314,1.236.036.163.557.073.379.389-.655,1.02-.299,1.996-1.941,1.699.162,1.203.892,3.044-.398,3.832l.698,1.47.878-.393c.083.415-.221.852-.16,1.237.059.372.591.725.537.994-.042.212-.451.357-.493.606-.064.382.28,1.225.221,1.691-.073.128-1.768.755-1.987.774-.511.046-.899-.303-1.462-.119-.555.181-.641.82-1.093,1.081-.896.516-4.937.714-6.074.616-.877-.076-1.99-.249-2.35-1.197-.281-.742.494-.857.934-1.411.473-.597.737-1.809,1.031-2.111.256-.263.744-.245,1.07-.5.402-.314,1.234-1.486,1.188-2.053l.979.392c.324-.73-.781-1.717-.784-2.055-.003-.345.535-1.308.359-1.932-.117-.415-.633-.392-.814-.776-.31-.659-.7-3.173-1.122-3.385-.235-.119-.716-.059-.766-.111-.064-.066.015-.578-.057-.82-.303-1.025-.164-.679-.15-1.623.005-.3-.214-.605-.206-.768.005-.107,1.579-.809.99-1.686l.39.2c-.049-.879-.495-1.693-.35-2.602.141-.882.943-1.27,1.275-2.073.278-.673.283-1.575.51-2.24.107-.315.908-1.315.725-1.531-.769.279-1.542.562-2.234,1.013-.232.151-.268.506-.459.559-.241.067-.591-.053-.897.037-.457.135-.432.743-1.365.51-.326-.082-1.386-.944-1.482-1.275l-.239-2.61c-2.774,1.472-4.952-.287-5.93-2.903l-2.313-.435,5.884,8.15c-2.939,1.699-4.306-2.506-5.89-4.121-.187-.191-.254-.374-.584-.298.014,1.854.54,5.664,2.438,6.493,2.567,1.121,6.742-3.072,8.069,2.143.071.277.32,1.287-.098,1.376-.69-4.944-3.988-.699-4.628,1.757-.424,1.626-.426,4.042.407,5.509,1.526-.666.995-2.847,1.436-4.052.149-.406.663-.199.228-1.247l-.389.783-.196-1.963c1.485,1.683,1.637,4.995.821,7.008-.203.501-1.719,2.891-2.094,3.208-2.5,2.11-4.004-2.309-6.142-2.718-1.154-.221-1.947.761-2.861,1.176-1.904.863-3.769,1.326-5.771.4-.533-.246-2.372-2.173-2.606-2.005-.069.742-.823,1.673-.949,2.306-.216,1.084,1.305,2.992,1.769,4.037.589,1.328,1.11,3.631,1.757,4.726.33.558.643.195.89.713,1.663-.534,1.659,1.395,2.63,2.04.661.44,1.522.347,1.925,1.034.234.607-1.338,1.063-1.834,1.251-.439.166-1.738.304-1.86.705-.202.669.648.917.809,1.33.239.612.029,1.42.256,1.892.175.366,1.696,1.172,1.456,2.236-1.065.922-1.598-.512-2.145-1.158-.255-.301-.852-.733-.989-.975-.271-.476-.116-.883-.277-1.294-.3-.764-.799-1.441-.92-2.321-.902-.176-2.335-.064-2.218-1.212-.384-.599-2.505.454-3.099.648-.228.074-.624-.08-.745.027-.248.218-.131.667-.291.9-.173.252-.94.266-1.173.79-.794,1.782,1.661,3.945.004,5.306-.144.118-3.175,1.474-3.389,1.521-.983.215-4.164.349-4.538-.881-.278-.916.43-2.323.71-3.147.103-.303-.049-.761.084-.994.057-.101,1.314-1.23,1.611-1.627.818-1.093,1.345-2.32,2.006-3.5.093-.166.404-.184.527-.463.116-.264.199-5.333.125-5.733-.085-.461-.579-.881-.729-1.431-.7-2.558-.861-5.905-1.506-8.509-.219-.883-1.17-1.579-1.323-2.023-.231-.671-.649-4.608-.952-4.835-1.298.795-2.674,1.58-3.908,2.471-.785.566-1.664,2.191-2.751,1.138-.186-.567.463-1.117.869-1.449,1.682-1.381,5.27-2.591,4.958-5.152-.18-1.473-.889-2.32-1.279-3.436-.222-.634-.212-1.69-.536-2.41-.747-1.66-.719-1.06-1.168-3.152-.147-.686-.792-1.454-.862-2.102-.05-.465.18-.808.129-1.271-.203-1.85-4.394-8.69-6.062-9.468-.383-.179-.847-.079-1.248-.323-1.548-.941-.793-4.03-.906-5.574-.051-.69-.299-1.381-.388-2.065,1.392,1.579,1.895-.589,1.729-1.813-.092-.675-1.191-2.927-1.644-3.478-.35-.426-.817-.585-1.072-.891-.394-.473-.591-1.228-1.079-1.671-.457-.089-.238.206-.313.465-.733,2.512-1.511,6.487-1.53,9.078-.013,1.736.551,4.037.578,5.862.063,4.21.026,8.407.171,12.575.09,2.584.532,4.738-.074,7.371-.878,3.814-2.248,5.557-1.869,9.906.455,5.213,2.283,7.579,4.213,12.085,1.07,2.497,1.824,4.004,3.026,6.399.266.529,1.051,2.179.724,2.641-.592.301-1.501.214-2.182.191-.741-.026-2.448-.12-3.089-.249-.688-.138-3.971-2.615-4.265-2.312l-.165,2.521c.764.5,2.421.755,2.815,1.607.514,1.108-1.623,2.074-2.269,2.636-.734.639-1.051,1.85-2.444,1.849-2.428-.002-1.442-2.426-1.457-3.806-.009-.795-.013-2.177-.069-2.887-.048-.608-.361-2.923-.579-3.35-.516-1.013-1.172-.522-1.152.545.034,1.84.654,3.98.773,5.844-.491,1.326-1.73,1.386-2.856.774-.509-.277-.756-.785-1.136-1.024-.764-.479-2.665-.796-2.428-2.013.221-1.136,2.231-1.133,2.491-2.055.134-.476-.553-2.923-.885-3.005-1.875.179-3.774.199-5.645.415-2.604.3-6.926.941-9.287,2.102-.72.354-1.227,1.385-2.212.924-.155-.073-1.11-1.062-1.154-1.22-.239-.872,2.39-4.25,2.954-5.221,1.379-2.372,2.363-3.896,3.857-6.158,1.281-1.939,2.565-5.238,3.328-7.471.805-2.357,2.179-7.602,2.014-9.967-.07-.996-.844-2.866-1.089-4.028-.641-3.04-1.632-8.491-1.258-11.473.331-2.642,3.791-8.633,5.487-10.811.352-.453.967-.839,1.262-1.291,1.398-2.14-.558-4.496-1.499-6.337-.336-.657-.562-1.62-.901-2.239-.123-.225.01-.332-.435-.25-.178.536-.365,1.138-.62,1.64-3.037,5.985-6.004,12.259-10.251,17.338-.156.186-.504.278-.721.554-1.224,1.558-.202,3.044-.392,4.912-.195,1.918-.7,1.563-2.102,2.218-.637.298-.596.879-1.636.546-1.23-.394-1.074-1.867-.921-2.906.185-1.257,1.156-2.435,1.688-3.613,1.246-2.757,2.033-5.594,3.22-8.366,2.077-4.853,5.39-9.09,6.733-14.277.79-3.051-.025-5.731,2.537-8.263,1.725-1.706,5.064-1.067,6.758-3.075l-1.263-3.584-.679-3.937-.389,1.176c.098-.769-.38-1.713-.33-2.429.074-1.055,2.699-5.268,3.675-5.907,2.037-1.333,5.773-1.262,7.56.474.459.446,1.922,2.468,2.257,3.052.322.561.224,1.94,1.366,2.064l-.369.21.763,1.749c-.76.098-.872-1.171-1.279-1.371-.404-.079-.335.162-.254.451.439,1.573,1.672,2.602,2.71,3.77-.371.318-.788-.387-1.125-.453-.36-.07-.796.288-1.229-.039.049,1.973,2.294,3.188,3.922,3.729.793-2.219,1.345-4.57,2.156-6.78.45-1.226,3.02-6.7,2.916-7.41-.038-.256-.323-.519-.358-.848-.147-1.371,1.331-2.149,2.53-2.015.088.764.882,1.166.772,1.988-.15,1.123-1.244,1.144-1.49,1.658-.759,1.591-1.01,4.512-1.516,6.339-.858,3.096-2.33,6.013-2.997,9.177.609.812,4.072,4.364,4.816,4.535.857.196,1.908-.601,1.72,1.515-.085.955-1.901.849-2.17.488-.407-.547-.214-2.3-1.86-2.068l.392.49c-.909-.162-1.131-.782-2.16-.389-.072.727.64,1.144.931,1.719.797,1.577.959,2.957,2.603,4.073l-1.569-.687c.375,1.109.039,2.35.207,3.423.083.526,1.995,3.908,2.342,3.644,1.334-2.857,1.599-5.815,1.573-8.932-.012-1.418-.559-4.122-.379-5.292.092-.6.595-1.075.729-1.627.171-.703.029-1.403.341-2.212.529-1.369,1.484-1.189.765-3.127-.619-1.669-1.955-3.703-2.583-5.467-.126-.353-.597-2.068-.46-2.267.155-.227.754-.431.969-.308.357.204,1.74,4.109,2.096,4.881.178.385,1.361,2.832,1.501,2.917.174.106.778.001,1.158.119.373.116.713.6,1.115.67.582.101,1.288-.404,1.92.219.468-.036.068-1.661.769-2.169.65-.47,1.176.114,1.561,0,1.924-3.031,2.315-6.661,1.511-10.177,1.639-.149,3.444-2.343,4.809-2.559.942-.149,3.645.332,4.417.859,1.941,1.325,1.772,3.28,2.357,5.301.821,2.833,1.022,4.664,1.61,7.423.235,1.103.893.875.113,2.375-.692,1.33-2.562,1.448-.949,3.314.147.17,1.008.87,1.177.742-.131-1.983,1.377-3.223,2.164-4.906l.291.587.887-1.372.291.586,1.472-.98-.193,1.178.6-.091.379-.497-.588,1.372c.743.14,1.054-.156,1.569-.587l-.193,1.179.385-.196.205.783.978-.391c.061.286-.1.434-.23.652-.35.586-2.41,3.464-2.817,3.86-.351.341-.98.244-1.367.793-.347.491-.198.982-.398,1.369-.279.539-1.583,1.524-2.04,2.672-.259.651-.436,2.298.628,2.021.498-.13,2.817-3.202,3.113-3.868,2.281.257.141,1.248-.431,1.821-.674.676-2.663,3.662-2.748,4.531-.116,1.185.612.563,1.183.976.224.162.283.748.5,1.07.712,1.055,1.41.427,1.06,2.452-.103.597-.551,1.06-.717,1.638-1.251,4.344.316,8.751.142,13.086-.047,1.164-.327,2.562-.401,3.739-.016.262-.119.855.299.691l1.239-.823c.111-.711-.039-1.42.126-2.134.606-2.63,6.163-4.584,7.868-6.467.474-.523.567-1.081.882-1.671l-1.936.477c-1.054-1.766-2.316-5.266-4.737-2.929-.086-.105.562-1.523.712-1.721.302-.4.685-.339.953-.639.201-.225.205-.736.427-.79.904-.22,2.394.297,3.501.201,2.545-.221,5.683-2.857,7.053-4.923,1.301-1.963.292-2.408.294-4.4,0-.721.283-2.364.466-3.087.307-1.216,1.399-2.65,1.512-3.608.106-.898-.769-2.013-.569-2.704.142-.491,1.117-.094,1.554-.421.268-.201.346-1.112.915-1.245l1.05.28.883-1.281c.348.317,1.942,1.002,2.26.774l-.393-.585c.583.489,2.439-1.367,1.863-1.38-.643.33-1.203-.037-1.763-.012-.544.025-.785.389-1.278.406l2.159-1.864-.587-.291c.728-.118,2.455-.659,2.055-1.574-.22.123-1.927-.116-1.465-.588.223.055.377.202.637.164,1.114-.164,3.151-2.899,4.172-3.698,1.432-1.121,3.192-1.751,5.007-1.377l-.392-.49c1.183-.179,1.611,2.141,2.836,2.077l.112-.405,1.688,2.743c-.049,1.132-.341,2.101-.914,3.062-.091.383.459.276.57.603.087.259-.045.664.048.835.112.207,2.608-.113,3.31.127.74.253,3.008,2.087,3.683,2.7.173.157.141.52.299.679.182.183.871.348,1.129.638.047-1.311-3.603-4.58-3.055-5.499,1.507-1.141,1.704.274,2.563,1.182,1.065,1.125,3.252,2.458,4.56,1.117.628-.643,2.775-4.302,2.968-5.189.123-.565-.191-1.07.052-1.608.973.142,1.564-.381,2.251-.989,2.528-2.238,4.568-5.047,6.77-7.573.352-.403,1.11-.738,1.172-1.47h2.749ZM388.998,54.393c2.078-.167,3.21-2.05,4.401-3.548.759-.955.619-.678,1.396-1.353.762-.662.657-4.999,1.221-6.241.498-1.096,2.258-2.799,2.954-4.115,1.558-2.942,1.667-7.003,1.606-10.272-2.05,2.481-4.293,4.817-6.382,7.263-.643.753-4.201,4.811-4.333,5.295-.091.334.163,1.45.11,2.069-.217,2.54-1.342,6.197-1.37,8.446-.003.279.294,2.383.396,2.454ZM365.035,37.504c.025-.354-.889-2.964-1.174-2.748l-.171,1.034,1.344,1.714ZM220.808,41.829c-.589-.006-.35,3.98.589,4.312l.296-3.024-.885-1.288ZM383.283,47.507c.545-.344-.167-2.264-.768-2.54.021.814-.118,1.653.177,2.438.041.194.518.148.591.102ZM313.82,57.119c.069-1.249-.824-1.062-1.509-1.546-.648-.457-1.029-1.458-1.368-2.166-.54-1.127-1.268-3.035-1.386-4.218-.034-.341.31-.784.197-1.09s-1.385-1.031-1.742-1.383c-.391-.387-.608-1.534-1.311-1.041-.867,1.099.337,2.173.338,2.73,0,.345-.834.65-.919,1.757-.13,1.68.944,3.24.916,3.539-.014.152-.29.344-.315.599-.036.361.221.871.208,1.366-.026.964-.39,1.953-.17,2.908.104.449.571.769.666,1.118.105.381-.142.698-.027.98.116.285.785.576.86.927.056.263-.178.562-.138.737.05.222.439.229.514.348.122.195.033.71.193,1.087.236.557.648,1.387.934,2.012.2.437.854,1.112.87,1.466.022.482-.552,1.258-.57,1.794-.02.616.563,1.061.388,1.937-.086.431-.498.581-.545.813-.033.164.155,1.505.161,1.951.011.856-.362,1.358.189,2.248l3.545-7.351c-1.135-.804-1.202-1.856-2.862-2.071l-.61-2.653c.548-1.45,1.363-2.761,1.991-4.216l1.264-.3.797-2.16-.558-.122ZM383.497,52.429c1.558-.8,1.263-6.644-.372-3.446l.372,3.446ZM262.142,49.486c-2.673.604-4.364,2.394-5.891,4.512.395-.065,1.56-.436,1.771-.682.318-.372.071-.911.385-1.186.363-.318,1.898-.45,2.55-.985.491-.403.695-1.194,1.186-1.66ZM266.656,51.84c-1.516.196-2.069,1.555-3.042,2.356-.447.368-1.729.893-2.005,1.233-.354.437-.406,2.235-.643,2.891.19.241,2.681-2.405,2.942-2.661.152-.148.504-.249.548-.325.198-.341-.133-1.14.132-1.539l2.181-.973-.113-.982ZM372.892,62.639c.459.029,1.997-.058,2.146-.516l-.579-2.819-1.147,2.089-.421,1.246ZM243.676,93.064c.236-.333-1.535-4.38-2.054-4.893-.519-.013-.341,3.045-.182,3.526.147.445.505.536.744.809.481.551.123,1.127,1.492.558Z"/>
</svg>