<?xml version="1.0" encoding="UTF-8"?>
<svg id="Layer_1" xmlns="http://www.w3.org/2000/svg" width="1024" height="1024" version="1.1" viewBox="0 0 1024 1024">
  <!-- Generator: Adobe Illustrator 29.2.1, SVG Export Plug-In . SVG Version: 2.1.0 Build 116)  -->
  <defs>
    <style>
      .st0 {
        fill: #fff;
      }
    </style>
  </defs>
  <rect x="102.5" y="102.5" width="819" height="819" rx="66.702" ry="66.702"/>
  <g>
    <path class="st0" d="M414.029,638.044h156.508c7.724-6.153,13.419-27.23,11.782-51.122,3.535-58.126-49.42-93.8-65.457-101.72v-81.167h11.717c7.92,0,9.36-14.204,0-15.841h-72.919c-9.295,1.636-7.92,15.841,0,15.841h11.717v81.167c-15.906,7.92-68.861,43.594-65.457,101.72-1.506,23.892,4.189,44.969,12.11,51.122Z"/>
    <path class="st0" d="M719.91,685.239c-5.363-.016-10.708.643-15.906,1.964h0l-35.543-34.889-.72-28.408h0c10.911-18.857,18.651-39.378,22.91-60.744h0l50.664-24.35v-28.736l-51.253-27.426c-6.39-30.665-19.837-59.419-39.274-83.981h.327l33.776-33.841,27.557-1.375,43.529,43.66,83.523-83.981-99.233-100.477-148.587-11.913c-5.498-.524-16.168,14.728-9.295,22.321l62.642,62.773-2.553,28.67-33.907,33.514h0c-22.715-16.02-48.501-27.163-75.734-32.729h0l-26.183-50.467h-28.801l-26.576,50.467h0c-28.37,5.789-55.161,17.622-78.548,34.692h0l-17.608-18.328-1.178-6.546-1.244-26.183,26.183-26.183-36.852-58.911c-25.681-10.518-53.559-14.542-81.167-11.717l-14.728,14.401,56.62,56.228v28.932l-19.637,18.197h-28.932l-56.162-55.049-13.091,13.091c-1.966,28.407,2.834,56.874,14.008,83.065l56.293,34.299,22.975-23.303h19.048l14.27,2.553,19.113,17.281h0c-18.255,24.18-30.808,52.173-36.721,81.887l-50.075,26.641v28.736l49.878,24.088c4.554,22.978,13.106,44.978,25.266,64.999h0l-1.375,26.903-33.056,33.514c-6.46-2.14-13.224-3.223-20.03-3.207-35.319-.036-63.981,28.567-64.017,63.886-.036,35.319,28.567,63.981,63.886,64.017,35.319.036,63.981-28.567,64.017-63.886,0-.044,0-.087,0-.131.006-5.208-.632-10.396-1.898-15.448l34.43-35.085,28.801-.786h0c19.242,11.408,40.262,19.506,62.184,23.957h0l26.183,49.616h28.736l26.183-49.616h0c24.182-4.96,47.253-14.3,68.075-27.557h0l24.415,1.178,34.103,33.972h0c-10.881,33.563,7.506,69.593,41.069,80.475,33.563,10.881,69.593-7.506,80.475-41.069,10.881-33.563-7.506-69.593-41.069-80.475-6.352-2.059-12.988-3.11-19.665-3.114l-.524-.066ZM290.512,775.177l-26.183,10.735-26.183-10.735-10.735-26.183,10.735-26.183,26.183-10.8,26.183,10.8,10.8,26.183-10.8,26.183ZM492.185,359.655c90.377,0,163.643,73.265,163.643,163.643s-73.265,163.643-163.643,163.643-163.643-73.265-163.643-163.643,73.265-163.643,163.643-163.643ZM745.896,775.177l-26.183,10.735-26.183-10.735-10.8-26.183,10.8-26.183,26.183-10.8,26.183,10.8,10.8,26.183-10.8,26.183Z"/>
  </g>
</svg>