<?xml version="1.0" encoding="UTF-8"?>
<svg id="Layer_1" xmlns="http://www.w3.org/2000/svg" width="14.222in" height="14.222in" version="1.1" viewBox="0 0 1024 1024">
  <!-- Generator: Adobe Illustrator 29.2.1, SVG Export Plug-In . SVG Version: 2.1.0 Build 116)  -->
  <polygon points="264.329 712.011 238.146 722.811 227.411 748.994 238.146 775.177 264.329 785.912 290.512 775.177 301.312 748.994 290.512 722.811 264.329 712.011"/>
  <polygon points="719.713 785.912 745.896 775.177 756.696 748.994 745.896 722.811 719.713 712.011 693.53 722.811 682.73 748.994 693.53 775.177 719.713 785.912"/>
  <path d="M854.798,102.5H169.202c-36.839,0-66.702,29.863-66.702,66.702v685.596c0,36.839,29.864,66.702,66.702,66.702h685.596c36.839,0,66.702-29.864,66.702-66.702V169.202c0-36.839-29.864-66.702-66.702-66.702ZM690.062,482.65l51.253,27.426v28.736l-50.664,24.35c-4.259,21.366-11.999,41.887-22.91,60.744l.72,28.408,35.543,34.889c5.197-1.321,10.542-1.98,15.904-1.964h0s.003,0,.003,0h-.002l.523.066c6.677.004,13.313,1.055,19.665,3.114,33.563,10.882,51.95,46.912,41.069,80.475-10.882,33.563-46.912,51.95-80.475,41.069-33.563-10.882-51.95-46.912-41.069-80.475l-34.103-33.972-24.415-1.178c-20.822,13.257-43.893,22.597-68.075,27.557l-26.183,49.616h-28.736l-26.183-49.616c-21.922-4.451-42.942-12.549-62.184-23.957l-28.801.786-34.43,35.085c1.266,5.052,1.904,10.24,1.898,15.448v.131c-.036,35.319-28.698,63.922-64.017,63.886-35.319-.036-63.922-28.698-63.886-64.017.036-35.319,28.698-63.922,64.017-63.886,6.806-.016,13.57,1.067,20.03,3.207l33.056-33.514,1.375-26.903c-12.16-20.021-20.712-42.021-25.266-64.999l-49.878-24.088v-28.736l50.075-26.641c5.913-29.714,18.466-57.707,36.721-81.887l-19.113-17.281-14.27-2.553h-19.048l-22.975,23.303-56.293-34.299c-11.174-26.191-15.974-54.658-14.008-83.065l13.091-13.091,56.162,55.049h28.932l19.637-18.197v-28.932l-56.62-56.228,14.728-14.401c27.608-2.825,55.486,1.199,81.167,11.717l36.852,58.911-26.183,26.183,1.244,26.183,1.178,6.546,17.608,18.328c23.387-17.07,50.178-28.903,78.548-34.692l26.576-50.467h28.801l26.183,50.467c27.233,5.566,53.019,16.709,75.734,32.729l33.907-33.514,2.553-28.67-62.642-62.773c-6.873-7.593,3.797-22.845,9.295-22.321l148.587,11.913,99.233,100.477-83.523,83.981-43.529-43.66-27.557,1.375-33.776,33.841h-.327c19.437,24.562,32.884,53.316,39.274,83.981Z"/>
  <path d="M492.185,359.655c-90.378,0-163.643,73.265-163.643,163.643s73.265,163.643,163.643,163.643,163.643-73.265,163.643-163.643-73.266-163.643-163.643-163.643ZM570.537,638.044h-156.507c-7.921-6.153-13.616-27.23-12.11-51.122-3.404-58.126,49.551-93.8,65.457-101.72v-81.167h-11.717c-7.92,0-9.295-14.205,0-15.841h72.919c9.36,1.637,7.92,15.841,0,15.841h-11.717v81.167c16.037,7.92,68.992,43.594,65.457,101.72,1.637,23.892-4.058,44.969-11.782,51.122Z"/>
</svg>