<?xml version="1.0" encoding="UTF-8"?>
<svg id="Layer_1" xmlns="http://www.w3.org/2000/svg" width="14.222in" height="14.222in" version="1.1" viewBox="0 0 1024 1024">
  <!-- Generator: Adobe Illustrator 29.2.1, SVG Export Plug-In . SVG Version: 2.1.0 Build 116)  -->
  <path d="M854.798,102.5H169.202c-36.839,0-66.702,29.863-66.702,66.702v685.596c0,36.839,29.864,66.702,66.702,66.702h685.596c36.839,0,66.702-29.864,66.702-66.702V169.202c0-36.839-29.864-66.702-66.702-66.702ZM682.562,407.176c-4.324,15.527-8.451,31.119-13.103,46.514-7.272,13.692-14.544,27.384-22.405,40.749-13.103,15.133-25.747,31.25-39.963,45.531-.917-10.81,4.848-20.964,3.145-31.774-1.114-8.255-.917-16.771-2.686-24.96-3.014-7.796-5.569-15.723-8.975-23.323-4.52-6.551-9.368-13.103-14.216-19.654-8.91-6.551-20.309-4.52-30.529-4.651-1.441-2.686-2.948-5.307-4.52-7.927-4.995,7.467-9.002,15.548-11.923,24.043-1.965,4.848-7.534,7.665-8.517,13.103.393,30.725,1.048,61.385,1.376,92.111-.59,6.551,6.551,9.237,10.154,13.692-2.031,4.324-6.551,7.862-6.551,13.103-.524,10.351-1.769,20.702-1.507,31.053-.393,67.74-.59,135.415-.983,203.09,0,3.734,2.883,6.551,4.782,9.106-2.718.441-5.377,1.188-7.927,2.227-2.489,2.555-3.21,6.551-5.896,8.844-6.152,1.7-12.622,1.903-18.868.59-4.979-.59-4.913-7.141-8.451-9.696-2.435-.846-4.932-1.503-7.468-1.965,1.834-2.883,4.979-5.372,4.717-9.106.044-62.849-.087-125.784-.393-188.808.231-15.966-.425-31.932-1.965-47.824-1.618-3.658-3.593-7.147-5.896-10.417,3.538-4.455,10.81-7.075,10.154-13.692,0-30.725.983-61.385,1.376-92.111-.983-5.307-6.551-8.124-8.517-13.103-2.894-8.506-6.903-16.591-11.923-24.043-2.358,3.145-3.276,9.237-8.386,8.058-10.417-.655-24.436-1.376-30.267,9.368-5.43,6.337-9.85,13.475-13.103,21.161-2.621,8.255-7.337,16.051-7.468,24.96-.459,7.796-1.703,15.461-1.769,23.257,1.822,8.345,2.962,16.824,3.407,25.353-11.858-11.53-21.816-24.96-32.756-37.211-8.969-10.706-16.36-22.642-21.947-35.442,5.11-12.185,12.709-23.323,18.147-35.377-9.499,4.324-18.606,9.565-28.039,14.085-4.324-17.754-11.858-34.984-12.382-53.524-.786-10.875-2.162-21.75-2.621-32.756,1.31-13.627,2.621-27.253,4.193-40.814,2.883-11.989,5.634-24.043,8.91-35.901,9.434-1.048,18.933-1.834,28.367-3.079-5.307-8.386-11.268-16.444-16.64-24.829,2.661-6.257,6.165-12.12,10.417-17.426l-.329.197c13.311-19.066,28.238-36.951,44.614-53.458,0,10.023-2.358,19.981-1.703,30.005,1.965,11.792,1.245,24.24,6.551,35.246,1.834,4.258,2.555,9.565,6.551,12.185,5.637,4.707,11.543,9.082,17.688,13.103,8.109,3.766,16.788,6.157,25.681,7.075,1.179,4.52,2.096,9.172,3.276,13.692l6.944,1.179c.721-7.141.852-14.347,1.703-21.488,6.093-1.31,8.582-7.403,12.251-11.792,4.782-5.503,4.586-13.103,6.551-19.654,6.246-.393,12.382-.59,18.409-.59,2.162,6.551,1.965,14.413,6.551,19.654,3.669,4.389,6.158,10.482,12.251,11.792.852,7.141,1.048,14.347,1.703,21.488l7.141-.524c1.245-4.52,2.096-9.172,3.276-13.692,4.474.009,8.913-.79,13.103-2.358,7.062-1.816,13.726-4.926,19.654-9.172,6.093-5.634,15.264-9.106,16.837-18.213,3.984-10.662,6.197-21.904,6.551-33.281,1.965-11.53-1.114-22.995-1.179-34.525,18.662,18.954,35.507,39.616,50.314,61.713,4.848,9.63,10.023,19.13,14.478,29.022,3.734,13.954,6.944,28.433,10.286,42.714,1.507,10.482,2.227,21.095,3.407,31.643-11.334,4.455-22.929,7.993-34.198,12.447,11.53,2.293,23.06,4.258,34.591,6.551-1.179,13.103-1.9,25.681-3.538,38.456Z"/>
</svg>