<?xml version="1.0" encoding="UTF-8"?>
<svg id="Layer_1" xmlns="http://www.w3.org/2000/svg" width="14.222in" height="14.222in" version="1.1" viewBox="0 0 1024 1024">
  <!-- Generator: Adobe Illustrator 29.2.1, SVG Export Plug-In . SVG Version: 2.1.0 Build 116)  -->
  <rect x="475.771" y="802.158" width="71.606" height="15.199"/>
  <path d="M481.469,771.105c1.475-9.017-.19-18.268-4.717-26.205-6.944-9.303-18.082-14.609-24.567-24.371-8.365-13.423-7.313-30.67,2.621-42.977,0,1.048,0,2.096.459,3.21,1.245-2.621,2.49-5.176,3.472-7.862-8.908,5.174-14.358,14.725-14.282,25.026v-.196c-.886,8.848.726,17.768,4.652,25.747,8.648,11.137,21.881,19.064,26.86,32.757,1.373,6.388.493,13.054-2.49,18.868-4.179,4.805-10.98,6.367-16.837,3.865.075-1.926-.26-3.847-.983-5.634-3.341-1.703-9.106-.59-9.565,3.734,1.199,5.664,6.413,9.561,12.185,9.106,10.296.991,19.913-5.257,23.192-15.068Z"/>
  <path d="M494.57,718.51c16.791,9.412,38.032,3.43,47.444-13.361,9.412-16.791,3.43-38.032-13.361-47.444-6.455-3.618-13.893-5.088-21.239-4.197h0c-11.043,1.318-20.786,7.846-26.205,17.558-9.412,16.791-3.43,38.032,13.361,47.444Z"/>
  <path d="M854.798,102.5H169.202c-36.839,0-66.702,29.863-66.702,66.702v685.596c0,36.839,29.864,66.702,66.702,66.702h685.596c36.839,0,66.702-29.864,66.702-66.702V169.202c0-36.839-29.864-66.702-66.702-66.702ZM604.243,782.179c-6.551,13.954-14.413,27.515-21.357,41.404-1.31,3.276-4.979,3.996-7.796,5.569-4.332,2.619-9.037,4.563-13.954,5.765-9.827,1.441-19.654,3.407-29.481,4.586h-39.308c-9.696-1.114-19.654-3.079-29.022-4.52-5.26-1.161-10.287-3.198-14.871-6.027-2.49-1.441-5.831-2.096-7.141-4.979-5.831-11.399-11.923-22.733-17.82-34.198-2.224-3.269-3.721-6.978-4.389-10.875-1.638-15.789-4.127-31.512-5.307-47.3,3.21-18.737,6.551-37.408,9.958-56.014,8.255-23.192,16.684-46.318,25.288-69.378,10.613-17.23,21.881-34.067,32.757-51.1,1.834-3.079,4.782-5.896,4.586-9.696,2.686-80.909,5.634-161.817,8.255-242.399-3.918-7.87-8.294-15.504-13.103-22.864-2.555-3.407-1.048-7.731-1.245-11.53-1.877-.099-3.757-.099-5.634,0,1.289,2.429.365,5.443-2.063,6.732-.201.107-.409.199-.623.278-2.231-3.338-4.203-6.842-5.896-10.482.801-2.795,1.899-5.497,3.276-8.058,3.21,3.145,5.503,8.189,11.006,6.551.328-4.455.459-8.91.524-13.103h-3.669c1.279,2.393.375,5.37-2.018,6.649-.215.115-.438.214-.668.295-2.231-3.315-4.202-6.797-5.896-10.417.778-2.814,1.854-5.538,3.21-8.124,3.145,2.227,4.324,7.665,9.106,6.551,0-4.455.459-8.91.524-13.103-3.75-.294-7.518-.294-11.268,0,1.279,2.393.375,5.37-2.018,6.649-.215.115-.438.214-.668.295-2.221-3.31-4.171-6.793-5.831-10.417.778-2.814,1.854-5.538,3.21-8.124,2.227,1.638,3.341,4.389,5.503,6.158,3.731.23,7.472.23,11.203,0,0-3.734.393-7.534.459-11.334-2.18-.182-4.371-.182-6.551,0,1.029,2.511-.173,5.381-2.684,6.409-.066.027-.132.052-.199.076-2.242-3.308-4.213-6.792-5.896-10.417.772-2.826,1.872-5.552,3.276-8.124,2.227,1.638,3.341,4.389,5.438,6.093,2.175.282,4.377.282,6.551,0,0-2.752,0-6.158,2.227-7.993,4.455-3.8,7.665-9.368,13.103-11.334l.326.198c4.848-1.834,9.303-4.586,14.282-6.027,4.913,1.441,9.434,4.193,14.216,6.027s9.041,7.534,13.103,11.334c2.621,1.834,1.965,5.241,2.227,7.993,5.7,1.769,9.172-2.162,11.989-6.551,1.523,2.575,2.67,5.355,3.407,8.255-1.591,3.662-3.475,7.189-5.634,10.548-2.536-.858-3.897-3.609-3.039-6.146.093-.276.212-.544.353-.799-2.18-.185-4.371-.185-6.551,0,0,3.8,0,7.6.393,11.334,3.753.229,7.516.229,11.268,0,2.096-1.769,3.21-4.52,5.438-6.158,1.048,3.341,4.848,7.141,2.162,10.548-1.453,2.746-3.05,5.414-4.782,7.993-2.526-.888-3.854-3.656-2.965-6.182.093-.264.208-.519.345-.763-3.772-.295-7.562-.295-11.334,0,0,4.389,0,8.844.524,13.103,4.782,1.245,6.027-4.193,9.106-6.551,1.048,3.407,4.848,7.141,2.096,10.613-1.572,2.621-2.948,5.438-4.717,7.927-3.21-1.114-3.669-3.996-2.686-6.944h-3.669c0,4.455,0,8.91.459,13.103,5.372,1.769,8.058-2.883,10.81-6.551,1.544,2.627,2.671,5.478,3.341,8.451-1.658,3.638-3.63,7.123-5.896,10.417-2.571-.976-3.864-3.851-2.889-6.422.077-.202.166-.398.268-.588-1.877-.098-3.757-.098-5.634,0,0,3.669,1.245,7.796-.983,11.072-4.193,6.551-8.255,13.823-12.448,20.702-1.05,2.619-1.323,5.485-.786,8.255,2.795,78.921,5.547,158.105,8.255,237.551,0,3.407,2.686,5.896,4.258,8.648,10.941,17.164,22.34,34.132,32.757,51.493,8.735,23.061,17.164,46.187,25.288,69.378,3.669,18.802,7.141,37.736,10.22,56.603-1.638,16.706-3.603,33.412-5.962,49.986Z"/>
  <path d="M575.941,723.542c3.788-8.183,5.304-17.235,4.389-26.205-.156-10.067-5.576-19.315-14.282-24.371l-.327-.066c.995,2.689,2.155,5.315,3.472,7.862,0-1.048.328-2.162.459-3.21,5.58,7.255,8.349,16.283,7.796,25.419.932,6.779-1.15,13.626-5.7,18.737-6.551,9.368-17.426,14.413-23.978,23.716-4.402,7.981-5.972,17.218-4.455,26.205,3.278,9.811,12.895,16.059,23.192,15.068,5.98.478,11.308-3.761,12.185-9.696-1.629-3.471-5.745-4.988-9.237-3.407-1.572,1.441-.983,3.931-1.31,5.896-6.551,2.096-15.199,1.179-17.951-5.896-3.199-7.421-2.639-15.927,1.507-22.864,6.551-10.613,16.902-17.492,24.24-27.188Z"/>
</svg>