<?xml version="1.0" encoding="UTF-8"?>
<svg id="Layer_1" xmlns="http://www.w3.org/2000/svg" width="14.222in" height="14.222in" version="1.1" viewBox="0 0 1024 1024">
  <!-- Generator: Adobe Illustrator 29.2.1, SVG Export Plug-In . SVG Version: 2.1.0 Build 116)  -->
  <path d="M854.798,102.5H169.202c-36.839,0-66.702,29.863-66.702,66.702v685.596c0,36.839,29.864,66.702,66.702,66.702h685.596c36.839,0,66.702-29.864,66.702-66.702V169.202c0-36.839-29.864-66.702-66.702-66.702ZM547.837,509.619c2.225,7.986,5.891,15.644,7.462,23.76-6.153-5.498-10.211-13.091-16.56-18.262-3.467.228-6.862,1.094-10.015,2.553-.589,10.866,0,21.731-.524,32.728,0,3.862-5.629,5.236-4.909,9.36,1.047,70.692,2.095,141.406,3.142,212.142-.524,10.342,8.051,18.589,7.593,28.997,0,8.837.655,17.673.589,26.575-4.582,3.207-9.491,5.956-14.073,9.229-4.865,3.732-11.63,3.732-16.495,0-4.582-3.273-9.491-6.022-14.073-9.229,0-8.902.524-17.738.589-26.575-.458-10.407,8.117-18.655,7.593-28.997.982-70.954,2.16-141.908,3.076-212.862,0-3.731-4.778-4.975-4.844-8.64-.458-10.8,0-21.666-.524-32.728-3.115-1.542-6.488-2.496-9.949-2.815-6.546,5.171-10.342,13.091-16.56,18.262,1.571-8.117,5.236-15.775,7.462-23.76-6.499-4.668-12.315-10.22-17.28-16.495-8.575,2.16-16.757,5.498-25.266,7.789,5.956-6.546,13.091-11.324,19.113-18-3.447-7.346-5.722-15.187-6.742-23.237-7.789-1.964-15.709-3.469-23.564-4.975,7.574-2.416,15.32-4.254,23.171-5.498.926-8.382,2.928-16.61,5.956-24.48-5.564-5.695-12.24-10.211-17.542-16.168,7.658,1.833,15.055,4.713,22.582,7.135,5.241-7.099,11.48-13.405,18.524-18.72-2.16-7.331-5.236-14.335-6.546-21.862,5.498,5.236,9.557,11.847,15.251,16.888,7.697-3.191,15.772-5.375,24.026-6.507,1.391-5.739,2.054-11.72,3.599-17.45,1.571,5.826,2.225,11.913,3.666,17.738,8.309,1.289,16.453,3.484,24.284,6.546,5.891-4.713,9.687-11.586,15.251-16.691-1.571,7.527-4.647,14.531-6.546,21.862,7.044,5.316,13.283,11.621,18.524,18.72,7.527-2.422,14.924-5.302,22.582-7.135-5.302,5.956-11.978,10.473-17.542,16.233,3.034,7.846,5.036,16.053,5.956,24.415,7.852,1.244,15.598,3.082,23.171,5.498-7.855,1.505-15.775,3.011-23.564,4.975-1.014,7.944-3.22,15.69-6.546,22.975,5.629,6.546,13.091,11.586,19.048,18-8.509-2.291-16.691-5.629-25.2-7.789-5.005,6.261-10.841,11.811-17.346,16.495ZM675.866,461.443c-9.949,9.36-20.488,18.131-30.044,27.819-7.004,17.018-13.68,34.233-20.226,51.448-.589,11.717,0,23.564,0,35.346,1.898,11.782,5.433,23.302,7.593,35.019-15.513-20.749-30.175-42.219-45.295-63.23,43.332-43.07,48.699-117.1,14.008-166.912-15.626-23.487-39.996-39.75-67.681-45.164-9.799-1.364-19.701-1.846-29.586-1.44-22.131.532-43.446,8.459-60.547,22.517-20.977,17.585-35.508,41.649-41.303,68.401-10.356,43.831,2.184,89.924,33.317,122.468-15.12,21.011-29.782,42.481-45.295,63.23,2.16-11.717,5.695-23.237,7.593-35.019,0-11.782.785-23.63,0-35.346-6.546-17.215-13.091-34.43-20.226-51.448-9.557-9.687-20.095-18.459-30.044-27.819-7.92-8.64-20.029-10.866-29.39-17.346,13.091-4.124,28.539-3.076,39.666-12.371,8.247-5.76,17.018-10.8,25.07-16.822,5.302-7.789,10.538-15.709,15.12-23.891,2.291-10.669,4.778-21.339,6.546-32.073-2.291-13.484-5.956-26.706-8.64-40.124,9.557,2.749,18.655,6.546,28.211,9.426,8.771-.72,17.411-3.207,26.182-4.516,8.771-1.309,17.738-6.546,26.51-10.342,2.88-1.505,6.546-2.291,7.986-5.826,4.975-11.978,10.669-23.695,15.382-35.804l.067-.002c4.189-28.931,6.873-58.19,11.258-87.122,4.386,28.931,7.069,58.19,11.258,87.122,4.713,12.109,10.407,23.826,15.382,35.804,1.309,3.927,5.826,4.582,8.967,6.546,6.681,3.459,13.592,6.455,20.684,8.967,10.146,1.702,20.226,4.124,30.371,5.498,9.818-2.422,19.048-6.546,28.801-9.491-2.684,13.091-6.087,26.182-8.575,39.273.655,8.247,3.207,16.233,4.582,24.415,1.178,12.24,10.604,21.208,16.298,31.484,7.855,6.546,17.28,11.586,25.724,17.608,11.127,9.295,26.182,8.247,39.666,12.371-9.36,6.546-21.469,8.706-29.39,17.346Z"/>
</svg>