<?xml version="1.0" encoding="UTF-8"?>
<svg id="Layer_1" xmlns="http://www.w3.org/2000/svg" width="1024" height="1024" version="1.1" viewBox="0 0 1024 1024">
  <!-- Generator: Adobe Illustrator 29.2.1, SVG Export Plug-In . SVG Version: 2.1.0 Build 116)  -->
  <defs>
    <style>
      .st0 {
        fill: #fff;
      }
    </style>
  </defs>
  <rect x="102.5" y="102.5" width="819" height="819" rx="66.702" ry="66.702"/>
  <g id="Class_Icons">
    <path id="Druid" class="st0" d="M427.75,692.965c-3.229,1.189-6.826.827-9.754-.982-10.4-4.231-20.074-10.062-28.672-17.282-1.837-1.214-3.738-2.328-5.695-3.339-.995-.612-1.898-1.361-2.684-2.226-4.19-4.844-3.797-7.135,1.637-10.343l1.767-1.178c-3.184-2.335-7.05-3.555-10.997-3.469-2.046.197-4.107.197-6.153,0-4.898-.543-9.753-1.418-14.532-2.618-6.795-1.215-12.684-5.422-16.038-11.456-.865-1.605-1.273-3.416-1.178-5.237-.115-5.812,3.455-11.063,8.903-13.092,2.095-.72,3.993-1.767,6.546-3.011-2.618-2.357-4.713-4.451-7.004-6.546-5.106-4.124-10.474-7.79-15.318-12.176-6.451-5.922-11.007-13.62-13.092-22.126-1.599-4.595-1.804-9.56-.589-14.271.734-2.254,1.654-4.444,2.749-6.546.627-.842,1.575-1.387,2.618-1.506,2.82-.392,5.663-.588,8.51-.589,2.946,0,4.451-1.047,3.862-3.731-1.725-12.53-.698-25.286,3.011-37.378,1.353-7.046,3.876-13.817,7.463-20.031,1.683-2.834,4.536-4.776,7.79-5.302,9.557-2.029,15.318,3.731,20.62,10.081,1.7,2.49,3.189,5.118,4.451,7.855,2.618,4.648,5.302,9.23,7.79,13.943,1.113,2.095,1.833,4.32,2.88,6.546.581,1.177,1.307,2.276,2.16,3.273,2.226,2.553,3.731,2.422,5.433,0,.631-.989,1.199-2.017,1.702-3.077,1.339-4.278,5.893-6.661,10.171-5.321,1.79.56,3.331,1.724,4.361,3.292,2.874,3.857,4.782,8.346,5.564,13.092,1.799,5.623,2.204,11.599,1.178,17.413-1.17,5.602-2.044,11.261-2.618,16.954-.214,1.369-.056,2.771.458,4.059,1.244,2.749,2.226,2.946,4.91,1.571s3.862-2.226,5.892-3.011c4.683-1.921,10.036.317,11.958,4.999.205.5.366,1.018.48,1.547,2.207,9.069-.248,18.642-6.546,25.53-1.375,1.637-2.88,3.142-4.059,4.844-.625,1.091-1.109,2.257-1.44,3.469l13.747-2.88c2.488-.524,3.404.327,4.059,2.749.773,3.33.546,6.814-.655,10.016-1.85,7.912-6.5,14.888-13.092,19.638-.738.564-1.418,1.2-2.029,1.898-2.095,2.488-1.702,4.648,1.44,5.171s3.077,1.964,3.142,4.059,0,3.666,0,5.433c-.043,3.958.998,7.852,3.011,11.259,3.125,5.607,2.899,12.482-.589,17.871l3.339,2.88c-1.208,2.561-.273,5.621,2.16,7.07,5.954,6.281,13.516,10.809,21.864,13.092v-16.365c0-5.433-.589-11.979-.72-18.002,0-14.205-.524-28.476-.786-42.681,0-3.273-.916-6.546-.72-9.754.655-11.848,0-23.566,0-35.349,0-19.049.655-38.033,1.047-57.082-.011-1.035.261-2.053.786-2.946,2.367-3.25,4.901-6.375,7.593-9.361,1.789-1.607,3.717-3.052,5.761-4.32,0-6.088-.393-13.092-.851-20.097-.337-2.66-2.019-4.96-4.451-6.088-5.302-3.142-10.474-6.546-15.907-9.23-9.239-4.643-18.008-10.168-26.184-16.496-7.332-5.892-14.729-11.783-21.406-18.329-8.183-8.289-15.049-17.781-20.358-28.148-5.894-11.342-10.295-23.4-13.092-35.873-2.225-11.068-2.951-22.385-2.16-33.647.24-17.225,3.543-34.271,9.754-50.34,6.124-15.485,14.507-29.978,24.875-43.008,11.251-14.205,24.477-26.726,39.277-37.182,8.393-5.797,17.138-11.065,26.184-15.776,11.025-5.422,22.558-9.742,34.433-12.896,7.964-1.984,16.057-3.406,24.221-4.255,13.244-1.875,26.634-2.51,39.997-1.898,17.566.571,35.068,2.409,52.369,5.499,8.703,1.648,17.294,3.834,25.726,6.546,5.215,2.167,10.269,4.705,15.122,7.593,5.237,2.618,10.408,5.433,15.645,7.855,8.431,3.948,15.962,9.585,22.126,16.562,2.749,3.142,5.957,5.891,8.968,8.837v.916c-2.737.046-5.474-.129-8.183-.524-8.51-1.964-16.889-4.255-25.399-6.546s-15.776-3.535-23.697-5.302c-9.361-2.095-17.216-3.077-26.708-4.517-7.431-.847-14.911-1.175-22.388-.982-3.586.424-7.191.665-10.801.72-10.997.786-21.406,1.178-32.338,2.291-8.524,1.137-16.981,2.733-25.333,4.779-7.541,1.47-14.976,3.439-22.257,5.891-8.733,2.935-17.207,6.592-25.333,10.932-10.006,5.378-19.381,11.855-27.952,19.311-7.955,7.258-14.97,15.483-20.882,24.482-8.093,12.081-14.296,25.325-18.395,39.277-2.49,8.249-3.898,16.787-4.19,25.399-.098,7.313.694,14.611,2.357,21.733,4.129,17.874,12.581,34.463,24.613,48.31,5.033,5.427,10.555,10.379,16.496,14.794,7.921,6.546,16.103,12.503,24.09,18.853,1.547,1.4,3.622,2.068,5.695,1.833,3.404-.393,6.546,0,10.212,0s5.302,1.637,6.546,5.041c1.482,4.201,1.798,8.725.916,13.092-.72,7.004-1.178,14.074-1.833,21.078s-1.178,11.979-1.637,17.347c2.692,2.083,5.17,4.43,7.397,7.004,1.588,2.181,2.519,4.77,2.684,7.463.023,6.143-.283,12.284-.916,18.395-.897,6.515-.897,13.123,0,19.638.426,4.551.426,9.131,0,13.681v30.963c0,5.237-.589,10.474-.72,15.711-.065,14.663-.065,29.13-.065,43.532-.075,1.917.306,3.824,1.113,5.564.695,2.515.829,5.152.393,7.724,0,5.106-.72,10.146-.655,15.252,0,7.135.393,14.336.72,21.537,0,3.273.72,6.546.72,9.754,0,5.04-.524,10.146-.458,15.187s.524,11.914.851,18.787c3.693-2.552,7.173-5.398,10.408-8.51,4.434-4.282,8.01-9.37,10.539-14.991,0-.916,1.44-1.506,1.833-2.422.322-1.023.322-2.119,0-3.142-1.833-4.559-1.294-9.73,1.44-13.812,2.273-3.964,3.214-8.553,2.684-13.092-.097-1.154-.097-2.315,0-3.469-.186-1.725,1.062-3.275,2.787-3.461.031-.003.062-.006.093-.009,3.404-.851,3.797-2.684,1.44-5.302-.501-.61-1.072-1.16-1.702-1.637-7.562-5.528-12.604-13.846-14.009-23.108v-.786c-1.113-6.546.916-8.903,7.332-8.052,3.478.71,6.91,1.628,10.277,2.749,1.309-1.702,0-2.946-1.178-4.19-3.07-3.532-5.891-7.272-8.444-11.194-3.15-5.81-3.924-12.615-2.16-18.984,1.543-5.274,7.069-8.3,12.343-6.757,1.143.334,2.218.872,3.171,1.586.524.327.982.916,1.571,1.113s3.6,1.571,4.582.982c1.963-1.191,2.856-3.572,2.16-5.761-.75-2.358-1.341-4.763-1.767-7.201-.782-4.505-1.306-9.051-1.571-13.616-.219-8.38,1.719-16.675,5.63-24.09,1.122-1.92,2.695-3.538,4.582-4.713,5.237-3.339,8.575-2.357,11.587,3.077.655,1.113,1.178,2.291,1.833,3.404,1.833,3.011,3.469,3.142,5.63.327,1.351-1.924,2.534-3.961,3.535-6.088,1.375-2.684,2.553-5.433,3.928-8.052,2.946-5.368,5.957-10.736,8.968-16.038,3.639-5.481,8.973-9.62,15.187-11.783,5.338-.947,10.744,1.271,13.878,5.695,2.53,4.404,4.55,9.082,6.022,13.943,2.244,8.614,3.95,17.359,5.106,26.184.458,5.432.326,10.897-.393,16.3-.327,3.928,0,4.648,4.255,4.451,1.307-.098,2.62-.098,3.928,0,6.219.524,8.052,2.422,9.557,8.641,1.136,5.529.705,11.265-1.244,16.562-1.461,5.405-4.149,10.401-7.855,14.598-4.059,4.255-8.51,8.117-13.092,11.979-3.339,2.88-6.546,5.499-10.343,8.248-1.244.916-2.618,1.702-3.928,2.553l.786,1.375c2.029.916,4.124,2.029,6.219,2.749,4.978,1.968,8.371,6.636,8.706,11.979.675,4.706-1.512,9.363-5.564,11.848-4.613,3.963-10.421,6.267-16.496,6.546-3.608.409-7.163,1.199-10.605,2.357-1.381.295-2.809.295-4.19,0-4.109,0-8.131,1.181-11.587,3.404,1.833,1.178,3.011,2.095,4.32,2.749,1.859.801,2.717,2.958,1.916,4.817-.062.144-.134.284-.214.42-1.653,3.601-4.529,6.501-8.117,8.183-1.597.844-3.129,1.807-4.582,2.88-8.883,7.106-18.793,12.823-29.392,16.954-4.32,1.767-5.761,1.178-9.361-2.618l-8.837,13.681c-1.44.393-2.684.393-3.339.982-5.433,5.302-10.801,10.67-16.169,16.103-1.575,1.554-2.306,3.771-1.964,5.957.064,5.732,1.15,11.407,3.208,16.758,1.077,3.708,1.126,7.631,0,11.325-.466,6.2-1.72,12.315-3.731,18.198-2.785,8.669-11.315,14.154-20.358,13.092-3.064-.307-6.158.004-9.099.916-3.83.918-7.822.918-11.652,0-1.833-.393-3.6-2.946-4.648-4.844-1.472-3.791-4.427-6.817-8.183-8.379-5.301-2.549-10.007-6.185-13.812-10.67-.748-1.019-1.098-2.276-.982-3.535-.066-7.344.261-14.686.982-21.995.851-6.088,1.767-13.092,8.968-15.58,3.309-3.703,5.569-8.223,6.546-13.092.458-8.052,0-16.169.393-24.286-.009-2.604.144-5.205.458-7.79.655-4.255,0-4.975-3.535-7.528-3.183-2.416-6.221-5.017-9.099-7.79-.393-.393-.655-.916-1.113-1.113-7.07-3.862-11.259-10.932-17.609-15.514-1.347-1.115-2.575-2.365-3.666-3.731ZM546.758,738.067c-.393,0-.589-.524-.916-.589s-.393,0-.393.524c-.043.282-.043.569,0,.851l1.309-.786Z"/>
  </g>
</svg>