<?xml version="1.0" encoding="UTF-8"?>
<svg id="Layer_1" xmlns="http://www.w3.org/2000/svg" width="14.222in" height="14.222in" version="1.1" viewBox="0 0 1024 1024">
  <!-- Generator: Adobe Illustrator 29.2.1, SVG Export Plug-In . SVG Version: 2.1.0 Build 116)  -->
  <path d="M854.798,102.5H169.202c-36.839,0-66.702,29.863-66.702,66.702v685.596c0,36.839,29.864,66.702,66.702,66.702h685.596c36.839,0,66.702-29.864,66.702-66.702V169.202c0-36.839-29.864-66.702-66.702-66.702ZM199.567,213.781l-.002-.002c3.471-2.161,6.55-4.716,10.349-6.55,5.388,6.044,9.231,13.303,11.201,21.157,8.842,8.711,19.846,15.261,28.296,24.824,19.65,20.24,38.907,40.61,58.557,60.653.917-3.013,1.441-6.223,2.096-9.301,3.733-.458,8.646,1.703,11.397-1.834,8.724-9.593,16.924-19.651,24.562-30.13,2.62-4.389,8.188-4.192,12.642-4.978,2.087,6.496,3.492,13.191,4.192,19.978-6.223,1.244-14.606-1.572-18.733,4.651-6.092,7.664-13.1,14.476-18.995,22.401,1.692,5.117,3.886,10.053,6.55,14.738,2.817-.59,5.633-1.375,8.45-2.096,12.183,13.952,25.348,27.052,37.99,40.61,2.03,1.9,1.703,4.781,1.769,7.336v59.278c-25.086-23.711-50.435-47.553-75.259-71.657.524-2.685,1.048-5.436,1.441-8.188-4.608-2.635-9.455-4.828-14.476-6.55-7.926,5.895-14.738,13.1-22.467,19.192-6.157,4.192-3.079,12.51-4.585,18.668-6.613-.888-13.172-2.134-19.65-3.733,0-4.716,0-10.611,4.913-13.1,10.471-7.645,20.508-15.867,30.065-24.628,3.341-2.751,1.179-7.336,1.31-10.939,3.043-.987,6.183-1.645,9.367-1.965-.851-2.554-3.275-3.93-5.044-5.764-18.34-17.62-36.549-35.37-54.823-52.99-6.447-6.464-12.423-13.381-17.881-20.698-3.275-3.668-5.764-8.515-11.07-9.694-6.578-1.523-12.567-4.939-17.227-9.825,4.389-6.681,7.663-15.196,15.065-18.864ZM379.886,618.764c-14.738,15.524-30.589,29.999-44.868,45.85-37.641,37.117-75.085,74.386-112.332,111.808-4.847,5.895-5.698,15.524-13.886,18.34-11.214.081-20.37-8.944-20.451-20.158-.002-.311.003-.622.015-.933,3.603-8.777,14.41-8.842,20.37-15.13,24.41-24.497,48.907-49.016,73.491-73.557h.001c31.702-33.47,65.5-64.844,97.66-97.725.655,10.492.655,21.014,0,31.505ZM598.982,671.492c-2.031,14.279-3.34,28.82-6.157,43.033-7.729,9.825-16.31,19.126-24.497,28.689-15.065,13.689-33.077,24.17-46.702,39.3-10.684,10.707-20.599,22.154-29.671,34.257-12.079-15.512-25.21-30.175-39.3-43.885-11.921-9.759-24.235-18.929-36.09-28.624-8.056-8.646-26.527-30.785-26.658-33.405-1.703-14.148-3.996-28.296-5.568-42.444,0-87.835,0-175.737-.655-263.506,0-33.667-.393-67.4,0-101.067v.394c9.499,6.026,17.948,13.624,27.445,19.65,18.078,10.022,41.92,14.738,60.522,3.472,10.808-2.817,13.821-14.672,20.174-22.467,4.585,5.96,7.925,13.1,13.1,18.668,5.502,3.406,11.725,5.699,17.554,8.58,13.35,2.945,27.279,1.78,39.955-3.341,14.148-5.502,24.956-16.637,37.531-24.694,0,122.267-.327,244.73-.983,367.39ZM732.341,769.939c-3.844-2.927-7.437-6.169-10.742-9.694l-117.9-112.005.458-41.92h.001s89.735,94.582,134.733,141.676c2.838,2.849,5.425,5.939,7.729,9.236,11.135,15.851,22.794,31.44,33.863,47.357-16.113-11.462-32.029-23.187-48.142-34.65ZM803.999,395.149c-8.453,9.992-17.792,19.2-27.903,27.51-17.423,13.1-33.733,28.492-53.513,38.121-14.083,3.865-27.707,10.021-42.379,10.873,14.017-11.856,21.353-28.755,29.213-44.606,3.911-18.978,2.897-38.641-2.947-57.116-10.349-12.576-18.405-26.921-29.147-39.3-4.585,3.668-10.808,3.668-15.392,7.074-19.65,18.929-38.121,38.579-57.705,57.247v-28.885c0-3.144,2.424-5.109,4.323-7.14,12.314-12.052,24.366-24.366,36.68-36.483,4.388-4.126,3.341-11.2,7.663-15.393,17.467-17.467,34.802-34.802,52.007-52.007,3.013-3.144,8.188-1.114,11.463-3.93l-.133-.132c1.703-1.441,3.209-3.013,4.913-4.519,5.633,4.781,10.611,10.283,15.786,15.589-5.829,4.847-10.742,15.655-3.079,20.96,16.639,18.657,38.033,32.444,61.897,39.89,7.533,1.965,15.065,4.061,22.729,5.568,7.664,1.507,13.951-1.31,21.025-.721-8.398,24.115-20.365,46.834-35.501,67.4Z"/>
</svg>