<?xml version="1.0" encoding="UTF-8"?>
<svg id="Layer_1" xmlns="http://www.w3.org/2000/svg" width="14.222in" height="14.222in" version="1.1" viewBox="0 0 1024 1024">
  <!-- Generator: Adobe Illustrator 29.2.1, SVG Export Plug-In . SVG Version: 2.1.0 Build 116)  -->
  <path d="M660.281,373.357c-10.416,6.551-22.665,1.245-33.867.328,11.791,4.454,23.779,8.581,35.832,12.25,1.048-12.708,2.62-25.351,2.751-38.06-2.096,8.385-1.834,17.294-4.717,25.482h.001Z"/>
  <path d="M532.345,472.534c-15.787-10.94-31.509-22.01-47.362-32.754l-3.248,4.203c13.791,11.243,27.583,22.615,41.57,33.792,2.115,1.333,3.566,3.499,3.996,5.961,1.965,22.6,2.489,45.331,4.979,67.865,4.454-21.421,6.551-43.235,10.743-64.786.336-2.085,1.585-3.91,3.406-4.979,12.643-8.45,25.679-16.311,38.06-25.22-14.084,4.52-27.971,9.826-41.859,14.87-3.275,1.048-7.075,3.537-10.285,1.048Z"/>
  <path d="M854.798,102.5H169.202c-36.839,0-66.702,29.863-66.702,66.702v685.596c0,36.839,29.864,66.702,66.702,66.702h685.596c36.839,0,66.702-29.864,66.702-66.702V169.202c0-36.839-29.864-66.702-66.702-66.702ZM408.8,237.298c0-3.472,3.93-4.454,6.551-5.83,11.791-5.241,23.321-11.202,35.112-16.442l-.066-.262c8.201-.918,16.47-1.049,24.696-.393,0,25.286,0,50.637-.59,75.988-3.932,4.097-9.855,5.597-15.263,3.865-19.652,2.358-39.697,5.896-59.611,8.581,2.424-22.01,5.699-43.89,9.171-65.507ZM672.399,369.295c-1.179,22.862-2.686,45.855-3.799,68.586.21,7.352-.74,14.692-2.817,21.748-5.896,17.556-10.809,35.439-16.966,52.864-6.551,7.795-15.984,12.25-23.124,19.259-1.048,1.245-.655,3.079-.721,4.585,5.546,77.822,11.092,155.667,16.639,233.533.786,6.944-4.782,11.988-7.664,17.752-1.922,4.35-4.976,8.105-8.843,10.874-20.831,11.791-41.619,23.67-62.363,35.636-5.887,4.021-13.033,5.767-20.111,4.913-10.612-.655-21.945,2.555-32.033-2.227-26.203-10.743-52.93-20.373-79.001-31.378-6.551-7.599-14.215-16.442-12.774-27.12,1.834-80.967,3.144-161.933,4.848-242.9.852-5.568-4.979-7.992-8.45-11.005-19.652-14.543-36.356-32.754-54.502-49.13-2.424-2.424-5.765-4.717-5.896-8.45-1.245-39.632-2.686-79.264-4.062-118.568.512-5.62,2.209-11.067,4.979-15.984,1.441-3.341,2.882-7.73,7.206-7.992,31.574-6.551,63.083-13.953,94.92-19.652,3.393,13.045,6.018,26.279,7.861,39.632-11.922,17.425-29.151,31.312-38.518,50.637,15.984-13.429,30.592-28.496,45.855-42.383,1.965-2.031,5.11-3.996,4.52-7.271-1.769-12.053-3.603-24.172-5.372-36.291-1.376-7.664,6.944-11.988,12.25-15.722-.655-30.657-1.638-61.184-2.424-91.71,7.599-4.717,13.756-12.184,22.796-12.708h0c13.691-1.441,27.906-2.817,41.793-4.323,2.62,24.893.393,50.178,1.179,75.202-1.048,28.561-3.996,56.926-6.158,85.159-16.311,4.52-32.754,8.45-49.065,13.101,18.538-.786,37.077-2.424,55.681-3.668,2.262-4.239,3.727-8.858,4.323-13.625,1.703-45.069,3.865-90.138,5.634-135.206,11.202,2.424,23.124,3.144,33.212,9.04,7.795,4.192,15.918,7.861,23.714,12.053,4.454,2.227,3.21,8.057,3.603,12.119-.655,18.014-1.179,35.963-2.293,53.912-3.472,22.141-7.075,44.217-10.94,66.293-11.267.721-22.534,0-33.802.852,13.953,3.013,28.037,5.241,42.121,7.664,4.258-34.129,9.761-68.127,14.346-102.191,15.787,1.245,29.282,9.564,42.973,16.704.459,29.151,3.537,58.301,1.245,87.386Z"/>
</svg>