<?xml version="1.0" encoding="UTF-8"?>
<svg id="Layer_1" xmlns="http://www.w3.org/2000/svg" width="1024" height="1024" version="1.1" viewBox="0 0 1024 1024">
  <!-- Generator: Adobe Illustrator 29.2.1, SVG Export Plug-In . SVG Version: 2.1.0 Build 116)  -->
  <defs>
    <style>
      .st0 {
        fill: #fff;
      }
    </style>
  </defs>
  <rect x="102.5" y="102.5" width="819" height="819" rx="66.702" ry="66.702"/>
  <g id="Class_Icons">
    <path id="Paladin" class="st0" d="M373.804,211.74c1.964-8.971,2.095-18.269,3.929-27.24.393,12.31,1.768,24.621,1.375,36.865-1.456,12.799-4.221,25.416-8.251,37.651-4.453,14.144-12.638,27.436-12.769,42.562-1.046,6.608-1.178,13.328-.393,19.972,2.947,19.12,7.203,38.044,11.59,56.837,8.84,11.525,18.924,22.198,28.288,33.395,8.905,6.155,20.364,5.238,30.579,3.863,3.601-2.881,6.024-7.006,9.298-10.149,4.518,3.798,8.709,8.054,13.096,11.917,4.843-7.977,10.317-15.553,16.37-22.656,9.626-9.953,19.186-20.102,28.811-30.055,3.552-3.155,6.273-7.135,7.923-11.59,3.495-6.515,6.22-13.415,8.12-20.561h1.506c1.238,5.667,3.313,11.118,6.155,16.174,1.629,4.708,3.994,9.128,7.006,13.096,11.59,11.917,22.984,23.966,34.508,35.949,4.976,6.024,8.643,13.096,13.096,19.317,4.453-3.667,8.447-7.792,13.096-11.525,4.518,3.798,7.072,11.786,14.209,10.608,10.149,1.31,23.049.851,29.335-8.512,6.024-7.072,12.572-14.537,18.596-21.805,3.388-2.864,5.85-6.67,7.072-10.935,3.667-19.644,9.036-38.699,11.132-58.474,0-8.643-1.113-17.287-2.161-25.865-5.697-18.662-15.65-36.08-17.549-55.789-4.518-16.501-1.441-33.46-.786-50.289,1.637,8.971,1.833,18.204,3.798,27.174,3.667,8.054,8.447,15.519,12.441,23.442,4.584,11.394,17.745,15.322,25.013,24.49,4.322,9.036,8.054,18.269,12.31,27.305,1.209,3.388,1.209,7.089,0,10.477-3.405,16.567-6.548,33.199-9.953,49.831-.851,3.396-.851,6.95,0,10.346,6.548-17.483,9.364-36.342,14.668-54.283,3.209,17.025,10.018,33.199,14.733,49.831,1.579,3.578,2.21,7.501,1.833,11.394-4.125,23.9-11.721,75.826-12.179,78.576,6.155-10.084,11.132-20.757,17.418-30.645-.72,18.334-2.357,36.669-3.536,55.004-5.435,17.483-17.942,31.3-28.484,45.836,7.465-3.994,14.537-8.709,21.87-13.096-2.095,9.888-4.78,19.644-7.006,29.532-.524,1.899-.786,4.191-2.685,5.173-11.655,6.548-23.704,12.31-35.228,19.12,10.608-.982,20.954-3.405,31.562-4.518-5.238,8.709-11.263,16.828-16.698,25.406-1.244,1.572-2.161,3.994-4.518,3.994-9.626.589-19.644.655-29.008,1.375,6.936,3.584,14.138,6.627,21.543,9.102-10.215,5.566-20.823,10.411-31.234,15.519-6.548-7.137-12.507-14.733-18.924-21.936-3.209-3.078-1.375-7.792-1.375-11.655,0-12.376,3.667-25.079,0-37.258-1.964-8.447-3.798-16.894-5.762-25.341-8.031.638-15.68,3.697-21.936,8.774,2.095,36.865,4.518,73.731,6.548,110.596-.589,5.238,3.405,9.233,5.697,13.489,3.209,6.024,10.739,6.875,15.388,11.263,3.274,3.274,8.251,2.554,12.507,3.209,7.596,1.31,14.537-3.012,21.87-4.322-11.132,10.542-23.704,19.644-34.77,30.252-15.126,22.722-29.925,45.836-44.985,68.558-11.132,15.584-17.418,33.853-26.192,50.813-5.274,12.342-9.693,25.031-13.227,37.979-1.179-45.836-1.702-91.28-2.685-136.919,0-16.698-3.209-33.329-1.441-50.027,4.191-15.061,4.453-31.103,10.346-45.836,12.931-17.467,24.013-36.229,33.068-55.986-8.054.327-16.043,1.179-24.097,1.637-4.715,0-7.858,3.929-11.525,6.548-7.268,5.631-15.126,10.673-22.132,16.632-3.405,6.548-4.191,14.275-7.334,21.019-4.322-6.548-3.929-15.322-8.447-21.739-9.757-7.203-19.644-14.733-29.401-21.478-9.102-1.637-18.465-1.702-27.698-2.423,7.374,16.675,16.529,32.504,27.305,47.211,13.096,15.388,11.001,36.865,16.567,55.2.71,11.452.271,22.947-1.31,34.312-1.048,50.682-1.702,101.364-2.947,152.045-4.191-10.739-6.548-22.263-11.263-32.74-9.691-18.989-16.697-39.288-29.204-57.033l-38.699-58.932c-2.126-3.733-4.651-7.223-7.53-10.411-10.804-9.429-22.132-18.269-32.74-28.026,7.334,1.31,14.275,5.631,21.87,4.322,4.256-.655,9.233,0,12.507-3.209,4.715-4.387,12.179-5.238,15.388-11.263,2.216-3.127,4.042-6.513,5.435-10.084,2.03-37.913,4.715-75.826,6.548-113.805-6.513-5.096-14.356-8.211-22.591-8.971-2.488,11.263-5.369,22.46-7.465,33.788,0,11.983,1.572,23.966,2.161,35.949,0,2.357-1.506,4.06-2.881,5.697-6.09,6.548-11.786,14.013-17.942,20.757-10.411-5.107-21.019-9.953-31.234-15.519,7.405-2.475,14.607-5.518,21.543-9.102-9.626-.72-19.644-.786-29.008-1.375-2.357,0-3.274-2.423-4.518-3.994-5.435-8.578-11.459-16.697-16.697-25.406,10.608,1.113,20.954,3.536,31.562,4.518-11.525-6.548-23.573-12.572-35.228-19.12-1.899-.982-2.161-3.274-2.685-5.173-2.226-9.888-4.911-19.644-7.006-29.532,7.334,4.06,14.406,8.774,21.87,13.096-7.556-9.463-14.574-19.345-21.019-29.597-2.75-6.548-7.792-12.048-7.792-19.644-.851-17.287-2.619-34.574-3.209-51.926,6.548,9.888,11.263,20.561,17.418,30.645-.458-2.685-8.578-55.92-12.376-80.606,4.387-19.972,13.096-38.895,17.09-58.932,5.304,17.942,8.185,36.8,14.668,54.283.831-2.987.943-6.128.327-9.167-3.798-18.662-7.399-37.258-11.132-55.855-.289-3.206.519-6.415,2.292-9.102,3.732-7.858,6.941-15.977,10.739-23.835,7.268-9.167,20.43-13.096,25.013-24.49,3.994-7.923,8.774-15.388,12.441-23.442"/>
  </g>
</svg>