<?xml version="1.0" encoding="UTF-8"?>
<svg id="Layer_1" xmlns="http://www.w3.org/2000/svg" width="14.222in" height="14.222in" version="1.1" viewBox="0 0 1024 1024">
  <!-- Generator: Adobe Illustrator 29.2.1, SVG Export Plug-In . SVG Version: 2.1.0 Build 116)  -->
  <path d="M854.798,102.5H169.202c-36.839,0-66.702,29.863-66.702,66.702v685.596c0,36.839,29.864,66.702,66.702,66.702h685.596c36.839,0,66.702-29.864,66.702-66.702V169.202c0-36.839-29.864-66.702-66.702-66.702ZM329.818,207.866c.928-7.683,2.283-15.309,4.058-22.842,3.992,11.912,6.545,24.348,10.996,36.129,9.229,18.261,17.344,37.176,27.227,55.175,23.039,34.362,45.815,69.05,68.788,103.346,22.122,26.18,44.375,51.771,67.218,77.166-14.923,15.577-29.322,31.743-43.721,47.844-20.093-13.09-37.83-29.322-56.484-44.31-10.865-7.789-17.606-19.635-26.18-29.518-4.877-6.446-8.699-13.626-11.323-21.271-8.157-19.248-15.301-38.91-21.402-58.905-4.712-21.86-11.323-43.459-13.09-65.909-3.229-25.569-5.28-51.27-6.152-77.101l.065.196ZM430.678,730.554c3.814-9.038,8.552-17.658,14.137-25.722l-.065-.262c2.799-6.348,7.544-11.643,13.548-15.119-3.094,12.102-.144,24.952,7.92,34.492,3.022,5.126,5.23,10.69,6.545,16.494,2.635,6.251,2.799,13.268.458,19.635-5.236,9.163-15.708,18.85-26.966,14.334-6.994-6.037-12.599-13.517-16.428-21.926-2.68-7.125-2.373-15.03.851-21.926ZM486.9,649.722c2.716-4.982,7.518-8.487,13.09-9.556-2.458,4.396-3.292,9.516-2.356,14.465,1.571,3.076,4.974,4.843,6.152,8.181,4.1,10.794,6.869,22.047,8.247,33.511-.916,10.538-2.618,21.075-3.796,31.613-5.956,1.178-12.239,5.301-18.13,1.833-7.92-1.636-11.585-9.163-16.624-14.595-2.397-2.147-4.162-4.908-5.105-7.985-1.399-12.163-1.024-24.466,1.113-36.521,5.498-7.2,13.614-12.37,17.606-20.748l-.197-.198ZM568.582,825.654c-4.74,2.065-10.072,2.321-14.988.72-15.774-3.338-31.416-9.752-47.713-7.069-11.585,2.618-22.973,5.76-34.558,8.116-9.621.916-16.363-6.545-23.169-12.108-3.946-4.51-7.371-9.45-10.21-14.726,6.545-12.436,24.151-9.948,32.333-21.141,6.545-9.621,10.93-21.075,17.41-30.958h.194c12.697-6.546,28.078-10.8,41.954-5.237,5.171,2.683,13.09,2.553,15.185,8.705,4.32,8.443,8.77,16.821,13.09,25.068,5.563,8.574,15.643,11.65,24.675,14.988,3.987,1.787,7.309,4.788,9.49,8.574-5.291,10.483-13.525,19.195-23.693,25.068ZM530.68,640.412c-.042-.016-.084-.032-.125-.049v-.198c.046.081.081.166.125.247,4.426,1.742,9.713,3.071,11.918,7.674,4.058,9.883,14.334,15.25,19.177,24.217,1.996,12.334,1.996,24.908,0,37.241-6.545,7.658-11.847,18.392-22.58,20.813-5.563,2.487-11.061-1.571-16.494-2.422-1.244-10.538-2.945-21.075-3.862-31.613,1.272-11.45,3.932-22.703,7.92-33.511,1.178-3.338,4.582-5.105,6.152-8.181.946-4.857.149-9.885-2.231-14.218ZM600.653,752.283c-3.788,8.343-9.324,15.775-16.232,21.795-11.127,4.451-21.402-4.974-26.704-13.876-4.778-10.865.982-21.991,4.451-32.267,7.774-11.105,14.893-24.556,10.171-38.468-.009-.005-.017-.011-.026-.017v-.066c.01.028.017.055.026.082,5.823,3.371,10.405,8.529,13.064,14.709,5.676,8.215,10.501,16.987,14.399,26.18,3.224,6.896,3.53,14.801.851,21.926ZM682.923,837.566c-7.592,6.545-14.857-5.76-23.431-3.992,0-6.545-6.545-8.901-10.407-13.09-2.16-8.901-1.113-18.326-4.189-27.031-5.171-14.988-9.621-30.238-14.923-45.161-8.509-20.682-16.559-41.561-25.329-62.178-8.05-16.494-15.839-33.183-24.151-49.546-10.821-17.453-21.73-34.907-32.725-52.36-10.145-13.09-21.075-25.395-31.351-38.289,7.396-7.2,15.054-14.137,22.58-21.141l.067-.59c6.021-4.451,12.697-7.789,19.046-11.65,15.054,23.824,29.584,47.975,44.572,71.996,2.422,3.731,3.927,7.854,6.152,11.65-3.099,1.394-6.058,3.082-8.836,5.04-.654,5.456-.654,10.972,0,16.428,4.344,5.25,8.953,10.274,13.81,15.054,4.385,4.32,12.043,4.451,15.054,10.21,1.279,7.149,3.229,14.161,5.825,20.944,8.181,20.29,16.297,40.579,24.544,60.804,1.923,6.189,3.389,12.511,4.385,18.915,5.934-.268,11.787,1.46,16.624,4.909-1.853,5.013-3.148,10.215-3.862,15.512,2.945,9.163,6.545,18.064,9.883,27.162l-2.749,5.105c3.6,3.338,9.49,5.171,9.752,10.93,5.236,12.108-14.988,18.064-10.341,30.369ZM685.999,303.031c-2.553,12.239-5.498,24.413-8.181,36.652-3.869,15.305-8.588,30.382-14.137,45.161-4.123,13.09-10.538,25.591-15.904,38.354-7.487,10.687-15.527,20.977-24.086,30.827-26.5,23.597-54.771,45.128-84.562,64.403-9.752,7.33-18.85,15.381-28.209,23.169-11.454,13.614-22.842,27.293-34.034,41.103-11.323,17.737-22.253,35.671-33.314,53.539-8.181,16.232-15.904,32.725-23.889,49.088-8.901,20.682-16.952,41.757-25.46,62.571-5.367,14.923-9.818,30.173-14.923,45.161-3.076,8.705-2.029,18.13-4.189,27.031-3.6,4.385-10.668,6.545-10.407,13.09-8.574-1.767-15.904,10.865-23.497,4.058,4.712-12.37-15.577-18.326-10.276-30.434,0-5.76,6.152-7.592,9.752-10.93l-2.749-5.105c2.88-7.985,5.825-15.97,8.901-23.889,2.88-6.545-1.833-12.566-2.88-18.784,4.817-3.439,10.646-5.167,16.559-4.909,1.014-6.217,2.435-12.361,4.254-18.392,8.77-21.664,17.41-43.263,26.18-64.927,2.422-5.76,2.683-12.043,4.582-17.868,2.094-3.665,6.545-4.712,10.014-6.545,6.031-3.983,11.361-8.937,15.774-14.661,5.825-4.712,2.618-13.09,3.011-19.635-1.833-2.945-6.021-3.731-8.901-5.629,8.181-16.428,18.85-31.547,28.209-47.321,10.717-18.705,22.885-36.54,36.39-53.342,12.108-13.09,23.039-26.573,35.998-38.485,22.908-25.329,45.161-51.313,67.349-77.232,20.944-30.958,41.299-62.309,62.113-93.398,13.09-18.522,21.01-40.187,31.547-60.28,6.545-13.09,8.574-27.424,13.09-40.972l.13.524c1.767,7.33,2.945,14.792,3.992,22.253-.785,32.005-4.32,63.945-8.247,95.754Z"/>
</svg>