<?xml version="1.0" encoding="UTF-8"?>
<svg id="Layer_1" xmlns="http://www.w3.org/2000/svg" width="14.222in" height="14.222in" version="1.1" viewBox="0 0 1024 1024">
  <!-- Generator: Adobe Illustrator 29.2.1, SVG Export Plug-In . SVG Version: 2.1.0 Build 116)  -->
  <path d="M581.803,302.288c6.984,1.768,14.298,1.768,21.282,0,19.252-6.941,39.289-12.507,58.082-19.645-9.102-4.584-18.4-8.644-27.502-13.096-17.287,11.001-34.836,21.544-51.862,32.741Z"/>
  <path d="M388.24,270.203h.065c-8.382,4.255-17.091,7.726-25.276,12.31,19.645,6.876,39.289,13.096,58.934,19.645,6.716,1.603,13.715,1.603,20.43,0-15.519-10.674-32.217-20.365-48.26-30.776-1.703-1.113-3.863-2.488-5.893-1.179Z"/>
  <path d="M854.798,102.5H169.202c-36.839,0-66.702,29.863-66.702,66.702v685.596c0,36.839,29.864,66.702,66.702,66.702h685.596c36.839,0,66.702-29.864,66.702-66.702V169.202c0-36.839-29.864-66.702-66.702-66.702ZM759.654,262.999c-15.454,15.061-31.038,29.991-46.427,45.051-4.4,3.237-9.569,5.268-14.995,5.893-11.394,3.078-22.919,5.828-34.181,9.167-23.835,8.775-47.605,17.68-71.375,26.52-7.662,2.123-15.862.986-22.657-3.143-12.18-6.548-23.573-15.585-37.521-18.073,0,5.893.72,11.852.393,17.811-2.554,25.669-5.893,51.272-8.12,77.007,6.155-.458,12.245-1.31,18.335-1.899,11.721-.982,22.198-7.203,33.723-9.233-4.051,10.732-8.933,21.132-14.602,31.104-4.322-3.667-7.53-8.513-12.114-11.852-5.115-.469-10.271.156-15.126,1.833.786,7.989,1.637,15.912,2.488,23.901,0,4.125,5.108,6.548,4.322,11.001-1.637,11.525-.589,23.181-1.506,34.771-3.012,91.151-6.548,182.301-10.019,273.452-3.471,21.151-7.661,42.17-11.918,63.19-4.715-20.823-8.84-41.843-12.703-62.862-3.667-79.757-7.443-159.514-11.328-239.27-.917-23.77-1.572-47.605-3.34-71.244,7.138-9.364,4.649-21.936,6.548-32.741-4.621-1.086-9.335-1.722-14.079-1.899-5.37,2.947-8.513,8.578-13.096,12.507-5.575-9.96-10.518-20.261-14.799-30.842,10.084,1.572,19.317,6.548,29.27,8.185,7.596.917,15.257,1.703,22.919,2.095-2.292-24.949-5.697-49.111-8.84-73.929-.589-7.89-.589-15.814,0-23.704-15.464,3.856-30.09,10.514-43.152,19.645-8.62,5.647-19.552,6.415-28.877,2.03-22.351-8.294-44.68-16.545-66.988-24.752-13.948-3.929-27.961-7.53-41.974-11.132-6.548-1.572-10.281-7.923-15.257-11.983-18.924-16.96-35.557-37.194-57.1-51.338l37.259-10.674c26.193-6.941,51.469-17.877,77.007-27.371,5.828-4.322,13.096-1.506,19.317-.524,5.076.341,10.047,1.606,14.668,3.732,21.282,13.096,42.629,25.341,63.976,38.11,4.025,3.242,8.881,5.285,14.013,5.893,9.888,0,19.645.982,29.532,1.31-.123-3.595.118-7.193.72-10.739,2.357-5.828,7.661-9.953,9.888-15.847-2.357-5.566-10.674-7.858-9.626-14.799.982-10.346,1.441-20.823,2.619-31.169h-.199c6.736-2.25,14.022-2.25,20.758,0,1.113,10.543,1.899,21.085,2.685,31.628,1.113,6.548-8.185,8.971-9.036,14.93,4.256,8.382,13.096,15.257,10.674,25.734,9.7.194,19.395-.573,28.943-2.292,24.228-14.275,48.391-28.637,72.488-43.087,4.979-1.921,10.203-3.134,15.519-3.601,5.435-.72,11.394-3.274,16.37,0,18.597,7.661,37.587,14.21,56.38,21.609,19.645,6.024,39.289,11.328,58.934,17.156-6.522,4.573-12.795,9.491-18.793,14.733Z"/>
</svg>