<?xml version="1.0" encoding="UTF-8"?>
<svg id="Layer_1" xmlns="http://www.w3.org/2000/svg" width="1024" height="1024" version="1.1" viewBox="0 0 1024 1024">
  <!-- Generator: Adobe Illustrator 29.2.1, SVG Export Plug-In . SVG Version: 2.1.0 Build 116)  -->
  <defs>
    <style>
      .st0 {
        fill: #fff;
      }
    </style>
  </defs>
  <rect x="102.5" y="102.5" width="819" height="819" rx="66.702" ry="66.702"/>
  <g id="Class_Icons">
    <g id="Sorcerer">
      <path class="st0" d="M509.927,184.5c1.572,0,18.799,114.303,29.738,149.151,8.515,27.053,16.834,54.237,25.677,81.29,10.099,29.048,21.888,57.482,35.306,85.154,23.415,52.978,39.057,109.06,46.442,166.509,6.55,45.852-16.638,103.757-48.21,136.181-34.76,34.965-86.884,46.114-132.906,28.428-44.477-17.424-72.054-62.556-83.582-107.229-6.162-21.903-8.031-44.791-5.502-67.403,3.37-27.341,8.912-54.37,16.572-80.831,7.592-25.401,17.05-50.207,28.297-74.215,13.337-26.5,25.126-53.751,35.306-81.617,13.308-38.152,23.881-77.203,31.638-116.858,3.472-20.306,22.075-99.827,21.223-118.561,1.769,0,.786,16.965,0,0M502.001,618.655c-.917,15.328-11.201,12.184-19.061,32.097-2.882-10.218,5.764-31.638-1.114-43.822-2.329,8.559-6.663,16.44-12.642,22.992-7.696,10.717-11.883,23.554-11.987,36.747.589,7.761,2.822,15.308,6.55,22.14,2.593,7.125,3.729,14.699,3.341,22.271-2.489-6.55-6.157-9.498-15.393-9.695-5.371-1.048-5.568-10.415-3.079-15.721-7.598,1.572-8.057,19.651-7.467,23.647,1.834,12.511,9.17,19.651,16.572,29.607,6.55,8.384,9.891,18.079,19.651,23.385,11.398,6.55,22.271,10.153,34.127,7.074,2.751-.721,3.144,2.751,13.756,3.144,6.026,0,9.105-4.978,10.219-11.594,10.875-2.672,21.145-7.385,30.262-13.887,13.821-12.38,10.088-48.603,1.245-58.953,2.882,13.494-7.533,12.708-3.472,21.747,1.245,8.188-12.446,3.996-17.882,7.336-5.109,5.502-3.734,9.105-7.271,15.328-4.192-9.17,2.62-17.555,6.157-25.612,5.287-9.491,7.849-20.259,7.402-31.114-.116-9.903-3.373-19.513-9.301-27.446-5.827-7.642-8.689-17.136-8.057-26.725-10.481,2.882,2.882,45.852-8.843,58.101-10.677-11.267-1.703-44.411-2.293-54.761-.159-15.651-3.807-31.069-10.677-45.132-3.913-6.959-7.075-14.315-9.432-21.944-2.031-8.057-3.865-22.73-1.376-26.201-9.367,13.559-5.502,37.795-2.62,45.852,2.906,13.661,3.811,27.673,2.686,41.595"/>
    </g>
  </g>
</svg>