<?xml version="1.0" encoding="UTF-8"?>
<svg id="Layer_1" xmlns="http://www.w3.org/2000/svg" width="1024" height="1024" version="1.1" viewBox="0 0 1024 1024">
  <!-- Generator: Adobe Illustrator 29.2.1, SVG Export Plug-In . SVG Version: 2.1.0 Build 116)  -->
  <defs>
    <style>
      .st0 {
        fill: #fff;
      }
    </style>
  </defs>
  <rect x="102.5" y="102.5" width="819" height="819" rx="66.702" ry="66.702"/>
  <g id="Class_Icons">
    <g id="Wizard">
      <path class="st0" d="M437.087,824.29l1.768,2.03c-1.85,1.365-4.373,1.365-6.222,0-11.724-5.502-23.383-11.069-35.238-16.244-25.544-11.331-51.22-22.4-76.895-33.601l-4.978-2.03,1.899-2.292c3.209-3.668,6.55-7.27,9.694-10.873,2.03-2.227,4.192-4.388,6.55-6.55,4.194-3.75,7.543-8.35,9.825-13.493,4.781-11.2,9.759-22.335,14.475-33.535.508-1.889,2.173-3.237,4.126-3.34,2.426-.152,4.836-.502,7.205-1.048,11.156-2.565,20.576-9.991,25.675-20.239,2.096-3.93,3.93-7.991,6.026-12.379l4.257,1.113c11.279,3.98,22.899,6.918,34.714,8.777,1.424.357,2.919-.219,3.733-1.441,2.171-2.908,5.092-5.172,8.449-6.55,1.24-.497,2.407-1.158,3.471-1.965.851-.72,1.899-2.03,1.768-2.882-.392-4.52,1.239-8.981,4.454-12.183,2.031-2.545,3.933-5.19,5.698-7.925.973-1.552,2.627-2.549,4.454-2.685,3.602-.524,7.205-.982,10.807-1.637,2.493-.46,4.931-1.184,7.27-2.161,11.921-5.24,23.841-10.742,35.762-16.047,2.349-1.008,4.304-2.756,5.567-4.978,4.978-8.253,9.956-16.571,15.392-24.627,4.454-6.55,9.628-12.707,14.279-19.191,3.864-5.436,7.27-11.2,11.135-16.637,3.864-5.436,8.384-11.266,12.576-16.833,1.179-1.506,2.62-2.882,3.668-4.519,2.277-3.473,5.75-5.99,9.759-7.074,3.537-1.113,7.008-2.62,10.545-3.93s2.751-.786,4.847,1.31c2.655,2.524,2.993,6.639.786,9.563-4.585,8.646-8.777,17.554-12.772,26.199-1.509,3.841-2.757,7.78-3.733,11.79-.743,2.313-1.184,4.713-1.31,7.139.557-.513,1.082-1.06,1.572-1.637,3.144-4.257,6.55-8.515,9.366-13.1,1.536-2.179,2.853-4.504,3.93-6.943,3.864-8.646,7.467-17.357,11.331-26.199.828-1.763.828-3.804,0-5.567-1.579-3.462-1.79-7.393-.589-11.004,2.751-7.139,5.174-14.41,7.336-21.68,1.879-4.856,4.437-9.421,7.598-13.558,3.471-5.567,7.467-10.807,10.742-16.44,4.831-8.062,11.249-15.058,18.864-20.567l5.895,5.174c-2.074,4.47-3.592,9.177-4.519,14.017l5.633-8.711c3.275-5.109,6.55-10.48,9.956-15.261,3.118-3.121,6.517-5.95,10.152-8.449.742-.374,1.616-.374,2.358,0,2.227.851,4.388,1.899,7.008,3.078-3.537,8.515-8.318,16.244-12.117,24.431-3.799,8.187-7.794,16.047-11.2,24.889.851-.655,1.899-1.179,2.685-1.899,5.24-5.24,10.611-10.349,15.589-15.785,2.62-2.882,5.109-1.048,7.663-.589s2.227,2.358,2.489,4.257c.51,3.111-.194,6.3-1.965,8.908-7.936,11.758-14.341,24.48-19.06,37.858-4.061,11.659-7.925,23.448-13.1,34.714-6.55,15.196-14.475,30.064-21.811,45.063-4.585,9.301-9.497,18.536-14.017,27.968-1.541,3.542-2.725,7.228-3.537,11.004-.433,1.88-1.413,3.589-2.816,4.912-2.554,2.489-4.978,5.043-7.598,7.336-1.176,1.029-2.561,1.789-4.061,2.227-3.668,1.048-7.467,2.03-11.266,2.816-4.962,1.022-9.721,2.859-14.082,5.436-10.938,6.55-22.008,12.707-32.749,19.65-4.596,2.763-8.976,5.873-13.1,9.301-5.315,4.235-11.203,7.697-17.488,10.283l-3.471,1.703,1.572,3.537c-2.227,2.161-6.55.524-7.336,4.585,3.013.458,4.519,4.912,9.039,2.751.049.61.049,1.224,0,1.834-1.103,2.688-.303,5.781,1.965,7.598,1.572,1.506,2.423,3.078.393,5.109v-1.31c0-1.768-1.637-2.358-3.078-2.62s-2.227,1.31-2.554,2.554c-2.644,8.526-5.861,16.863-9.628,24.955-.917,2.136-2.387,3.99-4.257,5.371-5.17,3.852-9.401,8.823-12.379,14.541-6.332,10.684-10.764,22.385-13.1,34.583-.869,5.091-1.416,10.232-1.637,15.392.157,4.006.639,7.993,1.441,11.921.524,3.209,0,4.781-3.275,5.567s-6.55,1.441-10.218,2.03c-1.061.194-2.148.194-3.209,0-9.874-2.947-19.353-7.081-28.23-12.314-1.965-1.179-4.126-2.03-6.157-3.013l-.458.262Z"/>
      <path class="st0" d="M537.431,515.333c.862,1.182,1.629,2.43,2.292,3.733.393.851,2.423,2.161,0,2.816l.655,2.358q-2.489,1.899,0,6.55l-1.965,3.406c-3.153-1.57-5.757-4.059-7.467-7.139-2.226-3.793-3.402-8.112-3.406-12.51.442-12.967,2.646-25.813,6.55-38.186,1.423-3.88,3.531-7.474,6.222-10.611,2.081-3.058,3.57-6.479,4.388-10.087,1.868-9.265,2.637-18.719,2.292-28.164.152-3.288-.548-6.559-2.03-9.497-2.819-6.374-7.354-11.839-13.1-15.785-3.275-2.096-6.091-4.847-9.366-6.943s-6.55-3.537-9.825-5.436c-1.642-.749-3.148-1.767-4.454-3.013-2.856-2.991-6.287-5.375-10.087-7.008l-8.253-3.799c-5-2.315-9.016-6.331-11.331-11.331-2.096-4.257-4.388-8.384-6.157-12.772-1.209-2.783-1.94-5.75-2.161-8.777-.524-10.152-1.113-20.305-.786-30.457.102-11.508,4.018-22.657,11.135-31.701,2.358-3.819,5.374-7.189,8.908-9.956,1.572-.917,3.078-1.899,4.585-2.882,2.316-1.254,4.509-2.723,6.55-4.388,2.339-2.024,5.087-3.521,8.056-4.388,8.848-3.069,18.145-4.64,27.509-4.65,6.026,0,12.117,0,18.143.458,4.165.204,8.196,1.54,11.659,3.864,4.585,3.078,9.104,6.55,13.558,9.694,3.248,2.421,5.709,5.748,7.074,9.563l5.829,17.095c.406.872.756,1.769,1.048,2.685.592,1.932.901,3.94.917,5.96,0,3.864-.982,7.663-1.375,11.528-.431,6.508-2.121,12.87-4.978,18.733-1.572,3.013-3.537,5.764-5.371,8.58-.24.29-.459.596-.655.917-2.837,5.191-7.508,9.138-13.1,11.069-.524.327-1.244.72-1.703.589-2.358-.655-3.864.917-5.633,1.899s-3.406,2.358-4.978,0c0-.327-1.113,0-1.703,0h-3.995c-8.693.452-17.154-2.894-23.186-9.17-.974-1.082-2.048-2.069-3.209-2.947-4.038-3.163-6.442-7.972-6.55-13.1-1.49-10.937,2.951-21.84,11.659-28.623,1.837-1.533,4.157-2.368,6.55-2.358,2.913-.056,5.826.119,8.711.524,2.828.528,4.98,2.84,5.305,5.698.851,3.308.851,6.778,0,10.087-.442,1.03-1.014,1.998-1.703,2.882-1.729-2.949-4.595-5.057-7.925-5.829-2.03-.458-4.323-1.768-6.157.327s-5.96,4.519-4.978,9.039c.132,1.941.132,3.888,0,5.829.814,3.858,4.602,6.325,8.46,5.511.106-.022.212-.047.317-.074.552-.19,1.151-.19,1.703,0,2.891.501,5.866.016,8.449-1.375l13.1-4.978c.302-.187.635-.32.982-.393,4.126.327,5.764-2.685,7.139-5.633,1.072-2.283,1.695-4.752,1.834-7.27.262-4.232.262-8.475,0-12.707.595-8.236-5.01-15.635-13.1-17.292-2.524-.828-5.143-1.334-7.794-1.506h-21.484c-9.403.242-18.384,3.951-25.217,10.414-2.544,1.545-4.555,3.83-5.764,6.55.058.101.058.226,0,.327-4.689,4.885-6.434,11.891-4.585,18.405.327,2.685.982,5.24,1.113,7.925.839,6.389,2.286,12.684,4.323,18.798,1.507,5.003,4.101,9.61,7.598,13.493,2.655,3.463,5.918,6.415,9.628,8.711,5.482,3.098,10.795,6.487,15.916,10.152,4.817,3.096,9.107,6.944,12.707,11.397,2.751,3.668,5.96,6.943,8.973,10.48.722.8,1.319,1.706,1.768,2.685,3.615,7.39,5.836,15.384,6.55,23.579,0,9.432.458,18.929.458,28.361,0,3.209-1.179,6.55-1.441,9.694-.769,4.859-2.555,9.502-5.24,13.624-.764,1.094-1.642,2.104-2.62,3.013-4.585,5.502-9.17,10.938-13.624,16.571-2.668,2.208-3.155,6.111-1.113,8.908.711,1.395,1.176,2.901,1.375,4.454.72,2.292.262,2.882-2.423,3.799Z"/>
      <path class="st0" d="M548.893,584.762c-7.205,10.676-14.344,21.287-21.68,31.832-.877,1.281-2.105,2.282-3.537,2.882-6.026,2.751-12.248,5.174-18.274,8.056-4.68,2.219-9.19,4.78-13.493,7.663-3.772,2.652-8.093,4.42-12.641,5.174-3.799.458-7.532,1.441-11.855,2.292.524-1.31.786-2.161,1.179-3.013,2.227-4.388,4.454-8.842,6.55-13.1.614-1.167,1.41-2.228,2.358-3.144,5.24-5.043,10.48-10.087,15.785-14.999,1.151-1.057,2.482-1.9,3.93-2.489,6.55-2.554,13.1-5.24,19.65-7.532,9.582-3.562,18.906-7.786,27.902-12.641l3.471-1.637.655.655Z"/>
      <path class="st0" d="M531.994,207.031c-2.992-7.191-3.11-15.257-.327-22.531,3.995.524,3.93.524,4.65,4.519.917,4.517.917,9.172,0,13.689-.524,3.668-.458,3.733-4.323,4.323Z"/>
      <path class="st0" d="M433.812,276.198c0,3.275-1.31,4.126-3.537,3.013s-6.55-2.685-7.598-6.55c-.118-.584-.118-1.185,0-1.768.13-1.124.611-2.179,1.375-3.013.458-.393,2.03,0,2.816.851,1.911,1.282,3.688,2.752,5.305,4.388.66.961,1.209,1.994,1.637,3.078Z"/>
      <path class="st0" d="M461.452,206.115c4.277,2.027,7.441,5.838,8.646,10.414.393,1.637.917,3.864-1.375,5.043-6.812-4.978-9.497-10.873-7.27-15.458Z"/>
      <path class="st0" d="M603.715,205.263c4.061,4.454,1.31,11.135-5.567,13.689-1.876-5.314.515-11.193,5.567-13.689Z"/>
      <path class="st0" d="M632.666,265.129c-1.572-4.192-.851-6.55,2.489-7.729,1.78-.594,3.596-1.075,5.436-1.441,2.227,3.406,1.899,5.567-1.244,7.008-2.159.916-4.394,1.639-6.681,2.161Z"/>
    </g>
  </g>
</svg>